<?xml version="1.0" encoding="utf-8"?>
<!-- Generator: Adobe Illustrator 21.1.0, SVG Export Plug-In . SVG Version: 6.00 Build 0)  -->
<svg version="1.1" id="Artboard_1" xmlns="http://www.w3.org/2000/svg" xmlns:xlink="http://www.w3.org/1999/xlink" x="0px" y="0px"
	 viewBox="0 0 427.2 68.3" style="enable-background:new 0 0 427.2 68.3;" xml:space="preserve">
<style type="text/css">
	.st0{fill:#F8FAFB;}
	.st1{fill:#FFFFFF;}
</style>
<g>
	<path class="st0" d="M265.9,233.7c-3.7,0-7.2,0.5-10.5,1.5c-1.8-19.5-18.2-34.9-38.2-34.9c-20,0-36.5,15.3-38.2,34.9
		c-3.4-1-7-1.5-10.7-1.5c-21.2,0-38.4,17.2-38.4,38.4c0,21.2,17.2,38.4,38.4,38.4h97.7c21.2,0,38.4-17.2,38.4-38.4
		C304.3,250.9,287.1,233.7,265.9,233.7z"/>
	<path class="st1" d="M405,24c-2.1,0-4.1,0.3-6.1,0.9c-1-11.3-10.5-20.1-22.1-20.1c-11.6,0-21,8.8-22.1,20.1c-2-0.6-4-0.9-6.2-0.9
		c-12.2,0-22.2,9.9-22.2,22.2c0,12.2,9.9,22.2,22.2,22.2H405c12.2,0,22.2-9.9,22.2-22.2C427.2,33.9,417.3,24,405,24z"/>
	<path class="st0" d="M71.3,17.5c-1.9,0-3.8,0.3-5.5,0.8C64.9,8,56.3,0,45.8,0c-10.5,0-19.1,8-20,18.3c-1.8-0.5-3.7-0.8-5.6-0.8
		C9,17.5,0,26.5,0,37.6c0,11.1,9,20.1,20.1,20.1h51.2c11.1,0,20.1-9,20.1-20.1C91.4,26.5,82.4,17.5,71.3,17.5z"/>
</g>
</svg>
