<?xml version="1.0" encoding="utf-8"?>
<!-- Generator: Adobe Illustrator 21.1.0, SVG Export Plug-In . SVG Version: 6.00 Build 0)  -->
<svg version="1.1" id="Layer_1" xmlns="http://www.w3.org/2000/svg" xmlns:xlink="http://www.w3.org/1999/xlink" x="0px" y="0px"
	 viewBox="0 0 353.3 449.2" style="enable-background:new 0 0 353.3 449.2;" xml:space="preserve">
<style type="text/css">
	.st0{fill:#003D7A;stroke:#003D7A;stroke-miterlimit:10;}
</style>
<g>
	<path class="st0" d="M176.3,384.7c-52.2,0-104.3,0-156.5,0c-13.3,0-18.8-5.9-19.3-19.2C0.3,357.2,3,351.3,9.4,346
		c19-15.9,28.2-37.5,33.2-61.1c4.9-22.8,5.7-45.9,6-69.1c0.2-16.5-0.9-33,2.8-49.3c8.9-39.4,31.3-68.5,66.8-87.6
		c10.7-5.8,13.1-10.2,11.2-22.1c-3-19.4,3.4-35.4,19.2-46.8S181.8-2.6,199,6.6s25.4,24.3,25.4,43.8c0,3-0.6,6-1.1,8.9
		c-1.4,8.8,1.5,14.5,9.8,18.6c17.2,8.7,32,20.5,43.9,35.6c18,22.9,26.8,49.1,27.5,78.2c0.7,25.1,1.3,50.3,3.2,75.4
		c1.5,19.4,6.7,38,16.4,55.1c5.5,9.7,12.5,18.1,21.1,25.2c7.6,6.3,10.1,21.2,4.9,29.6c-3.5,5.6-8.8,7.7-15.3,7.7
		c-31.8-0.1-63.7,0-95.5,0C218.3,384.7,197.3,384.7,176.3,384.7z M176.4,128.9c0.8,0,1.7,0,2.5,0c10.1,0,17.2-6.7,17.3-16.1
		c0.1-9-7.2-16-16.9-16c-5.3,0-10.7,0.3-15.9,0.9c-41.5,4.9-77.4,40.3-81.8,81.7c-1.6,14.8-0.9,29.9-1.3,44.9
		c-1,36.6-3.8,72.8-19.7,106.7c-2.9,6.2-1.2,12.1,3.5,17c8.1,8.5,21.2,5.7,26.6-5.7c10.8-22.8,16.9-47.1,18.7-72.1
		c1.9-25.9,2.6-51.9,3.1-77.8C113.2,157.3,141.3,129,176.4,128.9z M176.6,32.7c-8.9,0-16.1,7.2-16.1,16.2c0.1,8.7,7.1,15.8,15.8,16
		c9,0.1,16.3-7,16.3-15.9C192.7,39.9,185.5,32.7,176.6,32.7z"/>
	<path class="st0" d="M115.1,401c41.1,0,81.9,0,122.7,0c-3.2,24.3-31,46.8-58.8,47.7C149,449.5,120.7,428.6,115.1,401z"/>
</g>
</svg>
