<?xml version="1.0" encoding="utf-8"?>
<!-- Generator: Adobe Illustrator 21.1.0, SVG Export Plug-In . SVG Version: 6.00 Build 0)  -->
<svg version="1.1" id="Layer_1" xmlns="http://www.w3.org/2000/svg" xmlns:xlink="http://www.w3.org/1999/xlink" x="0px" y="0px"
	 viewBox="0 0 129 145" style="enable-background:new 0 0 129 145;" xml:space="preserve">
<style type="text/css">
	.st0{fill:#003D7A;stroke:#003D7A;stroke-miterlimit:10;}
</style>
<path class="st0" d="M60.5,144.5c-2.6-0.4-5.2-0.7-7.8-1.1c-5.9-1-11.6-3-16.9-5.7c-6.2-3.1-11.8-7.2-16.7-12.1
	c-4.7-4.8-8.7-10.2-11.7-16.2c-2.9-5.6-4.9-11.6-6-17.8C0.3,85.2,0.1,78.7,1,72.3c1.2-8.8,4-17.1,8.6-24.8
	c3.5-5.8,7.7-10.8,12.8-15.2c5.2-4.5,10.9-8.1,17.3-10.7c5.7-2.4,11.7-3.9,17.8-4.6c0.9-0.1,1.2-0.5,1.1-1.3c-0.1-0.9,0-1.7,0-2.5
	c-1.2-0.4-2.2-0.6-3.1-1c-1.6-0.8-2.5-2.1-2.7-3.9c-0.2-2.1-0.4-4.2,1.2-5.9c0.8-0.8,1.8-1.3,2.8-1.9c5.1,0,10.1,0,15.2,0
	c0.9,0.6,2,1.1,2.8,1.9c1.6,1.7,1.4,3.9,1.2,6c-0.2,1.7-1.1,3-2.6,3.7c-0.9,0.5-2,0.7-3.1,1c0,1.1,0,2.4,0,3.6
	c2.5,0.4,4.9,0.8,7.3,1.3c6.8,1.4,13.3,3.7,19.2,7.4c3.6,2.3,6.9,5,10.3,7.4c0.3,0.2,0.9,0.4,1.1,0.2c1.3-1,2.5-2.1,3.7-3.2
	c-0.4-0.6-0.6-0.8-0.7-1c-0.9-1.6-0.5-3.1,1.1-4.6c1.4-1.3,2.9-1.4,4.3-0.2c1.8,1.6,3.5,3.4,5.3,5.1c1.3,1.3,1.6,2.8,1,4.1
	c-0.9,1.7-2.5,2.7-4.3,2.4c-0.3,0-0.7,0-0.9,0.2c-1.3,1.2-2.6,2.5-3.9,3.8c0.3,0.5,0.5,0.8,0.7,1c5.9,7.3,9.9,15.4,12.2,24.5
	c2.1,8.4,2.5,17,1.1,25.5c-1.7,10.7-5.9,20.3-12.5,28.9c-3.3,4.3-7.1,8.2-11.4,11.4c-2.8,2.1-5.8,4-8.8,5.8
	c-5.8,3.4-12.1,5.5-18.7,6.7c-2.5,0.4-5.1,0.8-7.6,1.1C65.9,144.5,63.2,144.5,60.5,144.5z M64.4,136c30.7-0.1,55.4-24.8,55.5-55.4
	S95.1,25.1,64.6,25.1C33.7,25,9.2,49.8,9,80.3C8.9,110.9,33.9,135.9,64.4,136z"/>
<path class="st0" d="M113.9,80c-1.1,0-2,0.1-2.9,0c-0.3,0-0.7-0.6-0.7-1c-0.4-2.5-1.6-4.5-3.9-5.6c-1.2-0.5-2.5-0.8-3.8-0.8
	c-8.7-0.1-17.5,0-26.2,0c-0.7,0-1.1-0.1-1.5-0.7c-2.6-4-6.4-6.1-11.2-6.5c-0.3,0-0.6-0.1-1-0.1c0-0.4,0-0.8,0-1.2
	c0-11.2,0-22.5,0-33.7c0-1.1,0.3-1.4,1.4-1.3c8,0.3,15.5,2.2,22.6,6c4,2.1,7.6,4.7,10.9,7.8c5.3,4.9,9.3,10.7,12.1,17.2
	c1.8,4.2,3,8.5,3.6,13C113.5,75.2,113.6,77.5,113.9,80z"/>
<path class="st0" d="M88.3,81.7c-4.8,0-9.5,0-14.3,0c-1,0-1.5,0.2-1.8,1.2c-2.7,6.7-12,8.1-16.8,2.7c-4.8-5.5-2.5-14.7,5.5-16.6
	c4.4-1.1,9.7,1.6,11.3,5.8C72.5,75.7,73,76,74,76c9.4,0,18.8,0,28.2,0c0.5,0,1.1,0,1.6,0.1c1.5,0.3,2.4,1.3,2.4,2.8
	c0,1.4-1,2.5-2.4,2.7c-0.4,0.1-0.8,0.1-1.3,0.1C97.7,81.7,93,81.7,88.3,81.7z"/>
</svg>
