<?xml version="1.0" encoding="utf-8"?>
<!-- Generator: Adobe Illustrator 21.1.0, SVG Export Plug-In . SVG Version: 6.00 Build 0)  -->
<svg version="1.1" id="Слой_1" xmlns="http://www.w3.org/2000/svg" xmlns:xlink="http://www.w3.org/1999/xlink" x="0px" y="0px"
	 viewBox="0 0 447.3 485.4" style="enable-background:new 0 0 447.3 485.4;" xml:space="preserve">
<style type="text/css">
	.st0{opacity:0.6;fill:#C39955;}
	.st1{fill:#66A79F;}
	.st2{fill:#E8A328;}
	.st3{fill:#CB5726;}
	.st4{fill:#D69E7B;}
	.st5{fill:#AE6375;}
	.st6{fill:#BD7C93;}
	.st7{fill:#E697AA;}
	.st8{fill:#AB1543;}
	.st9{fill:#CC6D7D;}
	.st10{fill:#C41C47;}
	.st11{fill:#71BBDA;}
	.st12{fill:#90DEFD;}
	.st13{fill:#7BC6F1;}
	.st14{fill:#E2AD8D;}
	.st15{fill:#F1CCB5;}
	.st16{opacity:0.4;fill:#DE8080;}
	.st17{fill:#E1733A;}
	.st18{fill:#FFFFFF;}
	.st19{fill:#402D24;}
	.st20{fill:#DD9570;}
	.st21{fill:#D28473;}
	.st22{fill:#5B99AC;}
	.st23{fill:#7ECDE5;}
	.st24{fill:#EDBB98;}
	.st25{fill:#5EA1B9;}
	.st26{fill:#DB275F;}
	.st27{fill:#B64861;}
	.st28{fill:#DA808B;}
	.st29{fill:#62998F;}
	.st30{fill:#EAADB8;}
	.st31{fill:#77B8AF;}
	.st32{fill:#93D5D1;}
	.st33{fill:#F2D0D8;}
	.st34{fill:#ECC3CB;}
	.st35{fill:#E393A6;}
	.st36{fill:#EDE6DC;}
	.st37{fill:#DF6684;}
	.st38{fill:#B4DFD6;}
	.st39{fill:#95D3CE;}
	.st40{fill:#E9A5BB;}
	.st41{fill:#E27F93;}
	.st42{opacity:0.2;fill:#B4DFD6;}
	.st43{fill:#F5DD9A;}
	.st44{fill:#F1CB5C;}
	.st45{opacity:0.2;fill:#95D3CE;}
</style>
<path class="st0" d="M311.2,466.3c-7.2-12.1-55.2-7.5-71.4-7.9c-40-1.1-80.1-0.9-120.1-0.3c-15.7,0.2-79.8,3.1-94.7,3.6
	c-29.7,0.9-36.4,13.6-1,16.8c40.6,3.7,85,6.5,126.2,6.6c39.4,0.1,80.4,1.4,119.5-2c13.8-1.2,47.4-5.8,41.7-16.5
	C311.3,466.5,311.2,466.4,311.2,466.3z"/>
<g>
	<path class="st1" d="M352.4,148.6c-35.7,12.8-82,23.2-101.6,59.3c-0.1,0.1-0.1,0.3-0.2,0.4c3.4-9.9,7.9-19.4,13.7-28.2
		c22.3-34.1,58-55.8,86.1-84.5c1.1-1.1-0.6-2.8-1.7-1.7c-28.8,29.4-64.6,51.6-87.5,86.5c-7,10.6-12,22.3-15.5,34.6
		c0.7-9.2,1.8-18.4,3.6-27.6c3.4-17.8,9.1-34.2,18.3-49.8c8.3-14.1,18-27.3,24.8-42.3c0.6-1.4-1.4-2.6-2-1.2
		c-7.1,15.5-17.2,29.3-25.8,44c-9.3,15.8-14.5,32.8-18,50.8c-2.4,12.8-3.7,25.7-3.9,38.7c-8,27.7-5.8,58.8-5.8,86.8
		c0,1.5,2.4,1.5,2.4,0c0-16.7-0.7-34.3,0.4-51.5c0.1,11.2,1.1,22.3,2.8,33c0.2,1.5,2.5,0.9,2.3-0.6c-2.7-17-3.6-34.7-1.8-52.1
		c0.9,18.9,4,37.7,8.9,55.9c0.4,1.5,2.7,0.8,2.3-0.6c-6.2-22.9-9.3-46.5-9-70c1.8-6.2,4-12.2,6.9-18c8.8-17.8,25.2-28.8,42.5-37.4
		c18.7-9.2,38.8-15.1,58.4-22.2C354.5,150.4,353.9,148.1,352.4,148.6z"/>
	<path class="st2" d="M340.3,140.9c0.8,12.2,5.8,16.9,15.4,19.8c2.4-5.5,6.3-10,8.8-14.8l-10.2-3.9C348.9,139.9,346,139,340.3,140.9
		z"/>
	<path class="st3" d="M225.8,75c-11.8-4.8-26.1-5.6-36.1,3.5c-11.9,10.8,0.2,22.2-6.5,32.8l40,26.7c0,1.1,0.4-1,0.6-1.6
		c5.7-13.4,27.4-10.9,25.9-30.6C248.7,91.7,238.4,80.2,225.8,75z"/>
	<path class="st1" d="M363,79.9c-3.8,2.8-10.6,1.4-15.6,1.7c-3.3,19.4,25.3,28.5,22.6,1.5L363,79.9z"/>
	<polygon class="st4" points="142.8,378.5 149.1,411.8 164.4,409.9 162.9,373.4 	"/>
	<g>
		<path class="st5" d="M79.9,271.2c4-4.9,13.8-4.6,18.7-8.1c0,0,0.1-0.1,0.1-0.1c-1.1-0.7-2.1-1.4-3-2.2c-6.9,4-17.3,2.9-20.4,11.7
			c-0.2,0.7-0.1,1.2,0.3,1.6c-0.7,1.5,0.8,3.6,2.3,2.4c9.4-7.1,22.7-1.5,32.3-8.8c-1-0.7-2-1.5-3-2.2
			C99.3,270.9,88.5,267.7,79.9,271.2z"/>
		<path class="st5" d="M75.6,275.2c-2.2,0.6-1.3,4,0.9,3.4c10.3-2.8,19.9,4.1,30.3,1.4c-0.5-1.1-1-2.2-1.6-3.3
			C95.3,278.9,85.8,272.4,75.6,275.2z"/>
	</g>
	<path class="st6" d="M70.6,279.2c-1.9,6.7,1,9.2,6.8,11.9c4.4,2,12.6,5.9,17.3,3.8l2-13.7c-5.1-2.5-9.3-5.9-14.6-8.1
		C75.6,270.4,72.5,272.3,70.6,279.2z"/>
	<path class="st4" d="M92.6,273.7c0,0-14.1-3.5-15.7,9c-1,7.8,5.4,16.8,13.7,14.1c-2.5-4.1-2-9.5,2.3-12.1c2.2-1.4,9.8,0.8,12.2,0.8
		c2.4,0,16.9-1.2,31.8-21.6L124,250.2C124,250.2,116.2,276.1,92.6,273.7z"/>
	<path class="st7" d="M251.1,433c-10.2-3.1-139.3,5.5-139.3,5.5s0.8,6.3,6.7,11.4c5.9,5.1,112.6-3.9,133.4-7.1
		C272.7,439.7,261.3,436.2,251.1,433z"/>
	<path class="st8" d="M213.4,225.1c-11.8,6.2-1.2,27.1-1.2,27.1c6.2,7.9,13.8,0.9,11.2-14.7C220.7,221.9,213.4,225.1,213.4,225.1z"
		/>
	<path class="st9" d="M163.6,435.4c0,0-18,3.9-18,3.9c-1.8-1.1-11.6-1.4-11.8,3.1c-0.3,5.1,22.3,2.3,24.9,2c3.9-0.4,11.4-2.5,15.4-4
		C187.2,435.4,169.4,434.1,163.6,435.4z"/>
	<path class="st8" d="M138.3,225.4c-5.9,6.5-14.1,20.6-16.8,22.1c0,0,3.2,5.6,11.5,10.3l15.3-33.3
		C148.3,224.5,144.2,218.9,138.3,225.4z"/>
	<path class="st10" d="M196.9,260.1c0,0,9.1-28-2.4-30.9l-12.5-3.3c0,0-12.6-1.4-20.5,6c0,0-5.3,3.5-10.3,1.2c0,0-1.7-3,2.6-8.7
		c0,0-9.9-1.3-19.6,28.7c0,0-7.1,51.5,2.6,62.7c0,0,60.6-2.4,72.1-13.5C209,302.2,192.2,286.6,196.9,260.1z"/>
	<path class="st4" d="M153.8,224.3c0,0-6.3,7.1-1.2,9c5.1,2,12.1-4,16.1-5.5c3.1-1.2,13.3-2,13.3-2l0.4-5.9l-27.9-2.4L153.8,224.3z"
		/>
	<g>
		<path class="st11" d="M184.3,97.4c-0.6,5.3-1.2,11.8-1.2,11.8l45.9,23l7.7-7.1C217.2,92.7,184.3,97.4,184.3,97.4z"/>
		<path class="st12" d="M224.8,128.3l7.1-3.3c0,0,12.4-8.2-4.1-25.3C227.8,99.7,203.1,108.7,224.8,128.3z"/>
		<path class="st12" d="M237.8,128.6l-2.4,8.8c24.6,11.9,28.2-11.2,28.2-11.2C248.4,116.8,237.8,128.6,237.8,128.6z"/>
		<polygon class="st13" points="224.8,128.3 237.7,139.3 240.2,126.8 234.3,121.5 		"/>
	</g>
	<path class="st14" d="M222.4,147.6c-2.8-3.1-5.3-6.4-8.7-8.8c-4.6-3.2-10.1-5.4-15-8.2c-15.9-8.9-35.1-15.9-52.4-7.1
		c-2.2,1.1-13.2,5.6-12.6,8.8c0,0-13,14.1-18.5,20c0.2,0.4,0.3,0.9-0.1,1.4c0,0.1-0.1,0.2-0.1,0.4c-0.4,0.8-0.9,1.5-1.5,2.3
		c0.8,2.6-0.1,6.7-0.3,8.9c-0.4,4.5-1.1,9.1-1,13.6c0.6,26.5,31.5,39.3,53.6,42.7c6.9,1.1,14.3,1.3,21.3,0.8
		c14-1.1,29-5.3,37.5-17.4c6-8.4,10.2-19.3,10-29.8c-0.1-5.1-1-10.3-2.9-15C229.7,155.1,226,151.6,222.4,147.6z"/>
	<path class="st15" d="M197.5,178.7c-6.2-2.6-13.3-5.8-19.1-9.3c0,0,0,0.1,0,0.1c0,1.2-1.1,2.5-2.4,2.4c-7.5-1-13.2-7.5-16.3-14.1
		c-3.5-7.6-3-15.5-3-23.5c-16.9,6.4-37.8,17.8-42,27.1c-1.7,8.5-1.3,16.9,1.4,25.1c4,12.4,14.8,22,26.8,26.2
		c17.4,6.2,38.7,9.1,50.1-7.6c3.3-4.8,6.6-10.9,8.2-16.5c0.9-2.9,1.1-5.3,0-7.1C200.5,180.4,199.3,179.4,197.5,178.7z"/>
	<path class="st16" d="M114.5,176.8c1.2,6.9,11.9,12.5,14.6,3.6c0.9-3.2,0.2-7-2.2-9.5C122,166,113.3,169.7,114.5,176.8z"/>
	<path class="st17" d="M224.8,128.3c-28.1-18.9-58.8-32.8-89.7-8.6c-5.4,4.2-9.9,10.4-14.4,15.6c-3.9,4.4-6.9,21-7.8,22.8
		c14.1-16.6,28.7-18.9,46.1-27.7c-3,15.2,2.6,29.6,16.3,37.3c-0.2-1.3,0.4-3.1,0.2-4.4c0.3,2.2,11,5.4,12.9,6.2
		c4.7,2,8.5,4.6,12.5,7.6c1.7-2.3,5.1-3.4,7.6-4.4c7.9-3,16.4,3.2,13.1,12c-2.2,5.7-9,12.6-15.7,10.8c2.3,0.6,10.6,10.3,8.1,19.5
		c33.7-2.3,39.9-53,23.6-74.6C234.2,135.9,229.9,131.7,224.8,128.3z"/>
	<path class="st17" d="M112.9,158.1c0,0.1-0.1,0.1-0.1,0.2C112.8,158.3,112.8,158.2,112.9,158.1z"/>
	<g>
		<path class="st18" d="M128.6,158.1c-4.5,1.2-8.8,6.6-6.9,11.1c2.8,6.7,10.9,2.6,13.7-1.7C138.7,162.2,136,156,128.6,158.1z"/>
		<path class="st19" d="M133.3,160.2c-2.7-0.1-6.2,2.9-6.5,7.2c-0.2,2.8,0.8,4.3,2.3,4.8c2.5-0.8,5-2.8,6.3-4.8
			c0.5-0.8,0.9-1.8,1.1-2.7C136.4,161.6,135,160.3,133.3,160.2z"/>
	</g>
	<path class="st16" d="M164.7,183.2c-1.9-1.5-4.3-2.5-6.6-2.7c-3.6-0.4-9.4,2.3-10.3,6.2c-1.6,6.5,7.3,13.1,13.1,13.1
		c7.7,0,9.9-7.7,6.4-13.7C166.6,185,165.7,184,164.7,183.2z"/>
	<g>
		<path class="st18" d="M153.9,176.3c-1.2,9,12.7,13.4,17.9,8.2c1.8-1.8,3-4.8,3-7.6c0-0.8-0.1-1.6-0.3-2.3
			C171.6,164.3,155.4,165.4,153.9,176.3z"/>
		<path class="st19" d="M166.6,171.5c-2.4-0.3-4.6,0.6-6,3.2c-4,7.7,5.5,13.9,10.8,7.4C175.6,177.1,171.1,172.2,166.6,171.5z"/>
	</g>
	<path class="st20" d="M143.6,174.3c-1.8-1.2-4.5,0.5-6.4,0.8c-1.6,0.2-3.3-0.4-4.6,0.7c-2.9,2.2-1.6,6.9,0.7,8.8
		c4,3.4,7.6,2.1,10.3-3.5c0.7-1.4,1.8-4.5,0.8-6C144.1,174.7,143.8,174.5,143.6,174.3z"/>
	<path class="st21" d="M147.3,194.4c-0.7-0.1-1.1,0.4-1.2,0.9c-0.2-0.2-0.5-0.3-0.9-0.2c-7.1,1.9-16.4,1.4-18.9-6.9
		c-0.1-0.3-0.3-0.6-0.6-0.7c0.1-0.1,0.1-0.3,0.1-0.5c0-0.4,0-0.8-0.3-1.1c-0.4-0.4-0.9-0.5-1.4-0.3c-0.2,0.1-0.4,0.2-0.5,0.4
		c-0.8,0.6-0.4,1.7,0.4,2c-0.1,0.2-0.1,0.4,0,0.7c1.5,5.1,5.6,8.4,10.7,9.4c2.4,0.5,4.7,0.5,7.1,0.1c1.2-0.2,4-0.8,5-1.3
		C147.2,196.5,150,194.7,147.3,194.4z"/>
	<path class="st18" d="M136.9,177.5c-3.9-1-0.9,4.6,1.1,4c0.9-0.3,1.1-0.9,1-1.5C138.9,178.9,137.9,177.7,136.9,177.5z"/>
	<path class="st3" d="M224.8,128.3c-1.7-1.1-3.4-2.3-5.2-3.4c7.6,4.8,14.3,17.1,15.8,28.9c4.8,38.9-18.9,49.8-22,51.7
		c1.1,3,1.6,6.3,0.7,9.6c33.7-2.3,39.9-53,23.6-74.6C234.2,135.9,229.9,131.7,224.8,128.3z"/>
	<path class="st8" d="M189.8,228.3c-16.5-2.9-29.7,24.7-29.7,24.7s-13.8-3.5-19.1-5.6c-5.3-2.1,12.8-23.1,12.8-23.1
		c-9.5,0.1-20.5,27-20.5,27l13.5,61.8l35.3,5.3l26.8-16.2c-13.8,4.1-38.5,4.4-38.5,4.4C152.8,243.6,189.8,228.3,189.8,228.3z"/>
	<path class="st3" d="M168.9,119.4c-7.4,5.6-9.9,11-9.9,11c-5.5,27.2,16.3,37.3,16.3,37.3C146.9,140.6,168.9,119.4,168.9,119.4z"/>
	<path class="st3" d="M189.8,169.8C189.8,169.8,189.8,169.8,189.8,169.8C189.8,169.8,189.8,169.8,189.8,169.8z"/>
	<path class="st3" d="M173.7,150.1c0,0-9.1,14.4,16.1,19.7C188.6,169.5,172.2,165.4,173.7,150.1z"/>
	<path class="st11" d="M163.6,258c0,0-22.8-7.1-29.8-10.2c0,0-7.8,15.7-5.1,58.5c0,0,17.3,5.9,37.7,2.7
		C166.4,309,158.2,274.9,163.6,258z"/>
	<path class="st22" d="M165.6,257.7l-31.8-8.6l1.8,0.6l28.1,9.6c-6.7,20.8,2.7,51,2.7,51h2.4C157.4,273.3,165.6,257.7,165.6,257.7z"
		/>
	<path class="st12" d="M132.7,266.3c0,0-3.9,26.7-0.8,32.2c3.1,5.5,21.5,8.5,23.1,4.3c3.7-9.6-1.6-32.2-1.6-32.2L132.7,266.3z"/>
	<path class="st22" d="M150.7,304.7c0,0,13.7,3.9,2.7-34.1C153.4,270.6,159.7,305.1,150.7,304.7z"/>
	<g>
		<path class="st22" d="M136.3,271.2c-1-0.2-2-0.4-2.9-0.6c-0.7-0.1-1.1,1-0.3,1.1c1,0.2,2,0.4,2.9,0.6
			C136.8,272.5,137.1,271.4,136.3,271.2z"/>
		<path class="st22" d="M141.7,272.2c-0.9,0-1.9-0.2-2.8-0.4c-0.7-0.1-1.1,1-0.3,1.1c1,0.2,2.1,0.4,3.1,0.4
			C142.4,273.4,142.4,272.2,141.7,272.2z"/>
		<path class="st22" d="M147,273.3c-0.8,0-1.6-0.4-2.4-0.6c-0.7-0.2-1,0.9-0.3,1.1c0.9,0.2,1.8,0.6,2.7,0.6
			C147.7,274.5,147.7,273.4,147,273.3z"/>
		<path class="st22" d="M153.2,275c-1.1-0.6-2.2-1-3.4-1.1c-0.8,0-0.8,1.2,0,1.2c1,0,1.9,0.4,2.8,0.9
			C153.2,276.4,153.8,275.4,153.2,275z"/>
	</g>
	<path class="st23" d="M149.8,260.1l11.2,3.8c0,0,6.8-35.3,33.5-34.7l-11.5-3.8C183.1,225.4,156.3,223.3,149.8,260.1z"/>
	<polygon class="st24" points="216.6,360.4 243.7,360.8 245.3,346.3 219.7,340.4 	"/>
	<path class="st22" d="M161,263.9h1.8c6.1-35.3,29-34.9,31.5-34.7C166.9,226.8,161,263.9,161,263.9z"/>
	<path class="st22" d="M194.3,229.2c0.1,0,0.2,0,0.2,0C194.5,229.2,194.5,229.2,194.3,229.2z"/>
	<path class="st23" d="M129.8,254.8l5.6,0c0,0,7.8-27.5,18.4-30.5l-4.6-1.6C149.2,222.7,139.2,222.7,129.8,254.8z"/>
	<path class="st11" d="M206.3,326.6c10.6-17.7,2.6-24.4,2.6-24.4c-33.3,12.4-80.2,4.1-80.2,4.1c-0.8,38,12,65.9,12,65.9l23-2.4
		l2.9-20.9c19.4,12.1,45,13.8,45,13.8c6.5-10.9,5-25.3,5-25.3C208.7,336.3,206.3,326.6,206.3,326.6z"/>
	<path class="st25" d="M128.6,304.5c0,0,1.2,42.1,12.1,67.7l23-2.4l2.9-20.9C166.6,349,134.8,339.3,128.6,304.5z"/>
	<path class="st23" d="M212.5,334.8c-2.6,18.2-8.8,28-8.8,28l13.5,2.6c8.5-15,3.8-26.8,3.8-26.8L212.5,334.8z"/>
	<path class="st8" d="M195.7,270.4c0,0,0.3-7.7,2.1-12.1h-16.2C181.6,258.3,186.6,265.7,195.7,270.4z"/>
	<path class="st14" d="M236.9,215.4c-10.6,9.4-27.4,14.4-27.4,14.4c-5.9,8.5,3.2,20.9,3.2,20.9c16.2-5.9,33.5-26.5,33.5-26.5
		C243.1,223.3,236.9,215.4,236.9,215.4z"/>
	<path class="st11" d="M137.2,366.6l2.4,13.5l25.6-2.4l-0.3-12.7C154.8,366.9,137.2,366.6,137.2,366.6z"/>
	<path class="st26" d="M213.4,225.1c0,0-5.3,0.3-23.5,3.2c-18.2,2.9-15.9,25.9-8.2,30c7.7,4.1,34.4-3.2,34.4-3.2
		C204,236.9,213.4,225.1,213.4,225.1z"/>
	<path class="st15" d="M257.3,203.9c-0.8-1.5-1.9-2.8-3.6-3.6c-3.2-1.5-11.4-1.2-14.2,0.9c-2.6,2-2.7,3.6-3.1,6.5
		c-0.3,2-1.5,5,0.8,6.6c-1.9,2.4,1.3,7.4,3.5,9.1c2.3,1.9,7.7,2,10.4,1.1c6.3-2,8.2-10.9,7.4-16.6
		C258.3,206.5,257.9,205.1,257.3,203.9z"/>
	<path class="st27" d="M88.7,294.1c0,0,24.3,12.6,45.9,17.7c0,0,0.8-12.9,4.3-13.7l-43.2-15.7C95.8,282.4,83.2,282.8,88.7,294.1z"/>
	<path class="st17" d="M136.8,149.1c-2.9-1.8-6.1-1.6-9,0c-1.3,0.7-0.1,2.7,1.2,2c2.2-1.2,4.5-1.4,6.7,0
		C136.9,152,138.1,149.9,136.8,149.1z"/>
	<path class="st28" d="M102.8,283.5c-7.2,5.3-7.1,15.3-2,18.8c5.1,3.5,8.6,4.3,11.4,3.5c0,0-1.6-11.4,6.7-15.7
		C118.9,290.2,108.7,279.2,102.8,283.5z"/>
	<path class="st29" d="M123.6,455.4c-4.1,0.5-1.4,9.5,0.1,11.8c2.2,3.5,6.1,6.1,10.1,6.7c10.1,1.6,20.4-8.7,18.5-18.1L123.6,455.4z"
		/>
	<path class="st30" d="M107.1,283.9c-2.4-0.3-4.6,0.4-5,2.5c-0.5,2.7,2.4,3.8,4.2,4.6c2.3,1,9.2,3.5,9.3-1.2
		C115.7,287,111,284.3,107.1,283.9z"/>
	<path class="st29" d="M231.9,447.2l-20.8,3.5c-3.7,8.3-0.9,19,10.2,20c5.4,0.5,9.4-2.2,11.3-7.4c1.2-3.4,1.6-7.3,1.3-11
		C233.7,450.8,233.1,446.1,231.9,447.2z"/>
	<path class="st9" d="M220.1,445c-25.3,3.3-50.6,4.1-76,3.8c-10.3-0.1-23.8-2.1-30.7-10.6c-4.5-5.4-5.5-12.5-6.8-19.2
		c-3.9-19.5-4.3-38.9-2.7-58.7c1.5-18.2,4.6-36.5,8.4-54.4l-11.4-3.5c-3.9,15.8-7.3,32.4-8.8,48.6c-1.9,20.1-4.9,40.6-1,60.6
		c2.4,12.2,2.4,24.2,11.6,33.8c9.8,10.3,25.1,13,38.7,13.4c8.9,0.3,17.8-0.5,26.6-1.2c8.2-0.6,16.5-1.5,24.7-2.5
		c71.4-9,73.8-7.5,70.2-15.7C248.7,441.6,234.3,443.2,220.1,445z"/>
	<path class="st27" d="M123.6,457c31.8,11.4,137.7-11.4,137.7-11.4C146.4,464,123.6,457,123.6,457z"/>
	<g>
		<g>
			<path class="st31" d="M156.6,452.5c-9.6-2.4-20.8,6.2-21.1,16.5c-0.7,20.7,30.7,21.8,33.9,2.6
				C171.1,461.5,164.5,454.5,156.6,452.5z"/>
			<path class="st32" d="M160.6,452.5c-8.7-2.4-18.9,6.2-19.2,16.5c-0.6,20.7,27.9,21.8,30.8,2.6
				C173.7,461.5,167.7,454.5,160.6,452.5z"/>
		</g>
		<g>
			<path class="st9" d="M159.7,475.8l-0.8-13.7C146.9,460.7,147.2,478.6,159.7,475.8z"/>
			<path class="st7" d="M157.8,462.4c-4.9,0.1-6.6,6.4-5.5,9.7c1.5,4.3,7.5,5.4,10.1,1.4C164.7,470.2,163.7,462.3,157.8,462.4z"/>
		</g>
		<path class="st33" d="M162.5,466.2c-2.2-4.1-8.2-0.1-5.4,3.4c2.3,2.8,7.1,0.1,5.4-3.2C162.6,466.3,162.5,466.2,162.5,466.2z"/>
	</g>
	<g>
		<g>
			<g>
				<path class="st31" d="M239,446.3c-9.6-2.4-20.8,6.2-21.1,16.5c-0.7,20.7,30.7,21.8,33.9,2.6C253.5,455.3,246.8,448.2,239,446.3z
					"/>
				<path class="st32" d="M243,446.3c-8.7-2.4-18.9,6.2-19.2,16.5c-0.6,20.7,27.9,21.8,30.8,2.6C256.1,455.3,250.1,448.2,243,446.3z
					"/>
			</g>
			<g>
				<path class="st9" d="M242.1,469.6l-0.8-13.7C229.3,454.5,229.6,472.3,242.1,469.6z"/>
				<path class="st7" d="M240.2,456.1c-4.9,0.1-6.6,6.4-5.5,9.7c1.5,4.3,7.5,5.4,10.1,1.4C247.1,463.9,246.1,456,240.2,456.1z"/>
			</g>
		</g>
		<path class="st33" d="M242.1,458.1c-3.3-0.9-5,3-2.5,5.1C243.6,466.6,246.8,459.5,242.1,458.1z"/>
	</g>
	<g>
		<path class="st7" d="M156.4,303.1c-2-1.3-8.2-4.1-11.1-4.9c-4.6-1.2-9.4-2.3-12.5,1c-2.2,2.3-3.9,10.5-2,13.3
			c2.6,3.6,11.5,5.6,15.1,7.1c4.7,1.9,9.1,1.8,11.3-1.2C161.2,313.2,161.9,306.9,156.4,303.1z"/>
		<path class="st34" d="M158.5,305.9c-4.2-6.1-12.6,8.9-6.8,13.9c4.8,4.1,9.7-8.7,7-13.4C158.7,306.2,158.6,306,158.5,305.9z"/>
	</g>
	<path class="st9" d="M154.5,313.8c2.6,9,4.2,19.7,10.6,26.8c1-0.7,1.9-1.4,2.8-2c-6.3-6.6-7.7-17.3-10.1-25.7
		C157.3,310.7,153.9,311.6,154.5,313.8z"/>
	<path class="st10" d="M154.2,312.2l-0.4,1.6c0,0,18.8,5.9,20.8,28.2l3.5-1.6C178.2,340.4,177,316.5,154.2,312.2z"/>
	<path class="st35" d="M193.6,323.3c-13-0.7-24.5-13.2-38.2-13.3c-2.3,0-2.3,3.5,0,3.5c14.4,0.1,25,12.3,38.3,13.1
		c0-0.1,0-0.2,0-0.3C193.7,325.9,193.6,324.6,193.6,323.3z"/>
	<path class="st4" d="M95,280.8c-1.2,0-5.7,6.6-5.8,7.6c-0.5,5.8,5.7,3.1,7.9,0.3c2.1-2.7,4.5-4,6.9-6.3
		C101.2,280.5,98.3,280.8,95,280.8z"/>
	<path class="st36" d="M146,406.2c-0.9,1.4,2.8,9.5,3.2,9.5c3.8,0.2,6.7,2.4,10.2,3.9c3.3,1.4,5.2,7,6.6,2.8c1.7-5,2.9-12-1.1-16.2
		C164.4,405.7,148.6,402,146,406.2z"/>
	<path class="st36" d="M237.1,344c-1.6,1.5-1.2,10.6-1.6,13c-0.9,4.6-1.5,8.3,4.4,7.6c2.4-0.3,11.8-0.8,12.5-2.8l-3.1-16.9
		C247.3,344.2,238.4,342.7,237.1,344z"/>
	<path class="st10" d="M148.7,415.4c0,0,3.5,6.3-7.8,8.2c-11.4,2-10.6,14.1-4.3,18c6.3,3.9,30.2-4.3,30.2-4.3
		c2.4-3.1,1.2-11.8,1.2-11.8C167.2,411.8,148.7,415.4,148.7,415.4z"/>
	<path class="st36" d="M148.7,419.7c0,0-1.6,2.7-5.5,3.1c0,0,7.8,11,14.1,4.7C164.7,420.1,148.7,419.7,148.7,419.7z"/>
	<path class="st10" d="M259.8,339.3c-2.8-0.1-10,2.7-11.9,5.4c2.9,4.9,3.3,18.2,3.3,18.2c0.6,1.8,10,12.9,13.8,13.4
		c5,0.6,12.2-1.4,13.3-7.1c1.1-5.6-6.2-12.7-8.8-17.2C267.3,348.1,264.5,339.4,259.8,339.3z"/>
	<path class="st36" d="M263.3,359.3c-6.7-5.9-10.2,6.7-10.2,6.7l4.7,5.5C257.8,371.4,268.5,363.9,263.3,359.3z"/>
	<path class="st22" d="M172.6,311c-1.3,0.4-2.7,0.3-4,0.3c-0.8,0-0.8,1.2,0,1.2c1.4,0,2.9,0.1,4.3-0.3
		C173.6,311.9,173.3,310.8,172.6,311z"/>
	<path class="st22" d="M180,310.7c-1.3,0.3-2.6,0.3-4,0.3c-0.8,0-0.8,1.2,0,1.2c1.4,0,2.9,0,4.3-0.3
		C181,311.7,180.7,310.6,180,310.7z"/>
	<path class="st22" d="M187.6,309.9c-1.3,0.2-2.6,0.3-4,0.3c-0.8,0-0.8,1.2,0,1.2c1.4,0,2.9,0,4.3-0.3
		C188.7,310.8,188.4,309.7,187.6,309.9z"/>
	<path class="st22" d="M195.1,308.4c-1.2,0.6-2.5,0.8-3.8,0.8c-0.8,0-0.8,1.2,0,1.2c1.5,0,3-0.3,4.4-1
		C196.4,309.1,195.8,308.1,195.1,308.4z"/>
	<path class="st22" d="M201.3,306.7c-0.8,0.5-1.7,0.8-2.6,0.8c-0.8,0-0.8,1.2,0,1.2c1.2,0,2.2-0.3,3.2-1
		C202.5,307.3,201.9,306.3,201.3,306.7z"/>
	<path class="st22" d="M206.8,304.4c-0.6,0.6-1.4,1-2.2,1c-0.8,0-0.8,1.2,0,1.2c1.1,0,2.2-0.6,3.1-1.3
		C208.2,304.7,207.3,303.9,206.8,304.4z"/>
	<path class="st22" d="M142.8,369.3h-3.5c-0.8,0-0.8,1.2,0,1.2h3.5C143.5,370.4,143.5,369.3,142.8,369.3z"/>
	<path class="st22" d="M148.3,369.3H146c-0.8,0-0.8,1.2,0,1.2h2.4C149.1,370.4,149.1,369.3,148.3,369.3z"/>
	<path class="st22" d="M153.9,369.3h-2.4c-0.8,0-0.8,1.2,0,1.2h2.4C154.7,370.4,154.7,369.3,153.9,369.3z"/>
	<path class="st22" d="M158.9,369h-2.4c-0.8,0-0.8,1.2,0,1.2h2.4C159.7,370.2,159.7,369,158.9,369z"/>
	<path class="st22" d="M163.6,369h-2.4c-0.8,0-0.8,1.2,0,1.2h2.4C164.4,370.2,164.4,369,163.6,369z"/>
	<path class="st22" d="M213.4,338.4c0,0.9,0,1.7-0.3,2.5c-0.2,0.7,0.9,1,1.1,0.3c0.3-0.9,0.3-1.9,0.3-2.8
		C214.6,337.6,213.4,337.6,213.4,338.4z"/>
	<path class="st22" d="M212.2,343.5c-0.3,1-0.6,2-0.9,2.9c-0.2,0.7,0.9,1,1.1,0.3c0.3-1,0.6-2,0.9-2.9
		C213.6,343.1,212.5,342.8,212.2,343.5z"/>
	<path class="st22" d="M210.5,349.7c-0.3,1-0.8,1.9-1.2,2.9c-0.2,0.7,0.9,1,1.1,0.3c0.3-1,0.8-1.9,1.2-2.9
		C211.8,349.3,210.7,349,210.5,349.7z"/>
	<path class="st22" d="M208.5,355.4c-0.3,0.7-0.3,1.4-0.6,2.1c-0.3,0.7,0.7,1.3,1,0.6c0.3-0.7,0.3-1.4,0.6-2.1
		C209.8,355.3,208.8,354.7,208.5,355.4z"/>
	<path class="st37" d="M279.7,94c3.2,4.4,8.2,8.4,13.2,10.4c9.2,3.7,6.9-0.5,8.8-8l-11-5.5C287.2,91.4,282.3,91,279.7,94z"/>
	<path class="st22" d="M206.6,360.6c-0.3,1-0.8,1.9-1.4,2.8c-0.4,0.6,0.6,1.2,1,0.6c0.6-1,1.2-2,1.5-3.1
		C208,360.2,206.9,359.9,206.6,360.6z"/>
	<g>
		<path class="st38" d="M439.9,18.1C420.8-10,373.3-3.6,355,24.7c-10.1,15.6-11,37.9,1,52.8c16,19.8,50.3,23,69.7,8.1
			c15.6-11.9,25.6-35.5,19.9-54.9C444.3,25.9,442.3,21.7,439.9,18.1z"/>
		<path class="st39" d="M439.9,18.1C420.8-10,373.3-3.6,355,24.7c-6.3,9.7-9,21.9-7.3,33.4c1.3,2.7,2.9,5.3,4.8,7.7
			c16,19.8,50.3,23,69.7,8.1C436.4,63,446,42.5,443.3,24.3C442.3,22.1,441.2,20,439.9,18.1z"/>
		<path class="st18" d="M401.9,6.4c-4.6-4.1-16.3,0.5-12.7,7.2C393,20.6,409.7,13.3,401.9,6.4z"/>
	</g>
	<g>
		<path class="st40" d="M351.3,11.1c-3.9-3.1-7.9-5.4-12-7c-31.7-12.1-67,20.4-65.8,54c0.7,18.6,12.7,37.4,31.1,42.7
			c24.5,7,54.4-10,61.8-33.3C372.3,48.8,367,23.8,351.3,11.1z"/>
		<path class="st41" d="M339.3,4.1c-31.7-12.1-67,20.4-65.8,54c0.4,11.5,5.2,23.1,13.1,31.5c2.6,1.5,5.4,2.7,8.3,3.5
			c24.5,7,54.4-10,61.8-33.3c5.4-17,1.5-39.3-11.1-52.7C343.6,5.9,341.4,4.9,339.3,4.1z"/>
		<path class="st18" d="M301.5,16.3c-6.1-0.7-13.1,9.8-6.3,13.1C302.3,33,311.8,17.4,301.5,16.3z"/>
		<path class="st42" d="M355,24.7c-10.1,15.6-11,37.9,1,52.8c1,1.2,2,2.3,3.1,3.4c3.2-4.1,5.7-8.7,7.2-13.5
			c4.8-15.2,2.2-34.6-7.4-48.1C357.6,21.1,356.2,22.8,355,24.7z"/>
	</g>
	<g>
		<path class="st43" d="M439.9,87.9c-19.1-28.1-66.6-21.7-84.9,6.6c-10.1,15.6-11,37.9,1,52.8c16,19.8,50.3,23,69.7,8.1
			c15.6-11.9,25.6-35.5,19.9-54.9C444.3,95.8,442.3,91.6,439.9,87.9z"/>
		<path class="st44" d="M439.9,87.9c-19.1-28.1-66.6-21.7-84.9,6.6c-6.3,9.7-9,21.9-7.3,33.4c1.3,2.7,2.9,5.3,4.8,7.7
			c16,19.8,50.3,23,69.7,8.1c14.2-10.8,23.7-31.3,21.1-49.5C442.3,91.9,441.2,89.8,439.9,87.9z"/>
		<path class="st45" d="M363.5,84.6c17.6,13.2,45.5,13.8,62.3,1c2.3-1.8,4.5-3.8,6.5-6C413.5,64.3,382.3,67.8,363.5,84.6z"/>
		<path class="st18" d="M401.9,76.3c-4.6-4.1-16.3,0.5-12.7,7.2C393,90.4,409.7,83.1,401.9,76.3z"/>
	</g>
</g>
</svg>
