<?xml version="1.0" encoding="utf-8"?>
<!-- Generator: Adobe Illustrator 21.1.0, SVG Export Plug-In . SVG Version: 6.00 Build 0)  -->
<svg version="1.1" id="Artboard_1" xmlns="http://www.w3.org/2000/svg" xmlns:xlink="http://www.w3.org/1999/xlink" x="0px" y="0px"
	 viewBox="0 0 816.4 180.9" style="enable-background:new 0 0 816.4 180.9;" xml:space="preserve">
<style type="text/css">
	.st0{opacity:0.41;}
	.st1{fill:#FFFFFF;}
	.st2{fill:#FFCB05;}
	.st3{fill:#FFB206;}
	.st4{fill:#FFE069;}
	.st5{fill:#FFAD33;}
	.st6{fill:#20558B;}
	.st7{fill:#4D77A2;}
	.st8{fill:#7999B9;}
	.st9{fill:#FFF2CD;}
	.st10{fill:#FFFCF5;}
	.st11{fill:#FFF7E1;}
	.st12{opacity:0.23;fill:#20558B;enable-background:new    ;}
	.st13{fill:none;stroke:#7999B9;stroke-width:0.9853;stroke-linecap:round;stroke-linejoin:round;stroke-miterlimit:10;}
	.st14{fill:none;stroke:#A6BBD1;stroke-width:0.9853;stroke-linecap:round;stroke-linejoin:round;stroke-miterlimit:10;}
	.st15{fill:none;stroke:#20558B;stroke-width:0.9853;stroke-linecap:round;stroke-linejoin:round;stroke-miterlimit:10;}
	.st16{fill:none;stroke:#FFE069;stroke-width:0.9853;stroke-linecap:round;stroke-linejoin:round;stroke-miterlimit:10;}
	.st17{fill:none;stroke:#4D77A2;stroke-width:0.9853;stroke-linecap:round;stroke-linejoin:round;stroke-miterlimit:10;}
	.st18{opacity:0.35;}
	.st19{fill:#CCDDE4;}
	.st20{fill:#B9CFD6;}
	.st21{fill:#E0EBEF;}
	.st22{fill:#FF9900;}
	.st23{fill:#FFC266;}
	.st24{opacity:0.24;fill:#FF9900;enable-background:new    ;}
	.st25{fill:none;stroke:#FF9900;stroke-width:0.6981;stroke-linecap:round;stroke-linejoin:round;stroke-miterlimit:10;}
	.st26{fill:none;stroke:#FFE069;stroke-width:0.6981;stroke-linecap:round;stroke-linejoin:round;stroke-miterlimit:10;}
	.st27{fill:none;stroke:#E88B10;stroke-width:0.6981;stroke-linecap:round;stroke-linejoin:round;stroke-miterlimit:10;}
	.st28{opacity:0.51;}
	.st29{fill:#FFD537;}
	.st30{opacity:0.24;fill:#FFCB05;enable-background:new    ;}
	.st31{fill:none;stroke:#EFB90C;stroke-width:1.0812;stroke-linecap:round;stroke-linejoin:round;stroke-miterlimit:10;}
	.st32{fill:none;stroke:#FFCB05;stroke-width:1.0812;stroke-linecap:round;stroke-linejoin:round;stroke-miterlimit:10;}
	.st33{fill:none;stroke:#FFE069;stroke-width:1.0812;stroke-linecap:round;stroke-linejoin:round;stroke-miterlimit:10;}
	
		.st34{opacity:0.49;fill:none;stroke:#FFCB05;stroke-width:1.0812;stroke-linecap:round;stroke-linejoin:round;stroke-miterlimit:10;enable-background:new    ;}
</style>
<g>
	<g>
		<g class="st0">
			<g>
				<g>
					<g>
						<path class="st1" d="M79.2,127c0,0-2.2,0.8-5.4,2c-3.2,1.2-7.6,2.7-11.9,4.2c-2.2,0.7-4.3,1.6-6.4,2.2c-2,0.6-4,1.1-5.7,1.4
							c-3.4,0.7-5.8,0.8-5.8,0.8l-0.1-0.2c0,0,2-1.2,5.2-2.5c1.6-0.7,3.5-1.4,5.6-2c2.1-0.6,4.4-1.1,6.6-1.7
							c4.5-1.1,8.9-2.3,12.3-3.1c3.4-0.8,5.6-1.3,5.6-1.3L79.2,127z"/>
					</g>
					<g>
						<path class="st1" d="M82.6,140.9c0,0-2.2,0.8-5.4,2s-7.6,2.7-11.9,4.2c-2.2,0.7-4.3,1.6-6.4,2.2c-2,0.6-4,1.1-5.7,1.4
							c-3.4,0.7-5.8,0.8-5.8,0.8l-0.1-0.2c0,0,2-1.2,5.2-2.5c1.6-0.7,3.5-1.4,5.6-2c2.1-0.6,4.4-1.1,6.6-1.7
							c4.5-1.1,8.9-2.3,12.3-3.1c3.4-0.8,5.6-1.3,5.6-1.3L82.6,140.9z"/>
					</g>
					<g>
						<path class="st1" d="M75.2,135.5c0,0-2.2,0.8-5.4,2s-7.6,2.7-11.9,4.2c-2.2,0.7-4.3,1.6-6.4,2.2c-2,0.6-4,1.1-5.7,1.4
							c-3.4,0.7-5.8,0.8-5.8,0.8l-0.1-0.2c0,0,2-1.2,5.2-2.5c1.6-0.7,3.5-1.4,5.6-2c2.1-0.6,4.4-1.1,6.6-1.7
							c4.5-1.1,8.9-2.3,12.3-3.1c3.4-0.8,5.6-1.3,5.6-1.3L75.2,135.5z"/>
					</g>
				</g>
				<g>
					<g>
						<g>
							<g>
								<g>
									<g>
										<path class="st2" d="M100.9,101.6c0,0-27.5-8.1-30.3-8.8s-0.6-3-0.6-3s26.1-9,37.6-6.8s11.9,9.7,11.9,9.7L100.9,101.6z"/>
										<path class="st3" d="M95,99.9c3.4,1,5.8,1.7,5.8,1.7l18.6-8.9c0,0,0.1-1.9-1.7-4.2C104.4,93.6,95.1,99.8,95,99.9z"/>
									</g>
									<path class="st4" d="M112.8,88.8c-1.2,0.7-2.8-0.6-2.8-0.6c-5.5-3.4-18.8-0.5-22.2,0.5c-4.6,1.3-5.2,1.3-5.4,0.4
										c-0.1-0.8,0.9-1.1,0.9-1.1c23.1-7.5,29.6-0.7,29.6-0.7C114,88.2,112.8,88.8,112.8,88.8z"/>
								</g>
								<g>
									<g>
										<path class="st2" d="M114.9,147.9c0,0-18.5,22-20.4,24.1c-1.9,2.1,1.2,2.8,1.2,2.8s26.7-6.9,35.1-15.1
											c8.3-8.1,4.5-14.6,4.5-14.6L114.9,147.9z"/>
										<path class="st3" d="M110.9,152.6c2.3-2.7,3.9-4.6,3.9-4.6l20.4-2.9c0,0,1.1,1.6,0.9,4.5
											C122.2,152.6,111,152.6,110.9,152.6z"/>
									</g>
									<path class="st4" d="M131.9,152c-1.3,0.1-2,2-2,2c-2.7,5.9-15.4,10.7-18.8,11.8c-4.6,1.4-5.1,1.7-4.7,2.6
										c0.3,0.8,1.3,0.5,1.3,0.5c23.4-6.4,25.1-15.7,25.1-15.7C133.1,151.9,131.9,152,131.9,152z"/>
								</g>
							</g>
							<g>
								<path class="st5" d="M75.5,134.4c0.7,2.4,1.6,4.7,2.9,6.7c4.2,6.7,12.7,10.5,34,8.2c6.2-0.7,13.5-1.9,22.1-3.7
									c14.6-3.1,33.1-8,56.5-15c28-8.4,59.9-21.9,83-35.1c9.5-5.4,17.4-10.7,23-15.6c5.3-4.7,8.5-8.9,8.9-12.5
									c0.1-0.8,0-1.6-0.2-2.3c-0.3-1-0.9-1.9-1.7-2.7c-2.5-2.4-7.3-4-13.8-4.9c-7.4-1-17-1-27.8-0.3c-26.5,1.8-60.5,8.1-88.4,16.5
									c-22.9,6.9-41,13.2-55.1,18.9c-8.1,3.3-14.9,6.5-20.5,9.5c-18.3,9.9-24.3,18.6-23.6,27.7C74.9,131.4,75.2,132.9,75.5,134.4z
									"/>
								<g>
									<g>
										<g>
											<path class="st6" d="M292.5,74c1.1,2,2.5,4,4.5,6c5.3-4.7,8.5-8.9,8.9-12.5C304,68.5,299.6,70.7,292.5,74z"/>
											<path class="st7" d="M292.6,73.9c7-3.2,11.5-5.4,13.4-6.4c0.1-0.8,0-1.6-0.2-2.3c-0.3-1-0.9-1.9-1.7-2.7
												c-1.9,0.3-6.9,1.2-14.3,2.6C290.1,67.8,290.8,70.8,292.6,73.9z"/>
											<path class="st8" d="M289.7,65.1c7.5-1.4,12.5-2.3,14.3-2.6c-2.5-2.4-7.3-4-13.8-4.9C289.8,59.3,289.5,62,289.7,65.1z"/>
										</g>
										<g>
											<path class="st9" d="M274,95.5c9.5-5.4,17.4-10.7,23-15.6c-1.9-2-3.4-4-4.5-6c-6.2,2.8-14.4,6.4-24.7,10.5
												c0.1,0,0.1,0.1,0.2,0.1c0,0,0,0.2,0,0.4C267.8,86.5,267.8,92.3,274,95.5z"/>
											<path class="st10" d="M289.7,65.1c-0.4-3.2,0-5.8,0.4-7.5c-7.4-1-17-1-27.8-0.3c-1.5,2.1-4,7.2,0.9,12.2
												c0.1,0.1,0.2,0.2,0.3,0.3c0,0,0,0-0.1,0.2l0,0c0,0.1-0.1,0.1-0.1,0.2v0.1c0,0.1-0.1,0.1-0.1,0.2c0.1,0,0.1,0,0,0
												C273.9,68.2,282.9,66.4,289.7,65.1z"/>
											<path class="st11" d="M267.8,84.5L267.8,84.5c10.3-4.2,18.5-7.8,24.9-10.2c-1.7-3.1-2.5-6.1-2.8-8.8
												c-6.9,1.3-15.9,3.1-26.5,5.4c0,0.1,0,0.1,0,0.1c-0.1,0-0.1,0.1-0.1,0.1c-0.1,0-0.1,0.1-0.1,0.1c-0.1,0-0.1,0.1-0.1,0.1
												c-0.1,0.1-0.1,0.1-0.1,0.2c-0.1,0-0.1,0.1-0.1,0.1c0,0.1-0.1,0.1-0.1,0.2v0.1c0,0-0.1,0.1-0.1,0.2v0.1
												c0,0.1-0.1,0.2-0.1,0.3l0,0c-0.2,0.6-0.4,1.3-0.5,2.1l0,0c0,0.2,0,0.3,0,0.5l0,0c0,0.2,0,0.3,0,0.5c0,0.1,0,0.1,0,0.1
												c0,0.2,0,0.3,0,0.5l0,0c0.1,1.4,0.4,2.9,1.3,4.3l0,0c0.1,0.2,0.2,0.3,0.3,0.5l0,0c0.1,0.2,0.3,0.3,0.4,0.5l0,0
												c0.1,0.2,0.2,0.3,0.4,0.5l0,0C265.3,82.9,266.4,83.7,267.8,84.5L267.8,84.5z"/>
										</g>
										<g>
											<path class="st6" d="M78.5,141.1c4.2,6.7,12.7,10.5,34,8.2c6.2-0.7,13.5-1.9,22.1-3.7c14.6-3.1,33.1-8,56.5-15
												c28-8.4,59.9-21.9,83-35.1c-6.4-3.2-6.3-9.1-6.2-10.6l-0.1-0.5c-30,12.1-77.5,29-143.2,45.7c-6.9,1.8-14,3.5-21.3,5.3
												C95.3,137.3,87,139.3,78.5,141.1z"/>
											<path class="st8" d="M74.8,129.7c7.8-3.6,15.8-7.1,23.9-10.4c6.8-2.7,13.7-5.4,20.6-8h0.1
												C172.1,91.7,227,78.2,263.3,70.4l0,0c0.1,0,0.1-0.1,0.1-0.1c0-0.1,0-0.1,0-0.1c0.1-0.1,0.1-0.2,0.1-0.2l0,0
												c0.1-0.1,0.1-0.2,0.1-0.2c-0.1-0.1-0.2-0.2-0.3-0.3c-4.9-5-2.4-10.1-0.9-12.2c-26.5,1.8-60.5,8.1-88.4,16.5
												c-22.9,6.9-41,13.2-55.1,18.9c-8.1,3.3-14.9,6.5-20.5,9.5C80.1,112.1,74.1,120.8,74.8,129.7z"/>
											<path class="st7" d="M75.5,134.1c0.7,2.4,1.6,4.7,2.9,6.7c8.5-1.9,16.8-3.8,24.8-5.7c7.3-1.8,14.4-3.5,21.3-5.3
												c65.7-16.7,113.2-33.6,143.2-45.7l0,0c-1.4-0.8-2.5-1.6-3.3-2.5l0,0c-0.1-0.2-0.3-0.3-0.4-0.5l0,0
												c-0.2-0.2-0.3-0.3-0.4-0.5l0,0c-0.1-0.2-0.2-0.3-0.3-0.5l0,0c-0.9-1.4-1.3-2.9-1.3-4.3l0,0c0-0.2,0-0.3,0-0.5
												c0-0.1,0-0.1,0-0.1c0-0.2,0-0.3,0-0.5l0,0c0-0.2,0-0.4,0-0.5l0,0c0.1-0.7,0.3-1.5,0.5-2.1l0,0c0-0.1,0.1-0.2,0.1-0.3
												v-0.1c0,0,0.1-0.1,0.1-0.2v-0.1c0-0.1,0.1-0.1,0.1-0.2c0.1,0,0.1-0.1,0.1-0.1C263,71,263,71,263,70.9
												c0.1,0,0.1-0.1,0.1-0.1c0.1,0,0.1-0.1,0.1-0.1c0.1,0,0.1-0.1,0.1-0.1c0-0.1,0-0.1,0-0.1c-36.3,7.8-91.2,21.4-143.9,40.9
												h-0.1c-6.9,2.5-13.8,5.2-20.6,8c-8.1,3.3-16.1,6.8-23.9,10.4C74.9,131.4,75.2,132.9,75.5,134.1z"/>
										</g>
									</g>
									<path class="st12" d="M189.3,122.1C297.2,89.6,306,67.4,306,67.4c-0.4,3.6-3.6,7.9-8.9,12.5c-5.6,4.9-13.6,10.2-23,15.6
										c-23.1,13.2-55,26.7-83,35.1c-23.3,7.1-41.8,11.9-56.5,15c-8.6,1.8-15.9,3-22.1,3.7c-17.4,1.9-26.2-0.3-31.2-4.8
										C81.3,144.5,91.6,151.5,189.3,122.1z"/>
								</g>
							</g>
						</g>
						<g>
							<g>
								<path class="st2" d="M76.5,132.4l38.4-13.9c2.1-0.6,4.7,1.7,5.3,3.6l0,0c0.6,1.9-0.2,5.3-2.3,6l-39.5,10.4
									c-2.1,0.6-4.1,0.1-4.7-1.8l0,0C73.1,134.8,74.4,133.1,76.5,132.4z"/>
								<path class="st3" d="M74.7,138.1c1,0.7,2.3,0.7,3.7,0.3l39.5-10.4c1.5-0.5,2.4-2.4,2.5-4.1
									C103.8,130.3,74.8,138.2,74.7,138.1z"/>
							</g>
							<path class="st4" d="M75.1,134.7L75.1,134.7c-0.2-0.5,0.3-0.7,0.9-0.9l38.4-13.5c2.1-0.7,2.2,0.3,2.4,0.8l0,0
								c0.1,0.5-0.3,1.1-0.9,1.3l-39.5,12.5C75.8,135.1,75.3,135.2,75.1,134.7z"/>
						</g>
					</g>
					<g>
						<g>
							<path class="st13" d="M161.3,106.6c-0.6-0.8-1-1.7-1-2.7"/>
							<path class="st13" d="M159.2,107.4c-0.3-0.7-0.5-1.3-0.8-2"/>
						</g>
						<g>
							<path class="st14" d="M212.1,76.5c-0.1-1,0-1.9,0.5-2.8"/>
							<path class="st14" d="M209.9,76.1c0.1-0.7,0.2-1.4,0.3-2.1"/>
						</g>
						<path class="st15" d="M225,95.3c-0.2-1.2-0.2-1.5-0.8-2.6"/>
						<g>
							<path class="st16" d="M286.1,81.5c0-0.6-0.2-0.7-0.2-1.4"/>
							<path class="st16" d="M284.7,82.1c-0.1-0.9-0.3-0.4-0.4-1.3"/>
						</g>
						<g>
							<path class="st17" d="M111.3,140.4c0-0.6-0.2-0.7-0.2-1.4"/>
							<path class="st17" d="M109.9,141c-0.1-0.9-0.3-0.4-0.4-1.3"/>
						</g>
						<path class="st17" d="M137,130.1c-0.6-0.7-0.9-0.9-1.2-1.8"/>
					</g>
				</g>
			</g>
			<g>
				<g>
					<path class="st1" d="M97,92c0,0-1.7,0.6-4.3,1.5c-2.6,1-6.1,2.1-9.5,3.3c-1.8,0.6-3.5,1.3-5.1,1.8c-1.6,0.4-3.2,0.8-4.5,1.1
						c-2.6,0.6-4.5,0.7-4.5,0.7l-0.1-0.2c0,0,1.6-0.9,4.2-1.9c1.3-0.6,2.8-1.1,4.4-1.6c1.7-0.4,3.4-0.8,5.2-1.3
						c3.5-0.9,7-1.9,9.7-2.5c2.6-0.7,4.4-1.1,4.4-1.1L97,92z"/>
				</g>
				<g>
					<path class="st1" d="M106.2,162.6c0,0-1.4,0.5-3.5,1.3c-2.1,0.7-4.9,1.7-7.7,2.7c-1.4,0.5-2.8,1.1-4.1,1.5s-2.6,0.7-3.7,0.9
						c-2.2,0.5-3.7,0.5-3.7,0.5l-0.1-0.2c0,0,1.3-0.8,3.4-1.7c1-0.4,2.3-0.9,3.6-1.3c1.3-0.4,2.8-0.7,4.2-1.1c2.8-0.7,5.7-1.5,7.9-2
						c2.2-0.6,3.6-0.9,3.6-0.9L106.2,162.6z"/>
				</g>
			</g>
		</g>
		<g class="st18">
			<g>
				<g>
					<g>
						<path class="st1" d="M27.9,49.2c0,0-1.5,0.6-3.8,1.4c-2.3,0.8-5.4,1.8-8.5,2.9c-1.5,0.6-3,1.1-4.5,1.6s-2.9,0.8-4.1,1
							c-2.4,0.5-4.1,0.6-4.1,0.6l-0.1-0.2c0,0,1.4-0.9,3.7-1.8c1.1-0.5,2.4-1,3.9-1.4c1.5-0.5,3.1-0.8,4.7-1.2
							c3.2-0.8,6.3-1.6,8.7-2.2c2.4-0.5,4-0.9,4-0.9L27.9,49.2z"/>
					</g>
					<g>
						<path class="st1" d="M30.3,59c0,0-1.5,0.6-3.8,1.4c-2.3,0.8-5.4,1.8-8.5,2.9c-1.5,0.6-3,1.1-4.5,1.6s-2.9,0.8-4.1,1
							c-2.4,0.5-4.1,0.6-4.1,0.6l-0.1-0.2c0,0,1.4-0.9,3.7-1.8c1.1-0.5,2.4-1,3.9-1.4c1.5-0.5,3.1-0.8,4.7-1.2
							c3.2-0.8,6.3-1.6,8.7-2.2c2.4-0.5,4-0.9,4-0.9L30.3,59z"/>
					</g>
					<g>
						<path class="st1" d="M25.1,55.2c0,0-1.5,0.6-3.8,1.4c-2.3,0.8-5.4,1.8-8.5,2.9c-1.5,0.6-3,1.1-4.5,1.6s-2.9,0.8-4.1,1
							c-2.4,0.5-4.1,0.6-4.1,0.6L0,62.5c0,0,1.4-0.9,3.7-1.8c1.1-0.5,2.4-1,3.9-1.4c1.5-0.5,3.1-0.8,4.7-1.2
							c3.2-0.8,6.3-1.6,8.7-2.2c2.4-0.5,4-0.9,4-0.9L25.1,55.2z"/>
					</g>
				</g>
				<g>
					<g>
						<g>
							<g>
								<g>
									<g>
										<path class="st19" d="M43.3,31.1c0,0-19.5-5.8-21.5-6.3c-1.9-0.5-0.4-2.1-0.4-2.1S40,16.4,48.1,18
											c8.1,1.6,8.4,6.9,8.4,6.9L43.3,31.1z"/>
										<path class="st20" d="M39.1,29.9c2.4,0.7,4.1,1.2,4.1,1.2l13.2-6.2c0,0,0-1.4-1.2-3C45.8,25.5,39.1,29.9,39.1,29.9z"/>
									</g>
									<path class="st21" d="M51.8,22.1c-0.8,0.5-2-0.4-2-0.4c-3.9-2.4-13.3-0.4-15.7,0.3c-3.3,0.9-3.7,1-3.8,0.3
										c-0.1-0.6,0.6-0.8,0.6-0.8c16.3-5.2,20.9-0.4,20.9-0.4C52.6,21.7,51.8,22.1,51.8,22.1z"/>
								</g>
								<g>
									<g>
										<path class="st19" d="M53.1,64.1c0,0-13.2,15.5-14.6,17s0.8,2,0.8,2s19-4.8,24.9-10.6c6-5.8,3.3-10.4,3.3-10.4L53.1,64.1z
											"/>
										<path class="st20" d="M50.3,67.4c1.7-2,2.8-3.3,2.8-3.3l14.4-2c0,0,0.8,1.2,0.6,3.2C58.2,67.4,50.2,67.4,50.3,67.4z"/>
									</g>
									<path class="st21" d="M65,67.1c-0.9,0-1.4,1.4-1.4,1.4c-2,4.2-11,7.6-13.4,8.3c-3.2,1-3.5,1.2-3.3,1.8c0.3,0.5,1,0.3,1,0.3
										c16.6-4.4,17.8-11,17.8-11C65.9,66.9,65,67,65,67.1z"/>
								</g>
							</g>
							<g>
								<path class="st5" d="M25.3,54.2c0.5,1.8,1.1,3.4,2,4.8c3,4.7,9,7.5,24.1,5.9c4.3-0.4,9.5-1.3,15.6-2.5
									c10.4-2.1,23.5-5.5,40.1-10.4c19.8-5.8,42.5-15.3,58.9-24.6c6.7-3.8,12.3-7.5,16.3-11c3.8-3.3,6-6.3,6.3-8.8
									c0.1-0.5,0.1-1.1-0.1-1.6c-0.2-0.7-0.6-1.3-1.2-1.9c-1.8-1.7-5.2-2.9-9.8-3.5c-5.2-0.7-12-0.8-19.7-0.3
									C139,1.5,114.9,5.8,95.1,11.7C78.8,16.5,66,20.9,56,24.9c-5.8,2.3-10.6,4.6-14.6,6.7c-13,6.9-17.3,13.1-16.8,19.5
									C24.7,52.2,24.9,53.3,25.3,54.2z"/>
								<g>
									<g>
										<g>
											<path class="st22" d="M179.1,12.2c0.8,1.4,1.8,2.9,3.2,4.3c3.8-3.3,6-6.3,6.3-8.8C187.3,8.4,184.1,9.9,179.1,12.2z"/>
											<path class="st5" d="M179.1,12.1c5-2.2,8.1-3.8,9.5-4.5c0.1-0.5,0.1-1.1-0.1-1.6c-0.2-0.7-0.6-1.3-1.2-1.9
												c-1.3,0.2-4.8,0.8-10.1,1.8C177.4,7.8,177.9,10,179.1,12.1z"/>
											<path class="st23" d="M177.2,5.9c5.3-1,8.8-1.6,10.1-1.8c-1.8-1.7-5.2-2.9-9.8-3.5C177.3,1.8,177,3.7,177.2,5.9z"/>
										</g>
										<g>
											<path class="st9" d="M166,27.4c6.7-3.8,12.3-7.5,16.3-11c-1.4-1.4-2.4-2.9-3.2-4.3c-4.4,2-10.2,4.5-17.5,7.4
												c0,0.1,0.1,0.1,0.1,0.1s0,0.1,0,0.3C161.6,21,161.5,25.1,166,27.4z"/>
											<path class="st10" d="M177.3,5.9c-0.3-2.2,0-4.1,0.3-5.3c-5.2-0.7-12-0.8-19.7-0.3c-1,1.5-2.8,5.1,0.6,8.7
												c0.1,0.1,0.1,0.1,0.2,0.2c0,0,0,0.1-0.1,0.2l0,0c-0.1,0-0.1,0.1-0.1,0.1c0,0.1,0,0.1,0,0.1c-0.1,0-0.1,0-0.1,0.1
												c0-0.1,0-0.1,0,0C165.9,8.1,172.3,6.8,177.3,5.9z"/>
											<path class="st11" d="M161.6,19.5C161.6,19.6,161.6,19.6,161.6,19.5c7.3-2.8,13.1-5.3,17.4-7.1c-1.2-2.3-1.7-4.4-1.9-6.3
												c-4.9,0.9-11.3,2.1-18.8,3.7l0,0v0.1V10v0.1c-0.1,0-0.1,0.1-0.1,0.1v0.1c-0.1,0-0.1,0-0.1,0.1v0.1
												c-0.1,0.1-0.1,0.1-0.1,0.2s0,0.1,0,0.1c-0.1,0.1-0.1,0.1-0.1,0.2l0,0c-0.1,0.4-0.2,0.9-0.3,1.5l0,0c0,0.1,0,0.2,0,0.3
												l0,0c0,0.1,0,0.2,0,0.3l0,0c0,0.1,0,0.2,0,0.3l0,0c0,1,0.3,2.1,0.9,3.1l0,0c0,0.2,0.1,0.3,0.2,0.4l0,0
												c0.1,0.2,0.2,0.3,0.3,0.4l0,0c0.1,0.2,0.2,0.3,0.3,0.4l0,0C159.9,18.4,160.6,19,161.6,19.5L161.6,19.5z"/>
										</g>
										<g>
											<path class="st22" d="M27.3,59.1c3,4.7,9,7.5,24.1,5.9c4.3-0.4,9.5-1.3,15.6-2.5c10.4-2.1,23.5-5.5,40.1-10.4
												c19.8-5.8,42.5-15.3,58.9-24.6c-4.5-2.3-4.4-6.5-4.3-7.6l-0.1-0.3c-21.3,8.4-55,20.2-101.7,31.9C55,52.8,50,54,44.8,55.2
												C39.2,56.5,33.3,57.8,27.3,59.1z"/>
											<path class="st23" d="M24.6,51.1c5.6-2.5,11.2-5,17-7.3c4.9-1.9,9.8-3.8,14.7-5.6c0.1,0,0.1,0,0.1,0
												c37.4-13.7,76.4-23.1,102.1-28.5l0,0V9.6c0-0.1,0-0.1,0-0.1c0.1,0,0.1-0.1,0.1-0.1l0,0c0.1-0.1,0.1-0.2,0.1-0.2
												c-0.1-0.1-0.1-0.1-0.2-0.2c-3.4-3.6-1.7-7.2-0.6-8.7C139.1,1.5,115,5.8,95.2,11.7c-16.3,4.8-29.1,9.2-39.1,13.2
												c-5.8,2.3-10.6,4.6-14.6,6.7C28.5,38.5,24.2,44.7,24.6,51.1z"/>
											<path class="st5" d="M25.4,54.2c0.5,1.8,1.1,3.4,2,4.8c6.1-1.3,11.9-2.7,17.6-4c5.2-1.3,10.2-2.5,15.1-3.7
												c46.6-11.6,80.3-23.4,101.6-31.9l0,0c-1-0.6-1.7-1.2-2.3-1.8l0,0c-0.1-0.2-0.2-0.3-0.3-0.4l0,0c-0.1-0.2-0.2-0.3-0.3-0.4
												l0,0c0-0.2-0.1-0.3-0.2-0.4l0,0c-0.6-1.1-0.9-2.1-0.9-3.1l0,0c0-0.1,0-0.2,0-0.3l0,0c0-0.1,0-0.2,0-0.3l0,0
												c0-0.1,0-0.2,0-0.3l0,0c0-0.5,0.2-1.1,0.3-1.5l0,0c0.1-0.1,0.1-0.1,0.1-0.2s0-0.1,0-0.1c0.1-0.1,0.1-0.1,0.1-0.2v-0.1
												c0.1,0,0.1-0.1,0.1-0.1v-0.1c0.1,0,0.1-0.1,0.1-0.1V9.9V9.8V9.7l0,0c-25.7,5.4-64.7,14.8-102,28.5c-0.1,0-0.1,0-0.1,0
												c-5,1.8-9.9,3.6-14.7,5.6c-5.8,2.3-11.5,4.8-17,7.3C24.7,52.2,24.9,53.3,25.4,54.2z"/>
										</g>
									</g>
									<path class="st24" d="M105.6,46.1c76.6-22.7,82.9-38.4,82.9-38.4c-0.2,2.5-2.5,5.5-6.3,8.8c-4,3.5-9.6,7.2-16.3,11
										c-16.4,9.2-39.1,18.7-58.9,24.6C90.4,57,77.3,60.4,66.9,62.5c-6,1.2-11.2,2-15.6,2.5c-12.3,1.3-18.6-0.3-22.1-3.5
										C29.2,61.5,36.5,66.5,105.6,46.1z"/>
								</g>
							</g>
						</g>
						<g>
							<g>
								<path class="st19" d="M25.9,53l27.3-9.8c1.5-0.4,3.4,1.2,3.8,2.6l0,0c0.4,1.3-0.2,3.7-1.7,4.2l-28,7.2
									c-1.5,0.4-3,0.1-3.4-1.3l0,0C23.4,54.6,24.4,53.4,25.9,53z"/>
								<path class="st20" d="M24.6,57c0.7,0.4,1.6,0.5,2.6,0.2l28-7.2c1.1-0.3,1.7-1.7,1.8-2.9C45.2,51.5,24.6,57,24.6,57z"/>
							</g>
							<path class="st21" d="M24.8,54.5L24.8,54.5c-0.1-0.3,0.2-0.5,0.7-0.6l27.2-9.5c1.5-0.4,1.6,0.3,1.7,0.6l0,0
								c0.1,0.4-0.1,0.8-0.6,0.9l-28,8.8C25.3,54.9,25,54.9,24.8,54.5z"/>
						</g>
					</g>
					<g>
						<g>
							<path class="st25" d="M73.6,44.4c-0.4-0.5-0.7-1.2-0.7-1.9"/>
							<path class="st25" d="M72.1,45c-0.2-0.5-0.4-0.9-0.6-1.4"/>
						</g>
						<g>
							<path class="st25" d="M102.1,14.6c0.2-0.7,0.6-1.3,1.1-1.7"/>
							<path class="st25" d="M100.7,13.7c0.3-0.4,0.5-0.9,0.8-1.3"/>
						</g>
						<path class="st25" d="M131.6,21.7c-0.2-0.8-0.2-1-0.6-1.8"/>
						<g>
							<path class="st26" d="M167.1,20c0-0.5-0.1-0.5-0.1-1"/>
							<path class="st26" d="M166.2,20.4c-0.1-0.6-0.2-0.3-0.3-0.9"/>
						</g>
						<g>
							<path class="st27" d="M50.5,58.7c0-0.5-0.1-0.5-0.1-1"/>
							<path class="st27" d="M49.5,59.1c-0.1-0.6-0.2-0.3-0.3-0.9"/>
						</g>
						<path class="st27" d="M83.2,50.9c-0.5-0.5-0.7-0.7-0.9-1.3"/>
					</g>
				</g>
			</g>
			<g>
				<g>
					<path class="st1" d="M40.5,24.2c0,0-4.9,1.8-9.8,3.4c-1.2,0.4-2.4,0.8-3.6,1.2c-1.1,0.3-2.2,0.6-3.2,0.8
						c-1.9,0.4-3.2,0.5-3.2,0.5V30c0,0,1.2-0.6,3-1.3c0.9-0.4,1.9-0.8,3.1-1.1s2.4-0.6,3.7-0.9C35.5,25.4,40.5,24.2,40.5,24.2
						L40.5,24.2z"/>
				</g>
				<g>
					<path class="st1" d="M46.9,74.4c0,0-4,1.4-8,2.8c-1,0.3-2,0.7-2.9,1c-0.9,0.3-1.8,0.5-2.6,0.6c-1.6,0.3-2.7,0.3-2.7,0.3V79
						c0,0,0.9-0.6,2.4-1.2c0.7-0.3,1.6-0.6,2.5-0.9c0.9-0.2,2-0.4,3-0.7c4.1-1.1,8.2-2,8.2-2L46.9,74.4z"/>
				</g>
			</g>
		</g>
	</g>
	<g class="st28">
		<g>
			<g>
				<g>
					<path class="st1" d="M565.4,128c0,0-2.4,0.9-6,2c-3.6,1.2-8.5,2.6-13.3,4.1c-1.2,0.3-2.4,0.7-3.6,1.1c-1.2,0.4-2.4,0.8-3.5,1.1
						c-2.2,0.6-4.4,1-6.3,1.3c-3.8,0.7-6.4,0.7-6.4,0.7l-0.1-0.3c0,0,2.3-1.3,5.9-2.6c1.8-0.7,3.9-1.4,6.2-2
						c1.2-0.3,2.4-0.6,3.6-0.8c1.2-0.3,2.5-0.5,3.7-0.8c5-1,9.9-2.2,13.6-2.9c3.7-0.8,6.2-1.3,6.2-1.3L565.4,128z"/>
				</g>
				<g>
					<path class="st1" d="M568.5,143.3c0,0-2.4,0.9-6,2c-3.6,1.2-8.5,2.6-13.3,4.1c-1.2,0.3-2.4,0.7-3.6,1.1
						c-1.2,0.4-2.4,0.8-3.5,1.1c-2.2,0.6-4.4,1-6.3,1.3c-3.8,0.7-6.4,0.7-6.4,0.7l-0.1-0.3c0,0,2.3-1.3,5.9-2.6
						c1.8-0.7,3.9-1.4,6.2-2c1.2-0.3,2.4-0.6,3.6-0.8c1.2-0.3,2.5-0.5,3.7-0.8c5-1,9.9-2.2,13.6-2.9c3.7-0.8,6.2-1.3,6.2-1.3V143.3z
						"/>
				</g>
				<g>
					<path class="st1" d="M560.7,137.1c0,0-2.4,0.9-6,2c-3.6,1.2-8.5,2.6-13.3,4.1c-1.2,0.3-2.4,0.7-3.6,1.1
						c-1.2,0.4-2.4,0.8-3.5,1.1c-2.2,0.6-4.4,1-6.3,1.3c-3.8,0.7-6.4,0.7-6.4,0.7l-0.1-0.3c0,0,2.3-1.3,5.9-2.6
						c1.8-0.7,3.9-1.4,6.2-2c1.2-0.3,2.4-0.6,3.6-0.8c1.2-0.3,2.5-0.5,3.7-0.8c5-1,9.9-2.2,13.6-2.9c3.7-0.8,6.2-1.3,6.2-1.3
						L560.7,137.1z"/>
				</g>
			</g>
			<g>
				<g>
					<g>
						<g>
							<g>
								<g>
									<path class="st19" d="M590.2,100.6c0,0-29.9-9.9-32.9-10.8s-0.5-3.3-0.5-3.3s29-8.8,41.5-5.9s12.6,11.1,12.6,11.1
										L590.2,100.6z"/>
									<path class="st20" d="M583.8,98.6c3.7,1.2,6.3,2.1,6.3,2.1l20.7-9c0,0,0.1-2.1-1.7-4.7C594.3,92.1,583.8,98.6,583.8,98.6z"
										/>
								</g>
								<path class="st21" d="M603.7,87.2c-1.3,0.7-3-0.7-3-0.7c-6-4-20.6-1.2-24.4-0.3c-5.1,1.2-5.7,1.2-5.9,0.2
									c-0.1-0.9,1-1.2,1-1.2c25.6-7.4,32.5,0.3,32.5,0.3C605,86.6,603.7,87.2,603.7,87.2z"/>
							</g>
							<g>
								<g>
									<path class="st19" d="M603.7,152.2c0,0-21.2,23.3-23.4,25.6c-2.2,2.2,1.1,3.1,1.1,3.1s29.6-6.6,39.1-15.2
										c9.5-8.7,5.6-15.9,5.6-15.9L603.7,152.2z"/>
									<path class="st20" d="M599.2,157.1c2.7-2.9,4.5-4.9,4.5-4.9l22.4-2.3c0,0,1.1,1.8,0.8,4.9
										C611.5,157.6,599.2,157.1,599.2,157.1z"/>
								</g>
								<path class="st21" d="M622.1,157.2c-1.5,0-2.3,2.1-2.3,2.1c-3.2,6.4-17.4,11.2-21.1,12.2c-5.1,1.4-5.7,1.7-5.3,2.7
									c0.3,0.9,1.5,0.6,1.5,0.6c25.9-6.1,28.1-16.2,28.1-16.2C623.5,157.2,622.1,157.3,622.1,157.2z"/>
							</g>
						</g>
						<g>
							<path class="st5" d="M561.1,135.8c0.7,2.7,1.6,5.2,2.9,7.5c4.4,7.5,13.6,12,37,10.3c6.8-0.5,14.8-1.6,24.3-3.2
								c16.2-2.8,36.7-7.4,62.6-14.2c31-8.2,66.6-21.7,92.4-35.3c10.5-5.5,19.5-11,25.8-16.2c6-4.9,9.7-9.4,10.2-13.3
								c0.2-0.8,0.1-1.7-0.1-2.5c-0.3-1.1-0.9-2.1-1.8-3c-2.6-2.8-7.8-4.7-14.9-5.9c-8.1-1.4-18.6-1.8-30.5-1.5
								c-29.1,0.9-66.7,6.5-97.6,14.7C646,79.9,625.9,86,610.2,91.7c-9,3.3-16.6,6.5-22.9,9.6c-20.5,10.1-27.4,19.4-27,29.4
								C560.4,132.4,560.7,134,561.1,135.8z"/>
							<g>
								<g>
									<g>
										<path class="st2" d="M801.4,77.9c1.1,2.2,2.6,4.5,4.7,6.8c6-4.9,9.7-9.4,10.2-13.3C814.2,72.4,809.2,74.7,801.4,77.9z"/>
										<path class="st29" d="M801.4,77.9c7.8-3.2,12.8-5.5,14.9-6.5c0.2-0.8,0.1-1.7-0.1-2.5c-0.3-1.1-0.9-2.1-1.8-3
											c-2,0.3-7.5,1-15.7,2.3C798.9,71.1,799.6,74.5,801.4,77.9z"/>
										<path class="st4" d="M798.7,68.2c8.2-1.3,13.7-2,15.7-2.3c-2.6-2.8-7.8-4.7-14.9-5.9C799,61.9,798.5,64.7,798.7,68.2z"/>
									</g>
									<g>
										<path class="st9" d="M780.3,101c10.5-5.5,19.5-11,25.8-16.2c-2-2.3-3.6-4.6-4.7-6.8c-6.9,2.8-16.1,6.4-27.5,10.6
											c0.1,0,0.1,0.1,0.2,0.1c0,0-0.1,0.1-0.1,0.4C773.8,90.7,773.5,97.2,780.3,101z"/>
										<path class="st10" d="M798.7,68.2c-0.2-3.5,0.3-6.3,0.8-8.2c-8.1-1.4-18.6-1.8-30.5-1.5c-1.7,2.3-4.6,7.8,0.5,13.5
											c0.1,0.1,0.2,0.2,0.3,0.3c0,0-0.1,0.1-0.2,0.3l0,0c0,0.1-0.1,0.1-0.1,0.2v0.1c0,0.1,0,0.1-0.1,0.2c0-0.1,0-0.1,0,0
											C781.1,71,791.1,69.4,798.7,68.2z"/>
										<path class="st11" d="M773.9,88.5L773.9,88.5c11.4-4.1,20.6-7.7,27.7-10.4c-1.8-3.5-2.5-6.9-2.7-9.8
											c-7.6,1.2-17.6,2.8-29.3,4.9c0,0.1,0,0.1,0,0.1c-0.1,0-0.1,0.1-0.1,0.1c0,0.1-0.1,0.1-0.1,0.2c-0.1,0-0.1,0.1-0.1,0.1
											c0,0.1-0.1,0.1-0.1,0.2c-0.1,0-0.1,0.1-0.1,0.1s-0.1,0.1-0.1,0.2c-0.1,0-0.1,0.1-0.1,0.1c0,0.1-0.1,0.2-0.1,0.3v0.1
											c0,0.1-0.1,0.2-0.1,0.3l0,0c-0.3,0.6-0.5,1.4-0.6,2.3l0,0c-0.1,0.2-0.1,0.3-0.1,0.5c0,0.1,0,0.1,0,0.1c0,0.2,0,0.3,0,0.5
											c0,0.1,0,0.1,0,0.1c0,0.1,0,0.3,0,0.5l0,0c0,1.5,0.3,3.2,1.2,4.8l0,0c0.1,0.2,0.2,0.4,0.3,0.6c0,0.1,0,0.1,0,0.1
											c0.1,0.2,0.3,0.4,0.4,0.6l0,0c0.2,0.2,0.3,0.4,0.5,0.6l0,0C771.3,86.7,772.4,87.6,773.9,88.5L773.9,88.5z"/>
									</g>
									<g>
										<path class="st2" d="M564,143.3c4.4,7.5,13.6,12,37,10.3c6.8-0.5,14.8-1.6,24.3-3.2c16.2-2.8,36.7-7.4,62.6-14.2
											c31-8.2,66.6-21.7,92.4-35.3c-6.8-3.8-6.5-10.2-6.3-11.9l-0.1-0.5c-33.4,12.1-86.2,28.7-158.9,44.5
											c-7.6,1.6-15.5,3.3-23.6,4.9C582.5,139.7,573.4,141.5,564,143.3z"/>
										<path class="st4" d="M560.3,130.7c8.7-3.7,17.6-7.2,26.6-10.5c7.6-2.8,15.3-5.5,23-8h0.1c58.6-19.3,119.3-32,159.4-39.1
											c0-0.1,0-0.1,0-0.1c0.1,0,0.1-0.1,0.1-0.1v-0.1c0-0.1,0.1-0.2,0.1-0.2l0,0c0.1-0.2,0.2-0.3,0.2-0.3
											c-0.1-0.1-0.2-0.2-0.3-0.3c-5.1-5.8-2.2-11.2-0.5-13.5c-29.1,0.9-66.7,6.5-97.6,14.7C646,79.9,625.9,86,610.2,91.7
											c-9,3.3-16.6,6.5-22.9,9.6C566.9,111.4,560,120.7,560.3,130.7z"/>
										<path class="st29" d="M560.9,135.6c0.7,2.7,1.6,5.2,2.9,7.5c9.4-1.7,18.5-3.5,27.4-5.3c8.1-1.6,16-3.2,23.6-4.9
											c72.8-15.8,125.5-32.4,158.9-44.5l0,0c-1.5-0.8-2.6-1.8-3.5-2.8l0,0c-0.2-0.2-0.4-0.4-0.5-0.6l0,0
											c-0.1-0.2-0.3-0.4-0.4-0.6c0-0.1,0-0.1,0-0.1c-0.1-0.2-0.2-0.4-0.3-0.6l0,0c-0.9-1.6-1.2-3.3-1.2-4.8l0,0
											c0-0.1,0-0.3,0-0.5c0-0.1,0-0.1,0-0.1c0-0.2,0-0.3,0-0.5c0-0.1,0-0.1,0-0.1c0.1-0.2,0.1-0.3,0.1-0.5l0,0
											c0.1-0.8,0.4-1.6,0.6-2.3l0,0c0-0.1,0.1-0.2,0.1-0.3v-0.1c0-0.1,0.1-0.2,0.1-0.3c0.1,0,0.1-0.1,0.1-0.1
											c0-0.1,0.1-0.1,0.1-0.2c0.1,0,0.1-0.1,0.1-0.1c0-0.1,0.1-0.1,0.1-0.2c0.1,0,0.1-0.1,0.1-0.1c0-0.1,0.1-0.1,0.1-0.2
											c0.1,0,0.1-0.1,0.1-0.1c0-0.1,0-0.1,0-0.1c-40.1,7.1-100.8,19.8-159.4,39.1h-0.1c-7.8,2.6-15.4,5.2-23,8
											c-9,3.4-17.9,6.8-26.6,10.5C560.4,132.4,560.7,134,560.9,135.6z"/>
									</g>
								</g>
								<path class="st30" d="M686.2,126.6c119.6-31.3,130.1-55.3,130.1-55.3c-0.5,3.9-4.2,8.4-10.2,13.3
									c-6.3,5.1-15.3,10.7-25.8,16.2c-25.8,13.6-61.4,27.2-92.4,35.3c-25.9,6.8-46.4,11.4-62.6,14.2c-9.4,1.7-17.5,2.7-24.3,3.2
									c-19.1,1.4-28.7-1.3-34-6.5C567,147,577.9,155.1,686.2,126.6z"/>
							</g>
						</g>
					</g>
					<g>
						<g>
							<path class="st19" d="M562.1,133.6l42.7-13.8c2.3-0.7,5.1,2,5.7,4.1l0,0c0.6,2.2-0.5,5.9-2.8,6.5l-43.7,9.8
								c-2.3,0.7-4.5,0-5.1-2.1l0,0C558.3,136,559.9,134.2,562.1,133.6z"/>
							<path class="st20" d="M560,139.8c1,0.7,2.5,0.8,4,0.4l43.7-9.8c1.7-0.5,2.7-2.5,2.9-4.4C592.1,132.4,560,139.8,560,139.8z"/>
						</g>
						<path class="st21" d="M560.6,136.1L560.6,136.1c-0.2-0.6,0.3-0.8,1-1l42.6-13.3c2.4-0.6,2.4,0.5,2.6,1l0,0
							c0.2,0.5-0.3,1.1-1,1.3L562,136.3C561.2,136.5,560.8,136.6,560.6,136.1z"/>
					</g>
				</g>
				<g>
					<g>
						<path class="st31" d="M636.5,122.8c-0.7-0.9-1-1.9-1-3"/>
						<path class="st31" d="M634.1,123.5c-0.3-0.7-0.5-1.5-0.8-2.2"/>
					</g>
					<g>
						<path class="st32" d="M682,78c0.3-1,1-2,1.8-2.6"/>
						<path class="st32" d="M679.9,76.6c0.4-0.7,0.9-1.3,1.3-2"/>
					</g>
					<path class="st31" d="M727.4,90.4c-0.2-1.4-0.2-1.7-0.8-2.9"/>
					<g>
						<path class="st33" d="M782.5,89.5c-0.1-0.8-0.2-0.9-0.2-1.6"/>
						<path class="st33" d="M780.9,90.1c-0.1-1-0.3-0.5-0.4-1.5"/>
					</g>
					<g>
						<path class="st34" d="M600.1,143.7c-0.1-0.8-0.2-0.9-0.2-1.6"/>
						<path class="st34" d="M598.5,144.4c-0.1-1-0.3-0.5-0.4-1.5"/>
					</g>
					<path class="st34" d="M651,133.3c-0.7-0.8-1-1.1-1.3-2.1"/>
				</g>
			</g>
		</g>
		<g>
			<g>
				<path class="st1" d="M586.3,90c0,0-1.9,0.6-4.8,1.5c-2.8,0.9-6.7,2-10.5,3.2c-1.9,0.5-3.8,1.2-5.6,1.7c-1.8,0.5-3.5,0.8-5,1.1
					c-3,0.5-5,0.6-5,0.6l-0.1-0.2c0,0,1.9-0.9,4.7-1.9c1.4-0.5,3.1-1,4.9-1.5c1.8-0.5,3.7-0.9,5.7-1.3c3.9-0.9,7.8-1.8,10.7-2.4
					c2.9-0.6,4.9-1,4.9-1L586.3,90z"/>
			</g>
			<g>
				<path class="st1" d="M593.6,167.8c0,0-1.6,0.5-3.9,1.3c-2.4,0.8-5.5,1.7-8.6,2.7c-1.6,0.4-3.1,1-4.6,1.4
					c-1.5,0.4-2.9,0.6-4.1,0.8c-2.4,0.4-4.1,0.4-4.1,0.4l-0.1-0.2c0,0,1.5-0.8,3.8-1.7c1.2-0.4,2.5-0.9,4-1.3s3.1-0.6,4.7-1
					c3.2-0.7,6.4-1.4,8.8-1.9c2.4-0.5,4-0.8,4-0.8L593.6,167.8z"/>
			</g>
		</g>
	</g>
</g>
</svg>
