<?xml version="1.0" encoding="utf-8"?>
<!-- Generator: Adobe Illustrator 21.1.0, SVG Export Plug-In . SVG Version: 6.00 Build 0)  -->
<svg version="1.1" id="Artboard_1" xmlns="http://www.w3.org/2000/svg" xmlns:xlink="http://www.w3.org/1999/xlink" x="0px" y="0px"
	 viewBox="0 0 669.4 224.7" style="enable-background:new 0 0 669.4 224.7;" xml:space="preserve">
<style type="text/css">
	.st0{fill:#FFFFFF;}
	.st1{fill:#FFCB05;}
	.st2{fill:#EFBA11;}
	.st3{fill:#FFE069;}
	.st4{fill:#FFAD33;}
	.st5{fill:#1D1D1B;}
	.st6{fill:#3C3C3B;}
	.st7{fill:#706F6F;}
	.st8{fill:#FFF2CD;}
	.st9{fill:#FFFCF5;}
	.st10{fill:#FFF7E1;}
	.st11{fill:#FF9900;}
	.st12{fill:#FFC266;}
	.st13{opacity:0.24;fill:#FFCB05;enable-background:new    ;}
	.st14{fill:none;stroke:#706F6F;stroke-width:2.3519;stroke-linecap:round;stroke-linejoin:round;stroke-miterlimit:10;}
	.st15{fill:none;stroke:#FFF0CC;stroke-width:2.3519;stroke-linecap:round;stroke-linejoin:round;stroke-miterlimit:10;}
	.st16{fill:none;stroke:#FFC266;stroke-width:2.3519;stroke-linecap:round;stroke-linejoin:round;stroke-miterlimit:10;}
	.st17{fill:none;stroke:#FFE069;stroke-width:2.3519;stroke-linecap:round;stroke-linejoin:round;stroke-miterlimit:10;}
	.st18{fill:none;stroke:#FFD537;stroke-width:2.3519;stroke-linecap:round;stroke-linejoin:round;stroke-miterlimit:10;}
</style>
<g>
	<g>
		<g>
			<g>
				<g>
					<path class="st0" d="M114.6,105.7c0,0-1.6,0.3-4.3,0.9c-2.8,0.6-6.6,1.4-11.3,2.4c-2.3,0.5-4.8,1-7.5,1.6
						c-2.7,0.5-5.5,1.1-8.4,1.7c-5.8,1.2-12.1,2.4-18.3,3.6c-3.1,0.6-6.2,1.2-9.3,1.9c-3.1,0.7-6.1,1.3-9,1.8s-5.8,0.8-8.5,1.1
						c-2.7,0.3-5.3,0.5-7.7,0.6s-4.5,0.2-6.5,0.2s-3.7,0-5.1,0c-2.8,0-4.4-0.2-4.4-0.2l-0.1-0.7c0,0,1.5-0.7,4.2-1.6
						c1.3-0.5,2.9-1,4.8-1.6c1.9-0.6,4-1.2,6.3-1.8c2.3-0.6,4.8-1.2,7.5-1.8c2.6-0.6,5.5-1.1,8.4-1.6c2.9-0.4,6-0.7,9.1-1
						c3.1-0.3,6.2-0.6,9.4-1c6.3-0.7,12.6-1.5,18.5-2.1c2.9-0.3,5.8-0.6,8.5-0.9c2.7-0.3,5.2-0.6,7.6-0.8c4.8-0.4,8.7-0.9,11.5-1.1
						c2.7-0.3,4.3-0.4,4.3-0.4L114.6,105.7z"/>
				</g>
				<g>
					<path class="st0" d="M118.4,144.8c0,0-1.6,0.3-4.3,0.9c-2.8,0.6-6.6,1.4-11.3,2.4c-2.3,0.5-4.8,1-7.5,1.6
						c-2.7,0.5-5.5,1.1-8.4,1.7c-5.8,1.2-12.1,2.4-18.3,3.6c-3.1,0.6-6.2,1.2-9.3,1.9s-6.1,1.3-9,1.8s-5.8,0.8-8.5,1.1
						s-5.3,0.5-7.7,0.6c-2.4,0.1-4.5,0.2-6.5,0.2s-3.7,0-5.1,0c-2.8,0-4.4-0.2-4.4-0.2l-0.1-0.7c0,0,1.5-0.7,4.2-1.6
						c1.3-0.5,2.9-1,4.8-1.6c1.9-0.6,4-1.2,6.3-1.8s4.8-1.2,7.5-1.8c2.6-0.6,5.5-1.1,8.4-1.6c2.9-0.4,6-0.7,9.1-1
						c3.1-0.3,6.2-0.6,9.4-1c6.3-0.7,12.6-1.5,18.5-2.1c2.9-0.3,5.8-0.6,8.5-0.9c2.7-0.3,5.2-0.6,7.6-0.8c4.8-0.4,8.7-0.9,11.5-1.1
						c2.7-0.3,4.3-0.4,4.3-0.4L118.4,144.8z"/>
				</g>
				<g>
					<path class="st0" d="M100.4,127.3c0,0-1.6,0.3-4.3,0.9c-2.8,0.6-6.6,1.4-11.3,2.4c-2.3,0.5-4.8,1-7.5,1.6
						c-2.7,0.5-5.5,1.1-8.4,1.7c-5.8,1.2-12.1,2.4-18.3,3.6c-3.1,0.6-6.2,1.2-9.3,1.9s-6.1,1.3-9,1.8s-5.8,0.8-8.5,1.1
						s-5.3,0.5-7.7,0.6c-2.4,0.1-4.5,0.2-6.5,0.2s-3.7,0-5.1,0c-2.8,0-4.4-0.2-4.4-0.2L0,142.2c0,0,1.5-0.7,4.2-1.6
						c1.3-0.5,2.9-1,4.8-1.6c1.9-0.6,4-1.2,6.3-1.8s4.8-1.2,7.5-1.8c2.6-0.6,5.5-1.1,8.4-1.6c2.9-0.4,6-0.7,9.1-1
						c3.1-0.3,6.2-0.6,9.4-1c6.3-0.7,12.6-1.5,18.5-2.1c2.9-0.3,5.8-0.6,8.5-0.9c2.7-0.3,5.2-0.6,7.6-0.8c4.8-0.4,8.7-0.9,11.5-1.1
						c2.7-0.3,4.3-0.4,4.3-0.4L100.4,127.3z"/>
				</g>
			</g>
			<g>
				<g>
					<g>
						<g>
							<g>
								<g>
									<path class="st1" d="M175.8,53c0,0-62.5-28.1-68.8-30.8c-6.3-2.7-0.4-7.3-0.4-7.3s64.8-12.6,91.2-3.6
										c26.3,9,24.8,26.9,24.8,26.9L175.8,53z"/>
									<path class="st2" d="M162.6,47c7.8,3.6,13.2,6,13.2,6l46.8-14.7c0,0,0.7-4.5-2.7-10.5C186.8,35.5,162.6,47.1,162.6,47z"/>
								</g>
								<path class="st3" d="M208.2,26.8c-3,1.3-6.4-2.2-6.4-2.2c-11.9-9.9-44.2-7.3-52.6-6.1c-11.3,1.6-12.7,1.5-12.8-0.8
									c-0.1-2,2.4-2.4,2.4-2.4c56.9-10.2,70.1,8,70.1,8C211.1,25.8,208.2,26.9,208.2,26.8z"/>
							</g>
							<g>
								<g>
									<path class="st1" d="M193.5,167.5c0,0-51.1,45.7-56.3,50.1c-5.2,4.5,1.8,7.1,1.8,7.1s65.5-7.6,88-24.1s15.6-33.1,15.6-33.1
										H193.5z"/>
									<path class="st2" d="M182.7,177.2c6.4-5.7,10.8-9.7,10.8-9.7h49.1c0,0,1.9,4.1,0.5,10.8
										C209.2,180.9,182.7,177.2,182.7,177.2z"/>
								</g>
								<path class="st3" d="M232.2,182.7c-3.2-0.3-5.4,4.1-5.4,4.1c-8.4,13.1-40,20.3-48.3,21.7c-11.3,1.9-12.6,2.4-12,4.6
									c0.4,1.9,3,1.6,3,1.6c57.4-7.5,64.5-28.8,64.5-28.8C235.3,182.8,232.3,182.7,232.2,182.7z"/>
							</g>
						</g>
						<g>
							<path class="st4" d="M102.2,122.5c0.9,6.1,2.3,11.7,4.6,16.9c7.8,17.2,26.6,29,77.7,30.6c14.9,0.4,32.5,0,53.4-1.4
								c35.7-2.5,81.1-7.8,138.6-16.7c68.9-10.6,148.9-32.1,207.8-55.6c24.1-9.6,44.6-19.6,59.4-29.4c14.1-9.2,23.1-18.2,25.1-26.5
								c0.5-1.9,0.6-3.7,0.3-5.5c-0.3-2.4-1.4-4.7-3.1-6.9c-5.1-6.5-15.9-11.9-31-16c-17.2-4.8-39.8-8.1-65.7-10
								c-63.2-4.7-145.6-1-214.4,9.7C298.4,20.4,253.6,29.1,218.4,38c-20.3,5.1-37.4,10.4-51.7,15.7c-46.5,17.4-63.6,36.1-65,57.7
								C101.5,115,101.7,118.7,102.2,122.5z"/>
							<g>
								<g>
									<g>
										<path class="st5" d="M635.1,51.2c1.9,5.1,4.7,10.4,8.7,15.8c14.1-9.2,23.1-18.2,25.1-26.5C664,42.2,652.7,46,635.1,51.2z"
											/>
										<path class="st6" d="M635,51.2c17.7-5.3,28.9-9.1,33.8-10.8c0.5-1.9,0.6-3.7,0.3-5.5c-0.3-2.4-1.4-4.7-3.1-6.9
											c-4.4,0.2-16.5,0.5-34.5,1.4C631.2,35.8,632.1,43.3,635,51.2z"/>
										<path class="st7" d="M631.4,29.4c18.1-0.9,30.2-1.3,34.6-1.4c-5.1-6.5-15.9-11.9-31-16.1
											C633.5,15.8,631.7,21.9,631.4,29.4z"/>
									</g>
									<g>
										<path class="st8" d="M584.3,96.3c24.1-9.6,44.6-19.6,59.4-29.4c-4-5.4-6.8-10.7-8.7-15.8c-15.6,4.7-36.3,10.4-61.9,16.8
											c0.2,0.1,0.3,0.2,0.4,0.3c0,0-0.1,0.3-0.2,0.9C572.5,72.7,570.4,86.6,584.3,96.3z"/>
										<path class="st9" d="M631.5,29.5c0.3-7.5,2-13.6,3.5-17.5c-17.2-4.8-39.8-8.1-65.7-10c-4.2,4.5-11.8,15.7-2,29.2
											c0.2,0.3,0.4,0.5,0.6,0.8c0,0-0.2,0.2-0.4,0.5l0,0c0,0.1-0.1,0.2-0.2,0.3c0,0.1-0.1,0.1-0.1,0.2c-0.1,0.1-0.1,0.2-0.2,0.3
											c-0.1,0-0.1,0.1-0.1,0.1C592.8,31.6,614.7,30.3,631.5,29.5z"/>
										<path class="st10" d="M573.1,67.9C573.2,67.9,573.2,67.9,573.1,67.9c25.7-6.3,46.4-12.1,62.1-16.6c-3-8-3.8-15.4-3.6-21.8
											c-16.7,0.8-38.6,2.1-64.5,4l-0.1,0.1c-0.1,0.1-0.1,0.2-0.2,0.3s-0.1,0.2-0.2,0.3c-0.1,0.1-0.1,0.2-0.2,0.3
											c0,0.1-0.1,0.3-0.2,0.4c-0.1,0.1-0.1,0.2-0.2,0.3c-0.1,0.2-0.2,0.3-0.3,0.5c-0.1,0.1-0.1,0.2-0.2,0.3
											c-0.1,0.2-0.2,0.4-0.3,0.6c0,0-0.1,0.1-0.1,0.2c-0.1,0.3-0.2,0.5-0.3,0.7v0.1c-0.7,1.4-1.3,3.1-1.8,4.9c0,0.1,0,0.1,0,0.1
											c-0.1,0.4-0.2,0.7-0.3,1.1v0.1c-0.1,0.4-0.1,0.7-0.2,1.1V45c-0.1,0.3-0.2,0.7-0.2,1.1v0.1c-0.4,3.3-0.1,6.9,1.5,10.6v0.1
											c0.2,0.4,0.4,0.9,0.6,1.3c0.1,0,0.1,0.1,0.1,0.1c0.2,0.4,0.4,0.9,0.7,1.3c0.1,0,0.1,0.1,0.1,0.1c0.3,0.4,0.6,0.9,0.9,1.3
											l0,0C567.8,63.3,570.1,65.7,573.1,67.9L573.1,67.9z"/>
									</g>
									<g>
										<path class="st11" d="M167.3,134.1c-19.6,1.9-39.7,3.6-60.4,5.3c7.8,17.2,26.6,29,77.7,30.6
											C176.3,158.2,170.8,145.9,167.3,134.1z"/>
										<path class="st4" d="M102.2,122.4c0.9,6.1,2.3,11.7,4.6,16.9c20.7-1.6,40.8-3.4,60.4-5.3c-4-13.9-5.5-27.4-5.6-39.3
											c-20.2,5.2-40.3,10.7-59.9,16.7C101.5,115,101.7,118.7,102.2,122.4z"/>
										<path class="st12" d="M161.7,94.7c-0.2-19.4,3.3-34.7,5-41c-46.5,17.4-63.6,36.1-65,57.7
											C121.3,105.4,141.4,99.8,161.7,94.7z"/>
									</g>
									<g>
										<path class="st10" d="M213.1,82.5c-17.3,3.8-34.5,7.9-51.5,12.2c0,11.9,1.5,25.4,5.6,39.3c17.9-1.7,35.3-3.5,52.2-5.4
											c-0.3-1.1-0.6-2.2-0.9-3.3C214.5,110.1,213.1,95.5,213.1,82.5z"/>
										<path class="st8" d="M167.4,134c3.5,12,9,24.2,17.2,36c14.9,0.4,32.5,0,53.4-1.4c-8.8-13.2-14.7-26.7-18.5-40
											C202.6,130.5,185.2,132.3,167.4,134z"/>
										<path class="st9" d="M213,80.7c0.2-19.2,3.3-34.7,5.3-42.7c-20.3,5.1-37.4,10.4-51.7,15.7c-1.7,6.3-5.1,21.6-5,41
											c17.1-4.4,34.3-8.4,51.5-12.2C213.1,81.9,213.1,81.3,213,80.7z"/>
									</g>
									<g>
										<path class="st1" d="M219.4,128.6c3.9,13.3,9.8,26.9,18.5,40c35.7-2.5,81.1-7.8,138.6-16.7
											c68.9-10.6,148.9-32.1,207.8-55.6c-13.9-9.7-11.8-23.6-11-27.2l-0.1-1.1C498.2,86.6,380.4,110.8,219.4,128.6z"/>
										<path class="st3" d="M213.1,82.4c0.1,0,0.1,0,0.2,0c131-28.7,265.3-42.5,353.6-49c0.1,0,0.1-0.1,0.1-0.1
											c0.1-0.1,0.1-0.2,0.2-0.3c0-0.1,0.1-0.1,0.1-0.2c0.1-0.1,0.1-0.2,0.2-0.3l0,0c0.3-0.3,0.4-0.5,0.4-0.5
											c-0.2-0.3-0.4-0.5-0.6-0.8c-9.8-13.5-2.2-24.6,2-29.2c-63.2-4.7-145.6-1-214.4,9.7C298.4,20.4,253.6,29.1,218.4,38
											c-2,8-5.1,23.5-5.3,42.7C213.1,81.3,213.1,81.9,213.1,82.4z"/>
										<path class="st6" d="M218.3,125.3c0.3,1.1,0.6,2.2,0.9,3.3C380.1,110.8,497.9,86.7,572.9,68v-0.1c-3-2.2-5.2-4.6-6.9-6.9
											l0,0c-0.3-0.4-0.6-0.9-0.9-1.3c-0.1,0-0.1-0.1-0.1-0.1c-0.2-0.4-0.5-0.9-0.7-1.3c-0.1,0-0.1-0.1-0.1-0.1
											c-0.2-0.4-0.4-0.9-0.6-1.3v-0.1c-1.5-3.7-1.9-7.3-1.5-10.6v-0.1c0.1-0.3,0.1-0.7,0.2-1.1v-0.1c0.1-0.4,0.1-0.7,0.2-1.1
											v-0.1c0.1-0.4,0.2-0.8,0.3-1.1c0-0.1,0-0.1,0-0.1c0.5-1.8,1.1-3.5,1.8-4.9v-0.1c0.1-0.3,0.2-0.5,0.3-0.7
											c0,0,0.1-0.1,0.1-0.2c0.1-0.2,0.2-0.4,0.3-0.6c0.1-0.1,0.2-0.2,0.2-0.3c0.1-0.2,0.2-0.3,0.3-0.5c0.1-0.1,0.1-0.2,0.2-0.3
											c0-0.1,0.1-0.3,0.2-0.4s0.1-0.2,0.2-0.3c0.1-0.1,0.1-0.2,0.2-0.3c0.1-0.1,0.1-0.2,0.2-0.3l0.1-0.1
											c-88.3,6.5-222.6,20.2-353.6,49c-0.1,0-0.1,0-0.2,0C213.1,95.5,214.5,110.1,218.3,125.3z"/>
									</g>
								</g>
								<path class="st13" d="M374.9,131.1c266-41,294-90.6,294-90.6c-2.1,8.3-11,17.3-25.1,26.5c-14.9,9.7-35.4,19.7-59.5,29.3
									c-58.9,23.6-138.8,45-207.7,55.6c-57.5,8.9-102.8,14.3-138.6,16.7c-20.9,1.4-38.5,1.9-53.4,1.4c-41.8-1.3-62-9.5-72.2-21.8
									C112.4,148.2,134.3,168.2,374.9,131.1z"/>
							</g>
						</g>
					</g>
					<g>
						<g>
							<path class="st1" d="M101.1,117.7l95.7-18.6c5.2-0.8,10.5,5.7,11.2,10.4l0,0c0.7,4.7-2.5,12.4-7.7,13.2l-97,9.9
								c-5.2,0.8-9.8-1.2-10.5-5.9l0,0C92.1,122,96,118.6,101.1,117.7z"/>
							<path class="st2" d="M94.9,130.7c2,1.8,5.1,2.5,8.5,2l97-9.9c3.7-0.6,6.4-4.8,7.4-8.8C166.2,122.9,94.9,130.7,94.9,130.7z"/>
						</g>
						<path class="st3" d="M97.1,122.7L97.1,122.7c-0.2-1.2,0.9-1.6,2.5-1.8l95.5-17.6c5.2-0.8,5.1,1.6,5.3,2.8l0,0
							c0.1,1.2-1,2.4-2.6,2.6l-97.9,14.9C98.3,123.9,97.3,124,97.1,122.7z"/>
					</g>
				</g>
				<g>
					<g>
						<path class="st14" d="M268.3,111.1c-1.2-2-1.7-4.3-1.5-6.6"/>
						<path class="st14" d="M262.8,112.4c-0.4-1.7-0.8-3.3-1.2-5"/>
					</g>
					<g>
						<path class="st15" d="M376.9,24.5c0.9-2.2,2.4-4,4.4-5.2"/>
						<path class="st15" d="M372.6,20.9c1-1.3,2.1-2.7,3.2-4"/>
					</g>
					<path class="st14" d="M472.1,61.6c-0.1-2.9,0-3.7-1.1-6.4"/>
					<path class="st16" d="M140.5,144.6c0.6,2.9,0.5,3.4,2,5.5"/>
					<g>
						<path class="st17" d="M617.3,67c0.1-1.6-0.1-1.8,0-3.4"/>
						<path class="st17" d="M613.7,67.9c0-2.1-0.5-1.1-0.5-3.2"/>
					</g>
					<g>
						<path class="st17" d="M184.7,148.4c0.1-1.6-0.1-1.8,0-3.4"/>
						<path class="st17" d="M181.2,149.3c0-2.1-0.5-1.1-0.5-3.2"/>
					</g>
					<path class="st18" d="M297.3,137.4c-1.3-2-1.8-2.5-2.3-4.8"/>
				</g>
			</g>
		</g>
		<g>
			<g>
				<path class="st0" d="M199.8,187.2c0,0-4.5,0.9-11.3,2.2s-15.8,2.9-24.8,4.6c-2.2,0.4-4.5,0.9-6.7,1.3s-4.4,0.9-6.5,1.2
					s-4.1,0.6-6.1,0.8c-1.9,0.3-3.8,0.5-5.5,0.6s-3.3,0.2-4.7,0.3c-1.4,0.1-2.6,0.2-3.6,0.2c-2,0-3.2,0-3.2,0l-0.1-0.3
					c0,0,1.1-0.3,3-0.9c1-0.2,2.1-0.6,3.5-0.9c1.4-0.3,2.9-0.7,4.6-1.1c1.6-0.3,3.5-0.7,5.4-1.1c1.9-0.4,4-0.8,6.1-1.1
					c2.2-0.3,4.4-0.6,6.6-0.8c2.2-0.3,4.5-0.5,6.8-0.8c9.1-1.1,18.2-2.3,25-3.1s11.4-1.3,11.4-1.3L199.8,187.2z"/>
			</g>
			<g>
				<path class="st0" d="M161.1,38c0,0-3.5,0.7-8.8,1.8c-5.2,1.1-12.3,2.4-19.3,3.8c-1.7,0.4-3.5,0.8-5.2,1.1
					c-1.7,0.4-3.4,0.7-5.1,1c-1.7,0.2-3.3,0.5-4.8,0.6c-1.5,0.2-3,0.3-4.3,0.4c-1.4,0.1-2.6,0.2-3.7,0.2c-1,0-2,0-2.8,0
					c-1.6,0-2.5-0.1-2.5-0.1l-0.1-0.3c0,0,0.9-0.3,2.4-0.8c0.7-0.2,1.6-0.5,2.7-0.8c1.1-0.3,2.3-0.6,3.6-0.9c1.3-0.4,2.7-0.7,4.2-1
					c1.5-0.4,3.1-0.6,4.8-0.9c1.6-0.2,3.3-0.4,5.1-0.6c1.7-0.2,3.5-0.4,5.3-0.6c7.1-0.8,14.2-1.7,19.5-2.2c5.3-0.6,8.9-0.9,8.9-0.9
					L161.1,38z"/>
			</g>
		</g>
	</g>
	<path class="st0" d="M481.5,134.5c0,10.6,8.6,19.3,19.3,19.3H550c10.6,0,19.3-8.6,19.3-19.3c0-10.6-8.6-19.3-19.3-19.3
		c-1.9,0-3.7,0.3-5.4,0.8c-0.9-9.9-9.1-17.6-19.2-17.6c-10,0-18.3,7.7-19.2,17.5c-1.7-0.5-3.5-0.8-5.3-0.8
		C490.2,115.1,481.5,123.8,481.5,134.5z"/>
</g>
</svg>
