<?xml version="1.0" encoding="utf-8"?>
<!-- Generator: Adobe Illustrator 21.1.0, SVG Export Plug-In . SVG Version: 6.00 Build 0)  -->
<svg version="1.1" id="objekt" xmlns="http://www.w3.org/2000/svg" xmlns:xlink="http://www.w3.org/1999/xlink" x="0px" y="0px"
	 viewBox="0 0 56.9 50.9" style="enable-background:new 0 0 56.9 50.9;" xml:space="preserve">
<style type="text/css">
	.st0{fill:#FDFFFF;}
	.st1{fill:#E7F7F5;}
	.st2{fill:#A04E35;}
</style>
<g>
	<path class="st0" d="M32.9,4.9c-4,7-2.1,19.9,2,26.5c7.6-4.6,15.7-10.2,17.8-18.9C55.4,0.9,38.4-4.7,32.9,4.9z"/>
	<path class="st0" d="M9.5,19.1c-6.6,2-10.7,8.3-9.1,15.5c4.2,18.9,26.7,2.2,33.3-5.7C33.6,29,18,16.5,9.5,19.1z"/>
	<path class="st1" d="M32.2,26.7l-0.4,1.9c4.5,3.2,27.4,9.9,24.8-2.9C53.8,12,37.1,22.4,32.2,26.7z"/>
	<path class="st1" d="M30.3,27.1C24.6,30.2,9.2,42.3,21,49.7c11.1,6.8,12.7-16.9,11.2-22.3L30.3,27.1z"/>
	<path class="st2" d="M32.8,26c0.1-0.2,0.2-0.4,0.2-0.6c0.3-1.4-0.6-2.7-2-3c-1.4-0.3-2.7,0.6-3,2c-0.3,1.4,0.6,2.7,2,3
		c0.2,0,0.4,0.1,0.6,0c1,1.4,1.9,2.8,2.4,4.4c0.5,1.6,3,1,2.5-0.6C34.9,29.4,33.9,27.7,32.8,26z"/>
</g>
</svg>
