<?xml version="1.0" encoding="utf-8"?>
<!-- Generator: Adobe Illustrator 21.1.0, SVG Export Plug-In . SVG Version: 6.00 Build 0)  -->
<svg version="1.1" id="Layer_1" xmlns="http://www.w3.org/2000/svg" xmlns:xlink="http://www.w3.org/1999/xlink" x="0px" y="0px"
	 viewBox="0 0 399 451.7" style="enable-background:new 0 0 399 451.7;" xml:space="preserve">
<style type="text/css">
	.st0{fill:#003D7A;stroke:#003D7A;stroke-miterlimit:10;}
</style>
<path class="st0" d="M42.6,415.6c20.9,0,41.6,0,62.2,0c84,0,168,0,252,0.2c5.3,0,6.3-1.7,6.2-6.5c-0.1-122.3,0-244.4,0-366.6
	c0-6.7,0-6.7-6.9-6.7c-102.5,0-205,0-307.5,0c-2,0-3.9,0-5.8,0C39.1,16.9,52.4,0.6,71.7,0.5c83.2-0.1,166.3,0,249.5,0
	c15.5,0,31,0,46.5,0c18.3,0,30.4,11.7,30.7,30.1c0.3,17.5,0.1,35,0.1,52.5c0,64.5,0,129,0,193.5c0,47.8,0.1,95.6,0,143.5
	c-0.1,19.1-12.5,31.1-31.5,31.1c-98,0-196,0-294,0C52.8,451.2,39.8,436.2,42.6,415.6z"/>
<path class="st0" d="M220.3,318.2c-29,0-58,0-86.9,0c-7.5,0-9.3-1.8-9.3-9.4c0-6.7,0.2-13.3-0.1-20c-0.1-4.5,1.9-6.7,5.9-8.6
	c16.4-7.7,32.7-15.6,48.8-23.9c5.2-2.7,10-6.7,14.4-10.6c5.3-4.7,5.1-8.7,1-14.3c-3.2-4.4-5.8-9.3-8.5-14c-2.6-4.5-4.9-9.2-7.5-13.8
	c-2.9-5-2.8-10-0.8-15.3c0.9-2.4,1.7-5,1.8-7.5c0.4-8.1-0.1-16.4,0.9-24.4c1.8-15.9,11.3-25.5,26.7-29.1c10.6-2.5,21.2-2.3,31.5,1.1
	c13.5,4.4,21.8,15.1,22.6,29.2c0.4,6,0.3,12,0.3,18c0,5,0.2,9.7,2.6,14.4c2.8,5.6,0.9,10.9-2.9,15.8c-1.6,2-2.7,4.4-4,6.7
	c-3.6,6.5-6.9,13.2-10.9,19.5c-2.8,4.4-3.4,9,0.4,12.6c4.2,3.9,8.7,8,13.7,10.7c16.2,8.5,32.6,16.5,49.1,24.4
	c6.8,3.3,7.6,3.8,7.6,11.6c0,5.5,0,11,0,16.5c0,8.8-1.8,10.6-10.4,10.6C277.6,318.2,249,318.2,220.3,318.2z"/>
<path class="st0" d="M37.5,61.2c7.3,0,14.6-0.1,22,0c9.6,0.2,15.9,6.2,16,14.8c0,8.7-6.7,15-16.4,15.1c-14.3,0.1-28.6,0.1-42.9,0
	C6.6,91,0.1,84.9,0,76.4c-0.1-9.1,6.1-15,16-15.2C23.2,61,30.3,61.2,37.5,61.2z"/>
<path class="st0" d="M37.2,151.1c-7.2,0-14.3,0.1-21.5,0c-9.2-0.2-15.6-6.2-15.8-14.5c-0.2-9,5.8-15.2,15.3-15.3
	c14.8-0.2,29.6-0.2,44.4,0c9.5,0.1,15.8,6.5,15.7,15.1c-0.2,8.6-6.8,14.6-16.2,14.8C51.9,151.2,44.6,151.1,37.2,151.1z"/>
<path class="st0" d="M38,181.2c7.2,0,14.3-0.1,21.5,0c9.6,0.2,15.9,6.3,15.9,14.9c0,8.5-6.6,14.9-16,15c-14.5,0.1-28.9,0.1-43.4,0
	c-9.5-0.1-16-6.2-16-14.8c0-8.9,6-14.8,15.6-15.1c3.8-0.1,7.7,0,11.5,0C30.7,181.2,34.4,181.2,38,181.2L38,181.2z"/>
<path class="st0" d="M37.7,301.2c7.3,0,14.6-0.1,22,0c9.5,0.2,15.8,6.4,15.7,15.1c-0.1,8.6-6.7,14.7-16.1,14.8
	c-14.5,0.1-28.9,0.1-43.4,0C6.4,331,0,324.8,0,316.1c0-8.8,6.1-14.7,15.8-14.9C23.1,301.1,30.4,301.2,37.7,301.2z"/>
<path class="st0" d="M38,361.2c7,0,14-0.1,21,0c10,0.2,16.4,6.1,16.4,14.9c0,8.7-6.7,14.9-16.4,15c-14.3,0.1-28.6,0.1-42.9,0
	c-9.5-0.1-16-6.2-16-14.8c-0.1-8.9,6-14.9,15.6-15.1C23,361,30.5,361.2,38,361.2z"/>
<path class="st0" d="M37.7,241.2c7.3,0,14.6-0.1,22,0c9.5,0.2,15.9,6.4,15.7,15.1c-0.1,8.4-6.6,14.7-15.6,14.8
	c-14.8,0.2-29.6,0.2-44.4,0c-9-0.1-15.4-6.5-15.3-14.9c0-8.7,6-14.6,15.3-14.9C22.8,241.1,30.2,241.2,37.7,241.2z"/>
</svg>
