<?xml version="1.0" encoding="utf-8"?>
<!-- Generator: Adobe Illustrator 21.1.0, SVG Export Plug-In . SVG Version: 6.00 Build 0)  -->
<svg version="1.1" id="Слой_1" xmlns="http://www.w3.org/2000/svg" xmlns:xlink="http://www.w3.org/1999/xlink" x="0px" y="0px"
	 viewBox="0 0 160.6 188.6" style="enable-background:new 0 0 160.6 188.6;" xml:space="preserve">
<style type="text/css">
	.st0{opacity:0.6;fill:#C39955;enable-background:new    ;}
	.st1{fill:#FFD28F;}
	.st2{fill:#A8BCDA;}
	.st3{fill:#FFFFDB;}
	.st4{fill:#6E7DBC;}
	.st5{fill:#FFC980;}
	.st6{opacity:0.2;fill:#FFD28F;enable-background:new    ;}
	.st7{fill:#383838;}
	.st8{opacity:0.1;fill:#F09662;enable-background:new    ;}
	.st9{fill:#F09662;}
	.st10{opacity:0.3;fill:#FFD28F;enable-background:new    ;}
	.st11{fill:none;stroke:#A10E2F;stroke-miterlimit:10;}
	.st12{fill:#8DAA95;}
	.st13{fill:#BD3C11;}
</style>
<path class="st0" d="M160.3,178.7c-3.3-5.5-25.2-3.4-32.6-3.6c-18.3-0.5-36.5-0.4-54.8-0.1c-7.2,0.1-36.4,1.4-43.2,1.6
	c-13.5,0.4-16.6,6.2-0.5,7.7c18.5,1.7,38.8,3,57.6,3c18,0.1,36.7,0.6,54.5-0.9c6.3-0.5,21.6-2.6,19-7.5
	C160.4,178.7,160.4,178.7,160.3,178.7z"/>
<g>
	<path class="st1" d="M49.3,143.1c-5.1,0.1-10.1-0.9-15.2-1.5C29,160.2,49.6,171,49.6,171l5.1-3.3C46.8,160.6,46.8,151.4,49.3,143.1
		z"/>
	<path class="st2" d="M53.9,167c0,0,4,0.9,5.8,4.2c0,0-7,13.7-12,17.4c0,0-0.6-10.9,1.2-17.6L53.9,167z"/>
	<path class="st3" d="M47.6,175c-0.8,0.2-1.8,1-1.4,1.9c0,0.1,0.1,0.1,0.2,0.1c0.5,0,1-0.2,1.6-0.3c0.9-0.1,1.7,0.3,2.5,0.6
		c1,0.4,1.6-1.2,0.7-1.7C50.2,175,48.9,174.8,47.6,175z"/>
	<path class="st3" d="M49.9,179.3c-0.8-0.2-1.7-0.2-2.4,0.1c-0.3,0.1-1.8,0.7-1.2,1.3c0.4,0.4,1,0.4,1.4,0.5
		c0.6,0.1,1.1,0.1,1.7,0.2s1.1-0.1,1.3-0.7C50.8,180.1,50.5,179.5,49.9,179.3z"/>
</g>
<g>
	<path class="st1" d="M84.9,134.2c-4.2,2.9-9,4.8-13.6,7.1c5.9,18.4,29.1,16,29.1,16l2.4-5.6C92.4,150.2,87.3,142.5,84.9,134.2z"/>
	<path class="st2" d="M101.9,151.7c0,0,3.8-1.5,7.1,0.3c0,0,1.6,15.3-0.5,21.2c0,0-6.5-8.8-8.6-15.4L101.9,151.7z"/>
	<path class="st3" d="M101,161.8c-0.6,0.6-1,1.8-0.2,2.4c0.1,0,0.2,0,0.2,0c0.5-0.3,0.7-0.8,1.2-1.1c0.7-0.6,1.6-0.7,2.4-0.9
		c1-0.2,0.7-1.9-0.3-1.8C103.1,160.4,101.9,161,101,161.8z"/>
	<path class="st3" d="M105.3,164.2c-0.8,0.2-1.5,0.8-2,1.4c-0.2,0.3-1.1,1.6-0.3,1.8c0.5,0.1,1-0.2,1.5-0.4c0.5-0.2,1-0.5,1.5-0.8
		c0.5-0.2,0.9-0.7,0.7-1.3C106.5,164.3,105.8,164,105.3,164.2z"/>
</g>
<path class="st1" d="M90.6,68.5c0,0,9.3-4.1,10.8-7.5s-0.5-12.5,1-9.9c1.5,2.5,2,3.7,2,3.7s2.7-6.5,3-3.8s0.4,5.3,0.4,5.3
	s5.3-3.8,4.3-1.6c-1.3,2.8-2.1,6.4-2.1,6.4s-0.2,3.6,1.6,6.1c1.8,2.5-1.3,2.4-2.6,0.8c-1.3-1.6-9.2,9.7-13.9,10.2
	C89.6,78.6,90.6,68.5,90.6,68.5z"/>
<path class="st1" d="M21.4,62.2c0,0-8.8-5-10-8.5s1.8-12.3,0-10C9.6,46.1,9,47.2,9,47.2s-2.1-6.8-2.6-4.1c-0.6,2.6-0.9,5.3-0.9,5.3
	s-4.9-4.3-4.1-2c1,2.9,1.5,6.5,1.5,6.5s-0.1,3.6-2.2,6s1,2.5,2.5,1s8.2,10.6,12.9,11.5C21.4,72.4,21.4,62.2,21.4,62.2z"/>
<path class="st4" d="M33.5,115.6c0,0-4.4,11.8-1,27c0,0,15.1,4.2,25,0.1l0.2-11l8.4,11.9c0,0,14.3,3.5,23.6-7.5
	c0,0-8.9-17.7-10.8-25.5C76.9,102.7,46.4,105,33.5,115.6z"/>
<path class="st2" d="M20.6,58.7c0,0-10.1,3.7-8.9,15.4l19.3,14c0,0-4.4,20.5-2.7,32.5c0,0,30.5,14.6,52.9-11.6
	c0,0-7.8-15.3-4.5-19.1c3.3-3.8,21-10.3,21-10.3s-2.9-9.7-6-13.9l-23.3,11c-9.1,2-19.1,4.1-30.3-1.5C32.8,72.6,26.4,66.2,20.6,58.7z
	"/>
<g>
	<path class="st5" d="M39.4,76.8l1.5,8.3c0,0,1.9,8.3,12.9,0.9l1.5-4.3C55.3,81.8,41.1,78.8,39.4,76.8z"/>
	<g>
		<g>
			<path class="st1" d="M28.6,40.6c0,0-3.5,15-4.7,20c-1.2,4.9,1,14.5,9.9,18.9s25.3,5.6,37.2-0.4c6-3,7.7-7.6,7.7-7.6
				s5.4,1.7,9.2-4.2c3.6-5.7-0.2-11.1-5.5-12.5c-0.2-0.1-0.8-0.2-0.6-0.1c0.6,0.1,6.5-16.2-4.3-21.8C66.7,27.3,36.8,15.4,28.6,40.6z
				"/>
			<path class="st6" d="M69.2,76.8c2.8-4.7,5.6-9.8,7.1-15.1c2.8-9.9-4.6-19.3-13.6-22.6c-0.6-0.2-1.2,0.3-1.2,0.9
				c0.4,4.6-7-1.2-8.4-2c-0.5-0.3-1.2,0.2-1.2,0.7c0,3.4-6.5-2.5-7.7-3.4c-2.4-1.6-5.4-1.8-8-0.7c-3.8,1.6-5.5,6.9-7,10.2
				c-1.2,2.6-2.4,5.2-3.4,8c1.4-5.8,2.9-12.3,2.9-12.3c8.1-25.3,38-13.3,48.8-7.7c10.7,5.6,4.9,21.9,4.3,21.8c0.1,0,0.5,0.1,0.6,0.1
				c5.2,1.4,9.1,6.8,5.5,12.5c-3.8,5.9-9.2,4.2-9.2,4.2S75.5,74,71,79c-1.2,1.3-3.4,2-6.3,2.3C66.8,79.8,67.8,79.3,69.2,76.8z"/>
		</g>
		<g>
			<path class="st7" d="M61.3,57.5c-1.2-0.5-2.6-0.7-3.8-0.3c-0.2-0.7-0.2-1.6,0.1-2.4c0.6-1.7,2-2.7,3.2-2.3
				c1.2,0.4,1.7,2.1,1.2,3.8C61.8,56.8,61.5,57.2,61.3,57.5z"/>
			<ellipse transform="matrix(0.4252 -0.9051 0.9051 0.4252 -15.4211 84.6589)" class="st3" cx="58.9" cy="54.5" rx="1.5" ry="1"/>
			<g>
				
					<ellipse transform="matrix(1.044344e-02 -0.9999 0.9999 1.044344e-02 -2.7115 119.6619)" class="st8" cx="59.1" cy="61.2" rx="3.9" ry="6.9"/>
				<path class="st9" d="M66.2,60.1c0,0-5.6-4.4-12.8-1.1C53.4,59,60.4,53.4,66.2,60.1z"/>
			</g>
		</g>
		<g>
			<g>
				<path class="st7" d="M34.4,51.5c1.2,0.1,2.4,0.7,3.1,1.6c0.5-0.5,0.9-1.2,1-2c0.3-1.7-0.4-3.2-1.5-3.5c-1.1-0.2-2.3,0.9-2.6,2.6
					C34.3,50.6,34.3,51.1,34.4,51.5z"/>
				<path class="st3" d="M36.7,49.6c-0.3,0.7-1,1.1-1.4,0.9c-0.5-0.2-0.6-1-0.3-1.7c0.3-0.7,1-1.1,1.4-0.9
					C36.9,48.2,37.1,48.9,36.7,49.6z"/>
			</g>
			<g>
				<path class="st8" d="M39.2,57.8c-0.9,1.8-4.5,1.9-7.5,0.1c-3.1-1.8-4.1-3.9-3.2-5.7c0.9-1.8,4.7-2.3,6.9-0.9
					C38.4,53.2,40.1,56,39.2,57.8z"/>
				<path class="st9" d="M29.6,51.1c0,0,4.7-1.4,9.5,4.7C39.1,55.8,36.1,48.1,29.6,51.1z"/>
			</g>
		</g>
		<g>
			<path class="st9" d="M29.9,60.3c0,0,10.5,6,30.3,2.1c0,0,0-0.7-1.7-2.3c0,0,2.9,0.2,4.1,3.3c1.2,3.1,0.4,4.1,0.4,4.1
				s-1.7-4.7-2-3.5C58.6,73,41.5,90,29.9,60.3z"/>
			<path class="st3" d="M31,61.5c0,0,12.1,6.6,28.7,2c0,0-2.9,11.5-12.1,12.8C38.5,77.6,32.2,66.1,31,61.5z"/>
		</g>
	</g>
	<path class="st10" d="M85.4,64.5c0.3-0.3,0.4-0.6,0.3-1.1l0,0c-0.1-0.4-0.3-0.7-0.6-0.9c-0.4-0.3-0.9-0.4-1.4-0.5c0,0,0,0-0.1,0
		s-0.3,0-0.4-0.1c-0.6-0.2-1.2,0-1.6,0.5l0,0c-0.1,0.1-0.1,0.2-0.1,0.3l0,0l0,0c-0.1,0.2-0.2,0.4-0.3,0.6c-0.3,0.5-0.6,1.1-0.9,1.6
		s-0.4,1.2-0.2,1.7c0.2,0.4,0.5,0.7,0.9,0.8c0.1,0.2,0.3,0.4,0.6,0.5c0.8,0.3,1.4-0.2,1.9-0.8c0.3-0.1,0.6-0.3,0.8-0.6
		c0.3-0.3,0.4-0.7,0.5-1.1l0,0c0.1-0.2,0.2-0.3,0.3-0.5C85.2,64.6,85.3,64.6,85.4,64.5C85.3,64.6,85.3,64.5,85.4,64.5
		C85.3,64.5,85.3,64.5,85.4,64.5L85.4,64.5z"/>
</g>
<g>
	<path class="st7" d="M74.1,21.4c-0.2,0.2-0.4,0.4-0.5,0.6C73.6,22,73.9,21.9,74.1,21.4z"/>
	<path class="st7" d="M71.7,21.7l-0.2,0.5C71.6,22.1,71.6,22,71.7,21.7z"/>
	<path class="st7" d="M90,34.4c-2.8-7.8-14.6-11.6-14.6-11.6s6.6-3.5,9.2-3.3c0,0-5.8-3.3-10.5,1.9c-0.2,0.5-0.5,0.6-0.5,0.6
		c0.2-0.2,0.4-0.4,0.5-0.6c0.3-0.7,0.6-2.2,0-5.3l-2.4,5.5c0,0.3-0.1,0.5-0.2,0.5l0.2-0.5c0.1-0.9,0.1-2.5-0.2-3.4
		c-1.2-3.7-2.6-3.8-2.6-3.8l2,6c0,0-4.6-5.1-16.4-4.6s-21.6,3.7-29.4,18.5c0,0,2.3,2.8,7.9,6.2c3-3.6,7.9-8.3,8.3-8.5L37,42.8
		c2.5,1.3,5.4,2.6,8.9,3.8c1.7-3.1,5.1-9.1,7.5-11.3c0,0-3.9,8.3-5.4,12c7,2.4,15.7,4.5,26.7,5.7l2-5.8l0.9,6.4c0,0,2.1,0.7,4.8,1
		c2.8,0.2,7.1,0.1,7.1,0.1S92.8,42.2,90,34.4z"/>
</g>
<circle class="st11" cx="34.4" cy="47.7" r="9.7"/>
<circle class="st11" cx="58.9" cy="52.1" r="9.7"/>
<line class="st11" x1="81.2" y1="54.8" x2="68.3" y2="54.9"/>
<path class="st11" d="M43.2,51.4c0,0,5-3,5.9,1.3"/>
<polygon class="st12" points="44.1,8.2 42.8,13.1 74.9,25.7 91.8,22.2 93.2,15.9 70.8,6.4 "/>
<path class="st3" d="M44.7,9.8c0,0,29.8,11.4,30.6,11.2c0.8-0.2,16.9-3.7,16.9-3.7L91.4,21l-17,3.5L43.8,12.3L44.7,9.8"/>
<polygon class="st13" points="90,12.2 72.5,17.8 42.7,7.2 42.5,2.5 65.1,0 90.8,8.1 "/>
<polygon class="st3" points="43.3,3.6 43.6,6.6 72,16.6 89.2,11.5 89.5,8.6 71.8,12.9 "/>
</svg>
