<?xml version="1.0" encoding="utf-8"?>
<!-- Generator: Adobe Illustrator 21.1.0, SVG Export Plug-In . SVG Version: 6.00 Build 0)  -->
<svg version="1.1" id="Слой_1" xmlns="http://www.w3.org/2000/svg" xmlns:xlink="http://www.w3.org/1999/xlink" x="0px" y="0px"
	 viewBox="0 0 208.1 246" style="enable-background:new 0 0 208.1 246;" xml:space="preserve">
<style type="text/css">
	.st0{fill:#B2AC0E;}
	.st1{opacity:0.6;fill:#C39955;}
	.st2{fill:#FFD8BA;}
	.st3{fill:#E0765C;}
	.st4{fill:#FFD047;}
	.st5{fill:#FF7A00;}
	.st6{fill:#C1AF8B;}
	.st7{fill:#FFFFDB;}
	.st8{fill:#F2D393;}
	.st9{fill:#BD3C11;}
	.st10{opacity:0.2;fill:#FFD8BA;}
	.st11{fill:#383838;}
	.st12{opacity:0.1;fill:#E0765C;}
	.st13{opacity:0.5;fill:#FFD8BA;}
	.st14{fill:#FFBA85;}
	.st15{fill:#C9572D;}
	.st16{fill:#F27EC4;}
	.st17{fill:#894B7D;}
	.st18{fill:#359470;}
	.st19{fill:none;stroke:#FFFFDB;stroke-miterlimit:10;}
</style>
<path class="st0" d="M64.2,81.7c22,10.2,46.9,9.8,70.3,14.5c20.8,4.1,44.4,14.8,50.9,37.1c0,0,0,0-0.1,0c-3.1-5.3-5.9-10.7-9.9-15.5
	c-3.8-4.4-8.4-8-13.4-11c-9.9-5.9-21.4-8.5-32.6-10.5C107.6,92.6,84,92.8,63.7,83C62.9,82.6,63.4,81.3,64.2,81.7z"/>
<path class="st1" d="M113.9,233.1c-1.6-2.6-11.9-1.6-15.4-1.7c-8.6-0.2-17.3-0.2-25.9-0.1c-3.4,0.1-17.2,0.7-20.4,0.8
	c-6.4,0.2-7.9,2.9-0.2,3.6c8.8,0.8,18.3,1.4,27.2,1.4c8.5,0,17.3,0.3,25.8-0.4C107.9,236.5,115.2,235.5,113.9,233.1
	C113.9,233.2,113.9,233.2,113.9,233.1z"/>
<path class="st1" d="M207.9,241.2c-1.6-2.6-12.1-1.6-15.6-1.7c-8.8-0.2-17.5-0.2-26.3-0.1c-3.4,0.1-17.5,0.7-20.8,0.8
	c-6.5,0.2-8,3-0.2,3.7c8.9,0.8,18.6,1.4,27.7,1.5c8.6,0,17.6,0.3,26.2-0.4C201.8,244.6,209.2,243.6,207.9,241.2
	C207.9,241.2,207.9,241.2,207.9,241.2z"/>
<g>
	<path class="st2" d="M168.9,137.3c0,0,8.9,6.5,13.7,3.7c4.9-2.8,1.1-3.8,2.5-6.7c1.5-2.9,8.3-2.9,10.3,1.8
		c2,4.7-12.6,26.5-33.4,10.1L168.9,137.3z"/>
	<path class="st3" d="M193.8,137.4c-0.9,0.6-1.9,1.1-2.8,0.4c0,0,0,0.1,0,0.1c0,0.2-0.3,0.3-0.4,0.3c-0.7-0.2-0.8-1.1-1.3-1.7
		c-0.5-0.7-1.3-1.9-2.3-1c-0.8,0.7-0.5,1.7-0.4,2.6c0.1,0.9,0.6,1.8,0.7,2.7c0,0.1-0.1,0.2-0.2,0.1c-1.2-1.6-1.9-5.5-0.4-6.3
		c1.1-0.6,2.1-0.3,3,0.6c0.5,0.5,1,1.2,1.3,1.9c0,0,0.1,0,0.1,0c0.4,0.2,0.8,0.4,1.2,0.5c0.5,0,1.1-0.3,1.5-0.6
		C194.1,136.7,194.2,137.1,193.8,137.4z"/>
</g>
<g>
	<path class="st2" d="M98,136.8c0,0-10.6-2.6-14.1,1.8c-3.5,4.4,0.5,4,0.2,7.2c-0.3,3.2-6.6,5.8-10.2,2.2c-3.6-3.6,1.6-29.3,27.1-22
		L98,136.8z"/>
	<path class="st3" d="M75,146.2c0.6-0.9,1.3-1.8,2.4-1.4c0,0,0-0.1-0.1-0.1c-0.1-0.2,0.1-0.4,0.3-0.4c0.8-0.1,1.2,0.7,1.9,1.1
		c0.7,0.4,1.9,1.2,2.5,0.1c0.4-1-0.1-1.7-0.6-2.5c-0.5-0.8-1.3-1.4-1.6-2.3c0-0.1,0-0.2,0.1-0.1c1.7,1,3.9,4.4,2.8,5.7
		c-0.8,1-1.8,1-3,0.6c-0.6-0.3-1.4-0.7-1.9-1.3c0,0-0.1,0-0.1,0c-0.5,0-0.9-0.1-1.3,0c-0.5,0.2-0.9,0.6-1.2,1.1
		C74.9,146.9,74.7,146.6,75,146.2z"/>
</g>
<path class="st4" d="M113.8,124.1l-15.8-2.2l-3,20.5l18.6,1.5C113.7,143.9,122,127.2,113.8,124.1z"/>
<g>
	<path class="st2" d="M135.7,196.4c7.8-0.3,15.6-0.7,23.4-0.9c2.2,0,4.4-0.1,6.5-0.1c16.5,13.6,4,36,4,36h-6.5
		C168.5,211.3,145.7,200.2,135.7,196.4z"/>
	<path class="st4" d="M163.4,230.4c0,0-3.1,3.1-2.7,7.1c0,0,14.4,8.1,21,8.5c0,0-5.9-10.1-11.5-15L163.4,230.4z"/>
	<path class="st5" d="M173.8,233.9c0.8-0.4,2.2-0.2,2.4,0.8c0,0.1,0,0.2-0.1,0.2c-0.5,0.3-1.1,0.4-1.6,0.7c-0.9,0.4-1.4,1.2-1.9,2
		c-0.7,0.9-2.1-0.1-1.6-1.1C171.5,235.4,172.6,234.4,173.8,233.9z"/>
	<path class="st5" d="M174.3,239.2c0.6-0.6,1.4-1.1,2.2-1.4c0.4-0.1,2-0.4,1.9,0.4c-0.1,0.5-0.6,0.9-1,1.3c-0.5,0.4-0.9,0.7-1.4,1.2
		c-0.5,0.4-1.1,0.5-1.6,0.1C173.9,240.3,173.9,239.6,174.3,239.2z"/>
</g>
<g>
	<path class="st2" d="M105.9,174.8c2.5,7.4,5.1,14.8,7.4,22.2c0.7,2.1,1.3,4.2,1.9,6.3c-8.4,19.6-32.5,15.6-32.5,15.6L80,212
		C100.8,211.4,105,185.4,105.9,174.8z"/>
	<path class="st4" d="M82.1,212.1c0,0-3.9-2.1-7.6-0.6c0,0-3.7,16.1-2.2,22.6c0,0,8-8.5,11.2-15.3L82.1,212.1z"/>
	<path class="st5" d="M82.5,221.9c0.6,0.7,0.8,2-0.1,2.5c-0.1,0-0.2,0-0.3,0c-0.4-0.4-0.7-0.9-1.1-1.3c-0.7-0.7-1.6-1-2.5-1.3
		c-1-0.4-0.5-2.1,0.6-1.9C80.5,220.2,81.7,220.9,82.5,221.9z"/>
	<path class="st5" d="M77.7,223.9c0.8,0.4,1.5,1,1.9,1.8c0.2,0.3,0.9,1.8,0.1,1.9c-0.6,0.1-1.1-0.3-1.5-0.6c-0.5-0.3-1-0.7-1.5-1
		c-0.5-0.3-0.8-0.9-0.6-1.5C76.4,223.8,77.1,223.6,77.7,223.9z"/>
</g>
<path class="st4" d="M183.4,202.8c-0.2-0.8-0.7-1.4-1.3-1.8l-2.4-6.3l-87.4-1.4l-4.2,6.8c-0.8,0.6-1.3,1.6-1.3,2.6
	c0,1.8,1.5,3.2,3.3,3.2c1.2,0,2.2-0.6,2.7-1.6c0,0,0,0,0,0c0,1.8,1.5,3.3,3.3,3.3c1.5,0,2.8-1,3.1-2.4c0,0.2,0,0.3,0,0.5
	c0,1.8,1.5,3.3,3.3,3.3c1.7,0,3.1-1.3,3.2-2.9c0.1,0,0.1,0,0.2,0c-0.1,0.4-0.2,0.8-0.2,1.2c0,1.8,1.5,3.3,3.3,3.3
	c1.8,0,3.3-1.5,3.3-3.3c0,0,0-0.1,0-0.1c0.1,0,0.2,0,0.2,0c-0.1,0.2-0.1,0.3-0.1,0.5c-0.3,1.8,0.9,3.5,2.7,3.7
	c1.8,0.3,3.5-0.9,3.7-2.7c0-0.2,0-0.5,0-0.7c0,0,0,0,0.1,0c-0.1,0.5-0.1,0.9,0,1.4c0.4,1.8,2.1,2.9,3.9,2.5c1.1-0.2,2-1.1,2.4-2.1
	c0,0,0,0,0,0c0.3,1.8,2.1,2.9,3.8,2.6c1.5-0.3,2.5-1.5,2.6-3c0,0.2,0,0.3,0,0.5c0.3,1.8,2.1,2.9,3.8,2.6c1.5-0.3,2.6-1.7,2.6-3.2
	c0,0,0.1,0,0.1,0c0,0.3,0,0.6,0,0.9c0.3,1.8,2.1,2.9,3.8,2.6c1.7-0.3,2.8-1.9,2.6-3.5c0,0,0.1,0,0.1,0c0,0,0,0,0,0
	c0.1,1.8,1.6,3.2,3.4,3.2c1.8-0.1,3.2-1.6,3.2-3.4c0-0.1,0-0.1,0-0.2c0.1,0,0.2,0,0.3,0c0,0.4,0.1,0.8,0.3,1.3
	c0.8,1.6,2.7,2.3,4.3,1.6c1.1-0.5,1.7-1.5,1.9-2.5c0,0,0,0,0,0c0.7,1.6,2.7,2.4,4.3,1.7c1.4-0.6,2.1-2.1,1.9-3.5
	c0,0.2,0.1,0.3,0.1,0.4c0.7,1.6,2.7,2.4,4.3,1.7c1.5-0.7,2.2-2.3,1.8-3.8c0.1,0,0.1,0,0.2,0c0,0.3,0.1,0.7,0.2,1
	c0.7,1.6,2.7,2.4,4.3,1.7c1.6-0.7,2.4-2.7,1.7-4.3c0-0.1-0.1-0.2-0.2-0.3c0.1,0,0.2-0.1,0.3-0.1c0,0.2,0,0.5,0.1,0.7
	c0.4,1.7,2.2,2.8,4,2.3C182.8,206.3,183.8,204.5,183.4,202.8z M99.3,204.8c0,0,0-0.1,0-0.1c0,0,0,0,0,0
	C99.4,204.7,99.3,204.7,99.3,204.8z"/>
<path class="st5" d="M156.3,124.5l-42.5-0.4c0,0-1.2,24.5-8.8,36.9c-7.6,12.4-19.7,38.9-19.7,38.9s70.2,15.2,104.7-3.6
	c0,0-20.9-26.1-26.9-38.9C157.1,144.6,156.3,124.5,156.3,124.5z"/>
<path class="st4" d="M151.1,124.9l-0.4,8.7c0,0-15.6,3.4-25.1,0.8l-1.5-9.7L151.1,124.9z"/>
<path class="st4" d="M156.3,124.5l14.8,11.5c0,0-6.1,11-11,13.3C160.2,149.4,154,131.8,156.3,124.5z"/>
<g>
	<path class="st6" d="M123.6,152.9c0-0.8,0.4-1.6,1.1-2l5.4-2.9l0.6-6.1c0.1-0.8,0.6-1.5,1.4-1.8c0.2-0.1,0.5-0.1,0.7-0.1
		c0.5,0,1.1,0.2,1.5,0.6l4.4,4.2l6-1.3c0.1,0,0.3,0,0.4,0c0.6,0,1.3,0.3,1.7,0.8c0.5,0.6,0.6,1.5,0.3,2.2l-2.6,5.5l3,5.3
		c0.4,0.7,0.4,1.6-0.1,2.3c-0.3,0.4-0.6,0.7-1,0.8c-0.2,0.1-0.5,0.1-0.7,0.1c-0.1,0-0.2,0-0.3,0l-6-0.8l-4.1,4.5
		c-0.2,0.3-0.5,0.5-0.8,0.6c-0.2,0.1-0.5,0.1-0.7,0.1c-0.2,0-0.4,0-0.6-0.1c-0.8-0.2-1.4-0.9-1.5-1.7l-1.1-6l-5.6-2.5
		C124.1,154.4,123.7,153.7,123.6,152.9z"/>
	<path class="st7" d="M124.3,152.2c0-0.8,0.4-1.6,1.1-2l5.4-2.9l0.6-6.1c0.1-0.8,0.6-1.5,1.4-1.8c0.2-0.1,0.5-0.1,0.7-0.1
		c0.5,0,1.1,0.2,1.5,0.6l4.4,4.2l6-1.3c0.1,0,0.3,0,0.4,0c0.6,0,1.3,0.3,1.7,0.8c0.5,0.6,0.6,1.5,0.3,2.2l-2.6,5.5l3,5.3
		c0.4,0.7,0.4,1.6-0.1,2.3c-0.3,0.4-0.6,0.7-1,0.8c-0.2,0.1-0.5,0.1-0.7,0.1c-0.1,0-0.2,0-0.3,0l-6-0.8l-4.1,4.5
		c-0.2,0.3-0.5,0.5-0.8,0.6c-0.2,0.1-0.5,0.1-0.7,0.1c-0.2,0-0.4,0-0.6-0.1c-0.8-0.2-1.4-0.9-1.5-1.7l-1.1-6l-5.6-2.5
		C124.8,153.8,124.3,153,124.3,152.2z"/>
	<path class="st8" d="M124.9,149.4l4.9-2.7l0.6-5.5c0.1-1.2,0.9-2.2,2.1-2.6c0.4-0.1,0.7-0.2,1.1-0.2c0.8,0,1.6,0.3,2.2,0.9l4,3.8
		l5.4-1.2c0.2,0,0.4-0.1,0.7-0.1c1,0,1.9,0.4,2.5,1.2c0.8,1,0.9,2.2,0.4,3.3l-2.4,5l2.8,4.8c0.6,1,0.6,2.3-0.1,3.3
		c-0.4,0.6-0.9,1-1.5,1.2c-0.4,0.1-0.7,0.2-1.1,0.2c-0.1,0-0.3,0-0.4,0l-5.5-0.7l-3.7,4.1c-0.3,0.4-0.8,0.7-1.3,0.9
		c-0.4,0.1-0.7,0.2-1.1,0.2c-0.3,0-0.6,0-0.9-0.1c-1.2-0.3-2-1.3-2.3-2.5l-1-5.5l-5.1-2.3c-1.1-0.5-1.8-1.6-1.9-2.8
		C123.2,151,123.9,149.9,124.9,149.4z"/>
	<g>
		<g>
			<g>
				<path class="st5" d="M139.7,147.8c1.4-0.5,2.5,0.8,2.5,0.9c0.1,0.1,0.1,0.3,0,0.4c-0.1,0.1-0.3,0.1-0.4,0c0,0-0.8-1.1-1.9-0.7
					c-1,0.4-1,1.7-1,1.7c0,0.1-0.1,0.2-0.2,0.3c0,0-0.1,0-0.1,0c-0.2,0-0.3-0.1-0.3-0.3C138.3,150.1,138.3,148.3,139.7,147.8z"/>
			</g>
			<g>
				<path class="st5" d="M133,150.3c1.4-0.5,2.5,0.8,2.5,0.9c0.1,0.1,0.1,0.3,0,0.4c-0.1,0.1-0.3,0.1-0.4,0c0,0-0.8-1.1-1.9-0.7
					c-1,0.4-1,1.7-1,1.7c0,0.1-0.1,0.2-0.2,0.3c0,0-0.1,0-0.1,0c-0.2,0-0.3-0.1-0.3-0.3C131.6,152.5,131.6,150.8,133,150.3z"/>
			</g>
		</g>
		<g>
			<path class="st5" d="M136.3,154.8c0,0.1,1.2,1.5,2.5,0.9c1.4-0.5,1.3-2.3,1.3-2.4c0-0.2,0.1-0.3,0.3-0.3c0.2,0,0.3,0.1,0.3,0.3
				c0,0.1,0.1,2.3-1.7,2.9c-1.8,0.7-3.1-1-3.2-1.1c-0.1-0.1-0.1-0.3,0-0.4C136,154.7,136.2,154.7,136.3,154.8z"/>
		</g>
	</g>
</g>
<g>
	<path class="st9" d="M53.1,105.3c0,0,10.6,4.9,11.2,12.2c0.8,1.4,1.1,2.7,1.1,2.7c4.6-1.6,7.9,2.4,7.9,2.4c0.7-4,5.8-3.8,6.8-3.8
		c0.4-1.4,2-3.4,2.7-4.1c1.1-1.1,2.7-1.7,4-1.9c-0.1-1,0.1-1.9,0.5-2.6c1.7-2.8,7.9-5.6,7.9-5.6c3.5-3.6,10.4,6.7,5.6,13.9
		c-2.5,3.8-5.7,4-8.1,3.4c-0.4,0.6-0.8,1.2-1.4,1.7c-2.3,2.1-6.5,0.8-8.4,0.6c-4.5,6.3-9.2,3-9.2,3c-8.7,1.9-11.7-5.1-11.7-5.1
		c-1-0.5-1.7-1.2-2.1-2C56.1,120,51.9,117.5,53.1,105.3z"/>
	<g>
		<g>
			<path class="st2" d="M160,87.4c0,0,3.2,16.2,4.3,21.6c1.1,5.3-1.8,14.1-11.5,18.4c-9.7,4.4-33,5.8-40-0.4
				c-5.4-4.8-7.5-8.3-7.5-8.3s-5.9,1.7-9.7-4.8c-3.7-6.2,0.7-11.9,6.3-13.2c0.2-0.1,0.9-0.2,0.7-0.1c-0.7,0.1-6.3-17.6,5.4-23.2
				C119.7,71.8,152.2,60.1,160,87.4z"/>
			<path class="st10" d="M113.6,123.2c-2.8-5.2-4.1-9.1-5.5-14.8c-2.6-10.7,3.1-20.5,13-23.2c7.7-2.1,13.7,5,28.5,5.5
				c7.2,0.3,8.5-6.2,10-2.5c1.2,2.8,2.1,9.5,3.1,12.5c-1.3-6.3-2.6-13.2-2.6-13.2c-7.8-27.3-40.3-15.6-52-10.1
				c-11.7,5.6-6.1,23.3-5.4,23.2c-0.1,0-0.5,0.1-0.7,0.1c-5.7,1.3-10,7-6.3,13.2c3.8,6.5,9.7,4.8,9.7,4.8s2.8,2.8,7.5,8.3
				c1.2,1.4,4.6,3,7.7,3.4C118.2,128.6,115.1,125.8,113.6,123.2z"/>
		</g>
		<path class="st3" d="M157.8,108.8c0,0-16.3,13.9-34.5,0.4c0,0,0-0.8,2-2.5c0,0-3.3,0.2-4.7,3.5c-1.4,3.3-0.4,4.4-0.4,4.4
			s1.3-4.6,2.3-3.8C123.6,111.8,139.2,143.2,157.8,108.8z"/>
		<g>
			<path class="st11" d="M124.4,104.3c1.3-0.5,2.9-0.7,4-0.2c0.3-0.7,0.3-1.7,0-2.6c-0.5-1.8-2-3-3.3-2.6c-1.3,0.4-1.9,2.2-1.4,4
				C123.9,103.5,124.1,104,124.4,104.3z"/>
			
				<ellipse transform="matrix(0.9603 -0.2788 0.2788 0.9603 -23.232 39.3974)" class="st7" cx="126.9" cy="101.4" rx="1.2" ry="1.7"/>
			<g>
				
					<ellipse transform="matrix(2.324076e-02 -0.9997 0.9997 2.324076e-02 15.3754 232.2556)" class="st12" cx="126.5" cy="108.3" rx="4.1" ry="7.4"/>
				<path class="st3" d="M119,106.9c0,0,6.1-4.5,13.8-0.7C132.8,106.2,127.9,99.8,119,106.9z"/>
			</g>
		</g>
		<g>
			<g>
				<path class="st11" d="M153.4,98.9c-1.3,0.1-2.6,0.6-3.4,1.6c-0.5-0.5-0.9-1.3-1-2.2c-0.3-1.8,0.5-3.5,1.7-3.7
					c1.2-0.2,2.4,1.1,2.7,2.9C153.5,97.9,153.5,98.4,153.4,98.9z"/>
				<path class="st7" d="M150.8,96.9c0.1,0.9,0.7,1.5,1.3,1.4c0.6-0.1,0.9-0.9,0.8-1.8c-0.1-0.9-0.7-1.5-1.3-1.4
					C151.1,95.2,150.7,96,150.8,96.9z"/>
			</g>
			<g>
				<path class="st12" d="M148,105.5c0.9,2,4.7,2.2,8.1,0.4c3.3-1.8,4.6-4,3.7-6c-0.9-2-4.9-2.6-7.3-1.2
					C149.1,100.5,147.1,103.5,148,105.5z"/>
				<path class="st3" d="M158.3,98.6c0,0-6.2-1-10.8,5.8C147.5,104.4,150.9,95.3,158.3,98.6z"/>
			</g>
		</g>
		<path class="st13" d="M101.8,107.7c-2-1.4-1.6,5.3-0.9,6.1c1.2,1.5,4.1,1.5,4.6,0C106,112,103.9,109.2,101.8,107.7z"/>
		<path class="st14" d="M160.1,89.7c0,0,3.7,1,5,5c1.3,4,0.2,8.9-1.5,10.8C163.6,105.5,160.4,92.8,160.1,89.7z"/>
		<path class="st7" d="M155.7,110.8c0,0-13.5,11.7-31,0.5c0,0,2.4,7.2,9.1,10.9C140.5,125.8,148.7,124.9,155.7,110.8z"/>
	</g>
	<path class="st9" d="M125,64.4c27.9-1.6,34.3,9,35.8,14.9c4.5-0.3,8.2-0.8,10.2-1.7c0,0-6.9,11.6-19.9,12.1
		c-1.3,0.1-2.8,0.1-4.5-0.1c-7.8-0.9-20.9-11.9-29.9-5.4c-12,8.7-11.9,14.7-14.1,16.3c0,0-8.7,1.9-8.1,9c0.6,7.1,9.1,10.2,10.8,9.2
		l2.5,3c0,0-8.4,0.3-13.6-9.7C89,101.9,86.7,66.6,125,64.4z"/>
	<path class="st15" d="M167.4,70.3c0,0-1.6,16-25.8,10.7c-24.2-5.4-19-7.8-19-7.8S161.5,79,167.4,70.3z"/>
	<g>
		<polygon class="st16" points="58.6,127.3 62.3,122.8 66.1,120.1 71.3,117.7 67.1,112 63.1,116.3 59.5,118.9 54.5,121.6 		"/>
		<rect x="60.4" y="116.9" transform="matrix(0.8074 -0.59 0.59 0.8074 -58.389 60.003)" class="st17" width="4.6" height="5"/>
	</g>
</g>
<path class="st0" d="M194,139c1.6,0.9,3.2,1.7,4.9,2.4c0.9,0.4,1.7,0.7,2.6,1.1c0.2,0.1,0.7,0.5,0.7,0.6c0.2,0,0.2,0.4,0,0.4
	c-0.4,0-0.5,0.2-1,0c-0.9-0.3-1.8-0.7-2.8-1c-1.7-0.7-3.7-1.4-5.1-2.6C192.9,139.4,193.5,138.7,194,139z"/>
<g>
	<path class="st18" d="M8.3,0.2c0,0,22.3,18.1,55.2,13.6c0,0-10.7,14.4-0.4,68.2c0,0-42.7-29.3-63.1-33.2C0.1,48.7,10,11.9,8.3,0.2z
		"/>
	<path class="st0" d="M61.5,16c0,0-22.1,8.9-51.2-11.2l18.1,34.4C28.4,39.2,40.7,36.4,61.5,16z"/>
	<g>
		<path class="st18" d="M63.3,81.9c0.4,0.7,1.1,1.3,1.7,1.9c0.6,0.7,1.2,1.3,1.8,2.3c0.9,1.9,1.2,3.7,1.3,5.6
			c0.3,3.7-0.2,7.3,0.1,10.6c0.1,1.6,0.4,3.1,1,4.7c0.5,1.5,1.3,2.9,2.4,4.1c1.1,1.2,2.5,2,4.2,2.5c1.6,0.5,3.4,0.6,5.1,0.5
			c3.5-0.1,7-1,10.5-1.7c0.9-0.2,1.8-0.3,2.7-0.5c0.9-0.1,1.8-0.3,2.8-0.4c1.9-0.1,3.8-0.1,5.7,0.2c1.9,0.3,3.8,0.7,5.6,1.6
			c1.8,0.9,3.4,2.1,4.7,3.7c2.7,3,3.8,6.9,3.8,10.6l-0.4,0.1c-1.7-3.2-3.5-6.1-5.9-8.1c-2.4-2-5.3-3.2-8.5-4c-1.6-0.4-3.3-0.6-5-0.7
			c-0.9-0.1-1.7-0.2-2.6-0.2c-0.9,0-1.7,0-2.6,0c-3.5,0.1-7.1,0.5-10.8,0.6c-1.8,0-3.7,0-5.5-0.3c-1.8-0.3-3.7-1-5.3-2.2
			c-0.8-0.6-1.5-1.3-2.2-2c-0.6-0.8-1.2-1.6-1.6-2.5c-0.9-1.7-1.4-3.8-1.6-5.7c-0.3-3.9,0.5-7.4,0.7-10.8c0.1-0.9,0-1.7,0-2.5
			c0-0.4-0.1-0.8-0.1-1.2c-0.1-0.4-0.1-0.8-0.2-1.2c-0.2-0.7-0.7-1.5-1.1-2.2c-0.4-0.8-0.9-1.6-1.1-2.5L63.3,81.9z"/>
	</g>
	<g>
		<path class="st0" d="M63.1,81.8c2.3-0.3,4.6,0.8,6.3,2.2c1.8,1.4,3.2,3.2,4.4,5.2c1.1,2,2,4.1,2.2,6.6c0.1,2.4-0.3,4.6-0.8,6.7
			c-1.1,4.2-2.7,8.2-3.4,12.3c-0.7,4.1-0.7,8.4-0.1,12.4c0.6,4.1,1.6,8,3.3,11.6c1.7,3.6,4.2,6.6,7.2,9.1c3,2.5,6.6,4.3,10.5,5.4
			c1.9,0.6,3.9,0.9,6,1.1c2,0.1,4.1,0.1,6.1-0.5l0.2,0.4c-1.8,1.2-4,1.8-6.2,2c-2.2,0.3-4.4,0.2-6.6-0.1c-4.4-0.6-8.7-2.3-12.4-5.1
			c-1.8-1.4-3.4-3-4.8-4.8c-1.3-1.8-2.5-3.8-3.3-5.9c-1.7-4.2-2.5-8.6-2.3-13c0.1-4.4,0.8-8.6,1.5-12.8c0.8-4.2,1.6-8.4,1.8-12.5
			c0.1-1,0.1-2,0.1-3c0-1,0-2-0.1-2.9c-0.2-1.8-0.8-3.7-1.6-5.4c-0.8-1.8-1.8-3.5-3.1-5c-1.3-1.5-2.8-2.8-4.8-3.4L63.1,81.8z"/>
	</g>
	<path class="st0" d="M28.5,39.2c0,0-4.6,4.6-25.1,9c0,0,20.1,4.8,53.6,28.1C57,76.3,40.3,58.1,28.5,39.2z"/>
	<path class="st19" d="M0.1,48.7c0,0,36.1-4.4,63.5-35"/>
	<path class="st19" d="M8.3,0.2c0,0,16.5,44.6,54.8,81.8"/>
</g>
</svg>
