<svg id="Artboard_1" xmlns="http://www.w3.org/2000/svg" viewBox="0 0 427.2 68.3"><style>.st0{fill:#F8FAFB;} .st1{fill:#FFFFFF;}</style><path class="st0" d="M265.9 233.7c-3.7 0-7.2.5-10.5 1.5-1.8-19.5-18.2-34.9-38.2-34.9-20 0-36.5 15.3-38.2 34.9-3.4-1-7-1.5-10.7-1.5-21.2 0-38.4 17.2-38.4 38.4s17.2 38.4 38.4 38.4H266c21.2 0 38.4-17.2 38.4-38.4-.1-21.2-17.3-38.4-38.5-38.4z"/><path class="st1" d="M405 24c-2.1 0-4.1.3-6.1.9-1-11.3-10.5-20.1-22.1-20.1-11.6 0-21 8.8-22.1 20.1-2-.6-4-.9-6.2-.9-12.2 0-22.2 9.9-22.2 22.2 0 12.2 9.9 22.2 22.2 22.2H405c12.2 0 22.2-9.9 22.2-22.2 0-12.3-9.9-22.2-22.2-22.2z"/><path class="st0" d="M71.3 17.5c-1.9 0-3.8.3-5.5.8C64.9 8 56.3 0 45.8 0s-19.1 8-20 18.3c-1.8-.5-3.7-.8-5.6-.8C9 17.5 0 26.5 0 37.6c0 11.1 9 20.1 20.1 20.1h51.2c11.1 0 20.1-9 20.1-20.1 0-11.1-9-20.1-20.1-20.1z"/></svg>