<svg id="Layer_1" xmlns="http://www.w3.org/2000/svg" viewBox="0 0 353.3 449.2"><style>.st0{fill:#003D7A;stroke:#003D7A;stroke-miterlimit:10;}</style><path class="st0" d="M176.3 384.7H19.8C6.5 384.7 1 378.8.5 365.5.3 357.2 3 351.3 9.4 346c19-15.9 28.2-37.5 33.2-61.1 4.9-22.8 5.7-45.9 6-69.1.2-16.5-.9-33 2.8-49.3 8.9-39.4 31.3-68.5 66.8-87.6 10.7-5.8 13.1-10.2 11.2-22.1-3-19.4 3.4-35.4 19.2-46.8S181.8-2.6 199 6.6s25.4 24.3 25.4 43.8c0 3-.6 6-1.1 8.9-1.4 8.8 1.5 14.5 9.8 18.6 17.2 8.7 32 20.5 43.9 35.6 18 22.9 26.8 49.1 27.5 78.2.7 25.1 1.3 50.3 3.2 75.4 1.5 19.4 6.7 38 16.4 55.1 5.5 9.7 12.5 18.1 21.1 25.2 7.6 6.3 10.1 21.2 4.9 29.6-3.5 5.6-8.8 7.7-15.3 7.7-31.8-.1-63.7 0-95.5 0h-63zm.1-255.8h2.5c10.1 0 17.2-6.7 17.3-16.1.1-9-7.2-16-16.9-16-5.3 0-10.7.3-15.9.9-41.5 4.9-77.4 40.3-81.8 81.7-1.6 14.8-.9 29.9-1.3 44.9-1 36.6-3.8 72.8-19.7 106.7-2.9 6.2-1.2 12.1 3.5 17 8.1 8.5 21.2 5.7 26.6-5.7 10.8-22.8 16.9-47.1 18.7-72.1 1.9-25.9 2.6-51.9 3.1-77.8.7-35.1 28.8-63.4 63.9-63.5zm.2-96.2c-8.9 0-16.1 7.2-16.1 16.2.1 8.7 7.1 15.8 15.8 16 9 .1 16.3-7 16.3-15.9.1-9.1-7.1-16.3-16-16.3zM115.1 401h122.7c-3.2 24.3-31 46.8-58.8 47.7-30 .8-58.3-20.1-63.9-47.7z"/></svg>