<svg id="Слой_1" xmlns="http://www.w3.org/2000/svg" viewBox="0 0 447.3 485.4"><style>.st0{opacity:0.6;fill:#C39955;} .st1{fill:#66A79F;} .st2{fill:#E8A328;} .st3{fill:#CB5726;} .st4{fill:#D69E7B;} .st5{fill:#AE6375;} .st6{fill:#BD7C93;} .st7{fill:#E697AA;} .st8{fill:#AB1543;} .st9{fill:#CC6D7D;} .st10{fill:#C41C47;} .st11{fill:#71BBDA;} .st12{fill:#90DEFD;} .st13{fill:#7BC6F1;} .st14{fill:#E2AD8D;} .st15{fill:#F1CCB5;} .st16{opacity:0.4;fill:#DE8080;} .st17{fill:#E1733A;} .st18{fill:#FFFFFF;} .st19{fill:#402D24;} .st20{fill:#DD9570;} .st21{fill:#D28473;} .st22{fill:#5B99AC;} .st23{fill:#7ECDE5;} .st24{fill:#EDBB98;} .st25{fill:#5EA1B9;} .st26{fill:#DB275F;} .st27{fill:#B64861;} .st28{fill:#DA808B;} .st29{fill:#62998F;} .st30{fill:#EAADB8;} .st31{fill:#77B8AF;} .st32{fill:#93D5D1;} .st33{fill:#F2D0D8;} .st34{fill:#ECC3CB;} .st35{fill:#E393A6;} .st36{fill:#EDE6DC;} .st37{fill:#DF6684;} .st38{fill:#B4DFD6;} .st39{fill:#95D3CE;} .st40{fill:#E9A5BB;} .st41{fill:#E27F93;} .st42{opacity:0.2;fill:#B4DFD6;} .st43{fill:#F5DD9A;} .st44{fill:#F1CB5C;} .st45{opacity:0.2;fill:#95D3CE;}</style><path class="st0" d="M311.2 466.3c-7.2-12.1-55.2-7.5-71.4-7.9-40-1.1-80.1-.9-120.1-.3-15.7.2-79.8 3.1-94.7 3.6-29.7.9-36.4 13.6-1 16.8 40.6 3.7 85 6.5 126.2 6.6 39.4.1 80.4 1.4 119.5-2 13.8-1.2 47.4-5.8 41.7-16.5-.1-.1-.2-.2-.2-.3z"/><path class="st1" d="M352.4 148.6c-35.7 12.8-82 23.2-101.6 59.3-.1.1-.1.3-.2.4 3.4-9.9 7.9-19.4 13.7-28.2 22.3-34.1 58-55.8 86.1-84.5 1.1-1.1-.6-2.8-1.7-1.7-28.8 29.4-64.6 51.6-87.5 86.5-7 10.6-12 22.3-15.5 34.6.7-9.2 1.8-18.4 3.6-27.6 3.4-17.8 9.1-34.2 18.3-49.8 8.3-14.1 18-27.3 24.8-42.3.6-1.4-1.4-2.6-2-1.2-7.1 15.5-17.2 29.3-25.8 44-9.3 15.8-14.5 32.8-18 50.8-2.4 12.8-3.7 25.7-3.9 38.7-8 27.7-5.8 58.8-5.8 86.8 0 1.5 2.4 1.5 2.4 0 0-16.7-.7-34.3.4-51.5.1 11.2 1.1 22.3 2.8 33 .2 1.5 2.5.9 2.3-.6-2.7-17-3.6-34.7-1.8-52.1.9 18.9 4 37.7 8.9 55.9.4 1.5 2.7.8 2.3-.6-6.2-22.9-9.3-46.5-9-70 1.8-6.2 4-12.2 6.9-18 8.8-17.8 25.2-28.8 42.5-37.4 18.7-9.2 38.8-15.1 58.4-22.2 1.5-.5.9-2.8-.6-2.3z"/><path class="st2" d="M340.3 140.9c.8 12.2 5.8 16.9 15.4 19.8 2.4-5.5 6.3-10 8.8-14.8l-10.2-3.9c-5.4-2.1-8.3-3-14-1.1z"/><path class="st3" d="M225.8 75c-11.8-4.8-26.1-5.6-36.1 3.5-11.9 10.8.2 22.2-6.5 32.8l40 26.7c0 1.1.4-1 .6-1.6 5.7-13.4 27.4-10.9 25.9-30.6-1-14.1-11.3-25.6-23.9-30.8z"/><path class="st1" d="M363 79.9c-3.8 2.8-10.6 1.4-15.6 1.7-3.3 19.4 25.3 28.5 22.6 1.5l-7-3.2z"/><path class="st4" d="M142.8 378.5l6.3 33.3 15.3-1.9-1.5-36.5z"/><path class="st5" d="M79.9 271.2c4-4.9 13.8-4.6 18.7-8.1l.1-.1c-1.1-.7-2.1-1.4-3-2.2-6.9 4-17.3 2.9-20.4 11.7-.2.7-.1 1.2.3 1.6-.7 1.5.8 3.6 2.3 2.4 9.4-7.1 22.7-1.5 32.3-8.8-1-.7-2-1.5-3-2.2-7.9 5.4-18.7 2.2-27.3 5.7z"/><path class="st5" d="M75.6 275.2c-2.2.6-1.3 4 .9 3.4 10.3-2.8 19.9 4.1 30.3 1.4-.5-1.1-1-2.2-1.6-3.3-9.9 2.2-19.4-4.3-29.6-1.5z"/><path class="st6" d="M70.6 279.2c-1.9 6.7 1 9.2 6.8 11.9 4.4 2 12.6 5.9 17.3 3.8l2-13.7c-5.1-2.5-9.3-5.9-14.6-8.1-6.5-2.7-9.6-.8-11.5 6.1z"/><path class="st4" d="M92.6 273.7s-14.1-3.5-15.7 9c-1 7.8 5.4 16.8 13.7 14.1-2.5-4.1-2-9.5 2.3-12.1 2.2-1.4 9.8.8 12.2.8 2.4 0 16.9-1.2 31.8-21.6L124 250.2s-7.8 25.9-31.4 23.5z"/><path class="st7" d="M251.1 433c-10.2-3.1-139.3 5.5-139.3 5.5s.8 6.3 6.7 11.4c5.9 5.1 112.6-3.9 133.4-7.1 20.8-3.1 9.4-6.6-.8-9.8z"/><path class="st8" d="M213.4 225.1c-11.8 6.2-1.2 27.1-1.2 27.1 6.2 7.9 13.8.9 11.2-14.7-2.7-15.6-10-12.4-10-12.4z"/><path class="st9" d="M163.6 435.4l-18 3.9c-1.8-1.1-11.6-1.4-11.8 3.1-.3 5.1 22.3 2.3 24.9 2 3.9-.4 11.4-2.5 15.4-4 13.1-5-4.7-6.3-10.5-5z"/><path class="st8" d="M138.3 225.4c-5.9 6.5-14.1 20.6-16.8 22.1 0 0 3.2 5.6 11.5 10.3l15.3-33.3s-4.1-5.6-10 .9z"/><path class="st10" d="M196.9 260.1s9.1-28-2.4-30.9l-12.5-3.3s-12.6-1.4-20.5 6c0 0-5.3 3.5-10.3 1.2 0 0-1.7-3 2.6-8.7 0 0-9.9-1.3-19.6 28.7 0 0-7.1 51.5 2.6 62.7 0 0 60.6-2.4 72.1-13.5.1-.1-16.7-15.7-12-42.2z"/><path class="st4" d="M153.8 224.3s-6.3 7.1-1.2 9c5.1 2 12.1-4 16.1-5.5 3.1-1.2 13.3-2 13.3-2l.4-5.9-27.9-2.4-.7 6.8z"/><path class="st11" d="M184.3 97.4c-.6 5.3-1.2 11.8-1.2 11.8l45.9 23 7.7-7.1c-19.5-32.4-52.4-27.7-52.4-27.7z"/><path class="st12" d="M224.8 128.3l7.1-3.3s12.4-8.2-4.1-25.3c0 0-24.7 9-3 28.6zM237.8 128.6l-2.4 8.8c24.6 11.9 28.2-11.2 28.2-11.2-15.2-9.4-25.8 2.4-25.8 2.4z"/><path class="st13" d="M224.8 128.3l12.9 11 2.5-12.5-5.9-5.3z"/><path class="st14" d="M222.4 147.6c-2.8-3.1-5.3-6.4-8.7-8.8-4.6-3.2-10.1-5.4-15-8.2-15.9-8.9-35.1-15.9-52.4-7.1-2.2 1.1-13.2 5.6-12.6 8.8 0 0-13 14.1-18.5 20 .2.4.3.9-.1 1.4 0 .1-.1.2-.1.4-.4.8-.9 1.5-1.5 2.3.8 2.6-.1 6.7-.3 8.9-.4 4.5-1.1 9.1-1 13.6.6 26.5 31.5 39.3 53.6 42.7 6.9 1.1 14.3 1.3 21.3.8 14-1.1 29-5.3 37.5-17.4 6-8.4 10.2-19.3 10-29.8-.1-5.1-1-10.3-2.9-15-2-5.1-5.7-8.6-9.3-12.6z"/><path class="st15" d="M197.5 178.7c-6.2-2.6-13.3-5.8-19.1-9.3v.1c0 1.2-1.1 2.5-2.4 2.4-7.5-1-13.2-7.5-16.3-14.1-3.5-7.6-3-15.5-3-23.5-16.9 6.4-37.8 17.8-42 27.1-1.7 8.5-1.3 16.9 1.4 25.1 4 12.4 14.8 22 26.8 26.2 17.4 6.2 38.7 9.1 50.1-7.6 3.3-4.8 6.6-10.9 8.2-16.5.9-2.9 1.1-5.3 0-7.1-.7-1.1-1.9-2.1-3.7-2.8z"/><path class="st16" d="M114.5 176.8c1.2 6.9 11.9 12.5 14.6 3.6.9-3.2.2-7-2.2-9.5-4.9-4.9-13.6-1.2-12.4 5.9z"/><path class="st17" d="M224.8 128.3c-28.1-18.9-58.8-32.8-89.7-8.6-5.4 4.2-9.9 10.4-14.4 15.6-3.9 4.4-6.9 21-7.8 22.8 14.1-16.6 28.7-18.9 46.1-27.7-3 15.2 2.6 29.6 16.3 37.3-.2-1.3.4-3.1.2-4.4.3 2.2 11 5.4 12.9 6.2 4.7 2 8.5 4.6 12.5 7.6 1.7-2.3 5.1-3.4 7.6-4.4 7.9-3 16.4 3.2 13.1 12-2.2 5.7-9 12.6-15.7 10.8 2.3.6 10.6 10.3 8.1 19.5 33.7-2.3 39.9-53 23.6-74.6-3.4-4.5-7.7-8.7-12.8-12.1zM112.9 158.1c0 .1-.1.1-.1.2 0 0 0-.1.1-.2z"/><path class="st18" d="M128.6 158.1c-4.5 1.2-8.8 6.6-6.9 11.1 2.8 6.7 10.9 2.6 13.7-1.7 3.3-5.3.6-11.5-6.8-9.4z"/><path class="st19" d="M133.3 160.2c-2.7-.1-6.2 2.9-6.5 7.2-.2 2.8.8 4.3 2.3 4.8 2.5-.8 5-2.8 6.3-4.8.5-.8.9-1.8 1.1-2.7-.1-3.1-1.5-4.4-3.2-4.5z"/><path class="st16" d="M164.7 183.2c-1.9-1.5-4.3-2.5-6.6-2.7-3.6-.4-9.4 2.3-10.3 6.2-1.6 6.5 7.3 13.1 13.1 13.1 7.7 0 9.9-7.7 6.4-13.7-.7-1.1-1.6-2.1-2.6-2.9z"/><path class="st18" d="M153.9 176.3c-1.2 9 12.7 13.4 17.9 8.2 1.8-1.8 3-4.8 3-7.6 0-.8-.1-1.6-.3-2.3-2.9-10.3-19.1-9.2-20.6 1.7z"/><path class="st19" d="M166.6 171.5c-2.4-.3-4.6.6-6 3.2-4 7.7 5.5 13.9 10.8 7.4 4.2-5-.3-9.9-4.8-10.6z"/><path class="st20" d="M143.6 174.3c-1.8-1.2-4.5.5-6.4.8-1.6.2-3.3-.4-4.6.7-2.9 2.2-1.6 6.9.7 8.8 4 3.4 7.6 2.1 10.3-3.5.7-1.4 1.8-4.5.8-6-.3-.4-.6-.6-.8-.8z"/><path class="st21" d="M147.3 194.4c-.7-.1-1.1.4-1.2.9-.2-.2-.5-.3-.9-.2-7.1 1.9-16.4 1.4-18.9-6.9-.1-.3-.3-.6-.6-.7.1-.1.1-.3.1-.5 0-.4 0-.8-.3-1.1-.4-.4-.9-.5-1.4-.3-.2.1-.4.2-.5.4-.8.6-.4 1.7.4 2-.1.2-.1.4 0 .7 1.5 5.1 5.6 8.4 10.7 9.4 2.4.5 4.7.5 7.1.1 1.2-.2 4-.8 5-1.3.4-.4 3.2-2.2.5-2.5z"/><path class="st18" d="M136.9 177.5c-3.9-1-.9 4.6 1.1 4 .9-.3 1.1-.9 1-1.5-.1-1.1-1.1-2.3-2.1-2.5z"/><path class="st3" d="M224.8 128.3c-1.7-1.1-3.4-2.3-5.2-3.4 7.6 4.8 14.3 17.1 15.8 28.9 4.8 38.9-18.9 49.8-22 51.7 1.1 3 1.6 6.3.7 9.6 33.7-2.3 39.9-53 23.6-74.6-3.5-4.6-7.8-8.8-12.9-12.2z"/><path class="st8" d="M189.8 228.3c-16.5-2.9-29.7 24.7-29.7 24.7s-13.8-3.5-19.1-5.6c-5.3-2.1 12.8-23.1 12.8-23.1-9.5.1-20.5 27-20.5 27l13.5 61.8 35.3 5.3 26.8-16.2c-13.8 4.1-38.5 4.4-38.5 4.4-17.6-63 19.4-78.3 19.4-78.3z"/><path class="st3" d="M168.9 119.4c-7.4 5.6-9.9 11-9.9 11-5.5 27.2 16.3 37.3 16.3 37.3-28.4-27.1-6.4-48.3-6.4-48.3zM189.8 169.8z"/><path class="st3" d="M173.7 150.1s-9.1 14.4 16.1 19.7c-1.2-.3-17.6-4.4-16.1-19.7z"/><path class="st11" d="M163.6 258s-22.8-7.1-29.8-10.2c0 0-7.8 15.7-5.1 58.5 0 0 17.3 5.9 37.7 2.7 0 0-8.2-34.1-2.8-51z"/><path class="st22" d="M165.6 257.7l-31.8-8.6 1.8.6 28.1 9.6c-6.7 20.8 2.7 51 2.7 51h2.4c-11.4-37-3.2-52.6-3.2-52.6z"/><path class="st12" d="M132.7 266.3s-3.9 26.7-.8 32.2c3.1 5.5 21.5 8.5 23.1 4.3 3.7-9.6-1.6-32.2-1.6-32.2l-20.7-4.3z"/><path class="st22" d="M150.7 304.7s13.7 3.9 2.7-34.1c0 0 6.3 34.5-2.7 34.1zM136.3 271.2c-1-.2-2-.4-2.9-.6-.7-.1-1.1 1-.3 1.1 1 .2 2 .4 2.9.6.8.2 1.1-.9.3-1.1zM141.7 272.2c-.9 0-1.9-.2-2.8-.4-.7-.1-1.1 1-.3 1.1 1 .2 2.1.4 3.1.4.7.1.7-1.1 0-1.1zM147 273.3c-.8 0-1.6-.4-2.4-.6-.7-.2-1 .9-.3 1.1.9.2 1.8.6 2.7.6.7.1.7-1 0-1.1z"/><path class="st22" d="M153.2 275c-1.1-.6-2.2-1-3.4-1.1-.8 0-.8 1.2 0 1.2 1 0 1.9.4 2.8.9.6.4 1.2-.6.6-1z"/><path class="st23" d="M149.8 260.1l11.2 3.8s6.8-35.3 33.5-34.7l-11.5-3.8c.1 0-26.7-2.1-33.2 34.7z"/><path class="st24" d="M216.6 360.4l27.1.4 1.6-14.5-25.6-5.9z"/><path class="st22" d="M161 263.9h1.8c6.1-35.3 29-34.9 31.5-34.7-27.4-2.4-33.3 34.7-33.3 34.7zM194.3 229.2h0z"/><path class="st23" d="M129.8 254.8h5.6s7.8-27.5 18.4-30.5l-4.6-1.6s-10 0-19.4 32.1z"/><path class="st11" d="M206.3 326.6c10.6-17.7 2.6-24.4 2.6-24.4-33.3 12.4-80.2 4.1-80.2 4.1-.8 38 12 65.9 12 65.9l23-2.4 2.9-20.9c19.4 12.1 45 13.8 45 13.8 6.5-10.9 5-25.3 5-25.3-7.9-1.1-10.3-10.8-10.3-10.8z"/><path class="st25" d="M128.6 304.5s1.2 42.1 12.1 67.7l23-2.4 2.9-20.9c0 .1-31.8-9.6-38-44.4z"/><path class="st23" d="M212.5 334.8c-2.6 18.2-8.8 28-8.8 28l13.5 2.6c8.5-15 3.8-26.8 3.8-26.8l-8.5-3.8z"/><path class="st8" d="M195.7 270.4s.3-7.7 2.1-12.1h-16.2s5 7.4 14.1 12.1z"/><path class="st14" d="M236.9 215.4c-10.6 9.4-27.4 14.4-27.4 14.4-5.9 8.5 3.2 20.9 3.2 20.9 16.2-5.9 33.5-26.5 33.5-26.5-3.1-.9-9.3-8.8-9.3-8.8z"/><path class="st11" d="M137.2 366.6l2.4 13.5 25.6-2.4-.3-12.7c-10.1 1.9-27.7 1.6-27.7 1.6z"/><path class="st26" d="M213.4 225.1s-5.3.3-23.5 3.2c-18.2 2.9-15.9 25.9-8.2 30 7.7 4.1 34.4-3.2 34.4-3.2-12.1-18.2-2.7-30-2.7-30z"/><path class="st15" d="M257.3 203.9c-.8-1.5-1.9-2.8-3.6-3.6-3.2-1.5-11.4-1.2-14.2.9-2.6 2-2.7 3.6-3.1 6.5-.3 2-1.5 5 .8 6.6-1.9 2.4 1.3 7.4 3.5 9.1 2.3 1.9 7.7 2 10.4 1.1 6.3-2 8.2-10.9 7.4-16.6-.2-1.4-.6-2.8-1.2-4z"/><path class="st27" d="M88.7 294.1s24.3 12.6 45.9 17.7c0 0 .8-12.9 4.3-13.7l-43.2-15.7c.1 0-12.5.4-7 11.7z"/><path class="st17" d="M136.8 149.1c-2.9-1.8-6.1-1.6-9 0-1.3.7-.1 2.7 1.2 2 2.2-1.2 4.5-1.4 6.7 0 1.2.9 2.4-1.2 1.1-2z"/><path class="st28" d="M102.8 283.5c-7.2 5.3-7.1 15.3-2 18.8s8.6 4.3 11.4 3.5c0 0-1.6-11.4 6.7-15.7 0 .1-10.2-10.9-16.1-6.6z"/><path class="st29" d="M123.6 455.4c-4.1.5-1.4 9.5.1 11.8 2.2 3.5 6.1 6.1 10.1 6.7 10.1 1.6 20.4-8.7 18.5-18.1l-28.7-.4z"/><path class="st30" d="M107.1 283.9c-2.4-.3-4.6.4-5 2.5-.5 2.7 2.4 3.8 4.2 4.6 2.3 1 9.2 3.5 9.3-1.2.1-2.8-4.6-5.5-8.5-5.9z"/><path class="st29" d="M231.9 447.2l-20.8 3.5c-3.7 8.3-.9 19 10.2 20 5.4.5 9.4-2.2 11.3-7.4 1.2-3.4 1.6-7.3 1.3-11-.2-1.5-.8-6.2-2-5.1z"/><path class="st9" d="M220.1 445c-25.3 3.3-50.6 4.1-76 3.8-10.3-.1-23.8-2.1-30.7-10.6-4.5-5.4-5.5-12.5-6.8-19.2-3.9-19.5-4.3-38.9-2.7-58.7 1.5-18.2 4.6-36.5 8.4-54.4l-11.4-3.5c-3.9 15.8-7.3 32.4-8.8 48.6-1.9 20.1-4.9 40.6-1 60.6 2.4 12.2 2.4 24.2 11.6 33.8 9.8 10.3 25.1 13 38.7 13.4 8.9.3 17.8-.5 26.6-1.2 8.2-.6 16.5-1.5 24.7-2.5 71.4-9 73.8-7.5 70.2-15.7-14.2 2.2-28.6 3.8-42.8 5.6z"/><path class="st27" d="M123.6 457c31.8 11.4 137.7-11.4 137.7-11.4C146.4 464 123.6 457 123.6 457z"/><path class="st31" d="M156.6 452.5c-9.6-2.4-20.8 6.2-21.1 16.5-.7 20.7 30.7 21.8 33.9 2.6 1.7-10.1-4.9-17.1-12.8-19.1z"/><path class="st32" d="M160.6 452.5c-8.7-2.4-18.9 6.2-19.2 16.5-.6 20.7 27.9 21.8 30.8 2.6 1.5-10.1-4.5-17.1-11.6-19.1z"/><path class="st9" d="M159.7 475.8l-.8-13.7c-12-1.4-11.7 16.5.8 13.7z"/><path class="st7" d="M157.8 462.4c-4.9.1-6.6 6.4-5.5 9.7 1.5 4.3 7.5 5.4 10.1 1.4 2.3-3.3 1.3-11.2-4.6-11.1z"/><path class="st33" d="M162.5 466.2c-2.2-4.1-8.2-.1-5.4 3.4 2.3 2.8 7.1.1 5.4-3.2.1-.1 0-.2 0-.2z"/><path class="st31" d="M239 446.3c-9.6-2.4-20.8 6.2-21.1 16.5-.7 20.7 30.7 21.8 33.9 2.6 1.7-10.1-5-17.2-12.8-19.1z"/><path class="st32" d="M243 446.3c-8.7-2.4-18.9 6.2-19.2 16.5-.6 20.7 27.9 21.8 30.8 2.6 1.5-10.1-4.5-17.2-11.6-19.1z"/><path class="st9" d="M242.1 469.6l-.8-13.7c-12-1.4-11.7 16.4.8 13.7z"/><path class="st7" d="M240.2 456.1c-4.9.1-6.6 6.4-5.5 9.7 1.5 4.3 7.5 5.4 10.1 1.4 2.3-3.3 1.3-11.2-4.6-11.1z"/><path class="st33" d="M242.1 458.1c-3.3-.9-5 3-2.5 5.1 4 3.4 7.2-3.7 2.5-5.1z"/><path class="st7" d="M156.4 303.1c-2-1.3-8.2-4.1-11.1-4.9-4.6-1.2-9.4-2.3-12.5 1-2.2 2.3-3.9 10.5-2 13.3 2.6 3.6 11.5 5.6 15.1 7.1 4.7 1.9 9.1 1.8 11.3-1.2 4-5.2 4.7-11.5-.8-15.3z"/><path class="st34" d="M158.5 305.9c-4.2-6.1-12.6 8.9-6.8 13.9 4.8 4.1 9.7-8.7 7-13.4 0-.2-.1-.4-.2-.5z"/><path class="st9" d="M154.5 313.8c2.6 9 4.2 19.7 10.6 26.8 1-.7 1.9-1.4 2.8-2-6.3-6.6-7.7-17.3-10.1-25.7-.5-2.2-3.9-1.3-3.3.9z"/><path class="st10" d="M154.2 312.2l-.4 1.6s18.8 5.9 20.8 28.2l3.5-1.6c.1 0-1.1-23.9-23.9-28.2z"/><path class="st35" d="M193.6 323.3c-13-.7-24.5-13.2-38.2-13.3-2.3 0-2.3 3.5 0 3.5 14.4.1 25 12.3 38.3 13.1v-.3c0-.4-.1-1.7-.1-3z"/><path class="st4" d="M95 280.8c-1.2 0-5.7 6.6-5.8 7.6-.5 5.8 5.7 3.1 7.9.3 2.1-2.7 4.5-4 6.9-6.3-2.8-1.9-5.7-1.6-9-1.6z"/><path class="st36" d="M146 406.2c-.9 1.4 2.8 9.5 3.2 9.5 3.8.2 6.7 2.4 10.2 3.9 3.3 1.4 5.2 7 6.6 2.8 1.7-5 2.9-12-1.1-16.2-.5-.5-16.3-4.2-18.9 0zM237.1 344c-1.6 1.5-1.2 10.6-1.6 13-.9 4.6-1.5 8.3 4.4 7.6 2.4-.3 11.8-.8 12.5-2.8l-3.1-16.9c-2-.7-10.9-2.2-12.2-.9z"/><path class="st10" d="M148.7 415.4s3.5 6.3-7.8 8.2c-11.4 2-10.6 14.1-4.3 18 6.3 3.9 30.2-4.3 30.2-4.3 2.4-3.1 1.2-11.8 1.2-11.8-.8-13.7-19.3-10.1-19.3-10.1z"/><path class="st36" d="M148.7 419.7s-1.6 2.7-5.5 3.1c0 0 7.8 11 14.1 4.7 7.4-7.4-8.6-7.8-8.6-7.8z"/><path class="st10" d="M259.8 339.3c-2.8-.1-10 2.7-11.9 5.4 2.9 4.9 3.3 18.2 3.3 18.2.6 1.8 10 12.9 13.8 13.4 5 .6 12.2-1.4 13.3-7.1 1.1-5.6-6.2-12.7-8.8-17.2-2.2-3.9-5-12.6-9.7-12.7z"/><path class="st36" d="M263.3 359.3c-6.7-5.9-10.2 6.7-10.2 6.7l4.7 5.5c0-.1 10.7-7.6 5.5-12.2z"/><path class="st22" d="M172.6 311c-1.3.4-2.7.3-4 .3-.8 0-.8 1.2 0 1.2 1.4 0 2.9.1 4.3-.3.7-.3.4-1.4-.3-1.2zM180 310.7c-1.3.3-2.6.3-4 .3-.8 0-.8 1.2 0 1.2 1.4 0 2.9 0 4.3-.3.7-.2.4-1.3-.3-1.2zM187.6 309.9c-1.3.2-2.6.3-4 .3-.8 0-.8 1.2 0 1.2 1.4 0 2.9 0 4.3-.3.8-.3.5-1.4-.3-1.2zM195.1 308.4c-1.2.6-2.5.8-3.8.8-.8 0-.8 1.2 0 1.2 1.5 0 3-.3 4.4-1 .7-.3.1-1.3-.6-1zM201.3 306.7c-.8.5-1.7.8-2.6.8-.8 0-.8 1.2 0 1.2 1.2 0 2.2-.3 3.2-1 .6-.4 0-1.4-.6-1zM206.8 304.4c-.6.6-1.4 1-2.2 1-.8 0-.8 1.2 0 1.2 1.1 0 2.2-.6 3.1-1.3.5-.6-.4-1.4-.9-.9zM142.8 369.3h-3.5c-.8 0-.8 1.2 0 1.2h3.5c.7-.1.7-1.2 0-1.2zM148.3 369.3H146c-.8 0-.8 1.2 0 1.2h2.4c.7-.1.7-1.2-.1-1.2zM153.9 369.3h-2.4c-.8 0-.8 1.2 0 1.2h2.4c.8-.1.8-1.2 0-1.2zM158.9 369h-2.4c-.8 0-.8 1.2 0 1.2h2.4c.8 0 .8-1.2 0-1.2zM163.6 369h-2.4c-.8 0-.8 1.2 0 1.2h2.4c.8 0 .8-1.2 0-1.2zM213.4 338.4c0 .9 0 1.7-.3 2.5-.2.7.9 1 1.1.3.3-.9.3-1.9.3-2.8.1-.8-1.1-.8-1.1 0zM212.2 343.5c-.3 1-.6 2-.9 2.9-.2.7.9 1 1.1.3.3-1 .6-2 .9-2.9.3-.7-.8-1-1.1-.3zM210.5 349.7c-.3 1-.8 1.9-1.2 2.9-.2.7.9 1 1.1.3.3-1 .8-1.9 1.2-2.9.2-.7-.9-1-1.1-.3zM208.5 355.4c-.3.7-.3 1.4-.6 2.1-.3.7.7 1.3 1 .6.3-.7.3-1.4.6-2.1.3-.7-.7-1.3-1-.6z"/><path class="st37" d="M279.7 94c3.2 4.4 8.2 8.4 13.2 10.4 9.2 3.7 6.9-.5 8.8-8l-11-5.5c-3.5.5-8.4.1-11 3.1z"/><path class="st22" d="M206.6 360.6c-.3 1-.8 1.9-1.4 2.8-.4.6.6 1.2 1 .6.6-1 1.2-2 1.5-3.1.3-.7-.8-1-1.1-.3z"/><g><path class="st38" d="M439.9 18.1C420.8-10 373.3-3.6 355 24.7c-10.1 15.6-11 37.9 1 52.8 16 19.8 50.3 23 69.7 8.1 15.6-11.9 25.6-35.5 19.9-54.9-1.3-4.8-3.3-9-5.7-12.6z"/><path class="st39" d="M439.9 18.1C420.8-10 373.3-3.6 355 24.7c-6.3 9.7-9 21.9-7.3 33.4 1.3 2.7 2.9 5.3 4.8 7.7 16 19.8 50.3 23 69.7 8.1C436.4 63 446 42.5 443.3 24.3c-1-2.2-2.1-4.3-3.4-6.2z"/><path class="st18" d="M401.9 6.4c-4.6-4.1-16.3.5-12.7 7.2 3.8 7 20.5-.3 12.7-7.2z"/></g><g><path class="st40" d="M351.3 11.1c-3.9-3.1-7.9-5.4-12-7-31.7-12.1-67 20.4-65.8 54 .7 18.6 12.7 37.4 31.1 42.7 24.5 7 54.4-10 61.8-33.3 5.9-18.7.6-43.7-15.1-56.4z"/><path class="st41" d="M339.3 4.1c-31.7-12.1-67 20.4-65.8 54 .4 11.5 5.2 23.1 13.1 31.5 2.6 1.5 5.4 2.7 8.3 3.5 24.5 7 54.4-10 61.8-33.3 5.4-17 1.5-39.3-11.1-52.7-2-1.2-4.2-2.2-6.3-3z"/><path class="st18" d="M301.5 16.3c-6.1-.7-13.1 9.8-6.3 13.1 7.1 3.6 16.6-12 6.3-13.1z"/><path class="st42" d="M355 24.7c-10.1 15.6-11 37.9 1 52.8 1 1.2 2 2.3 3.1 3.4 3.2-4.1 5.7-8.7 7.2-13.5 4.8-15.2 2.2-34.6-7.4-48.1-1.3 1.8-2.7 3.5-3.9 5.4z"/></g><g><path class="st43" d="M439.9 87.9c-19.1-28.1-66.6-21.7-84.9 6.6-10.1 15.6-11 37.9 1 52.8 16 19.8 50.3 23 69.7 8.1 15.6-11.9 25.6-35.5 19.9-54.9-1.3-4.7-3.3-8.9-5.7-12.6z"/><path class="st44" d="M439.9 87.9c-19.1-28.1-66.6-21.7-84.9 6.6-6.3 9.7-9 21.9-7.3 33.4 1.3 2.7 2.9 5.3 4.8 7.7 16 19.8 50.3 23 69.7 8.1 14.2-10.8 23.7-31.3 21.1-49.5-1-2.3-2.1-4.4-3.4-6.3z"/><path class="st45" d="M363.5 84.6c17.6 13.2 45.5 13.8 62.3 1 2.3-1.8 4.5-3.8 6.5-6-18.8-15.3-50-11.8-68.8 5z"/><path class="st18" d="M401.9 76.3c-4.6-4.1-16.3.5-12.7 7.2 3.8 6.9 20.5-.4 12.7-7.2z"/></g></svg>