<svg id="Слой_1" xmlns="http://www.w3.org/2000/svg" viewBox="0 0 208.1 246"><style>.st0{fill:#B2AC0E;} .st1{opacity:0.6;fill:#C39955;} .st2{fill:#FFD8BA;} .st3{fill:#E0765C;} .st4{fill:#FFD047;} .st5{fill:#FF7A00;} .st6{fill:#C1AF8B;} .st7{fill:#FFFFDB;} .st8{fill:#F2D393;} .st9{fill:#BD3C11;} .st10{opacity:0.2;fill:#FFD8BA;} .st11{fill:#383838;} .st12{opacity:0.1;fill:#E0765C;} .st13{opacity:0.5;fill:#FFD8BA;} .st14{fill:#FFBA85;} .st15{fill:#C9572D;} .st16{fill:#F27EC4;} .st17{fill:#894B7D;} .st18{fill:#359470;} .st19{fill:none;stroke:#FFFFDB;stroke-miterlimit:10;}</style><path class="st0" d="M64.2 81.7c22 10.2 46.9 9.8 70.3 14.5 20.8 4.1 44.4 14.8 50.9 37.1h-.1c-3.1-5.3-5.9-10.7-9.9-15.5-3.8-4.4-8.4-8-13.4-11-9.9-5.9-21.4-8.5-32.6-10.5C107.6 92.6 84 92.8 63.7 83c-.8-.4-.3-1.7.5-1.3z"/><path class="st1" d="M113.9 233.1c-1.6-2.6-11.9-1.6-15.4-1.7-8.6-.2-17.3-.2-25.9-.1-3.4.1-17.2.7-20.4.8-6.4.2-7.9 2.9-.2 3.6 8.8.8 18.3 1.4 27.2 1.4 8.5 0 17.3.3 25.8-.4 2.9-.2 10.2-1.2 8.9-3.6 0 .1 0 .1 0 0zM207.9 241.2c-1.6-2.6-12.1-1.6-15.6-1.7-8.8-.2-17.5-.2-26.3-.1-3.4.1-17.5.7-20.8.8-6.5.2-8 3-.2 3.7 8.9.8 18.6 1.4 27.7 1.5 8.6 0 17.6.3 26.2-.4 2.9-.4 10.3-1.4 9-3.8z"/><path class="st2" d="M168.9 137.3s8.9 6.5 13.7 3.7c4.9-2.8 1.1-3.8 2.5-6.7 1.5-2.9 8.3-2.9 10.3 1.8s-12.6 26.5-33.4 10.1l6.9-8.9z"/><path class="st3" d="M193.8 137.4c-.9.6-1.9 1.1-2.8.4v.1c0 .2-.3.3-.4.3-.7-.2-.8-1.1-1.3-1.7-.5-.7-1.3-1.9-2.3-1-.8.7-.5 1.7-.4 2.6.1.9.6 1.8.7 2.7 0 .1-.1.2-.2.1-1.2-1.6-1.9-5.5-.4-6.3 1.1-.6 2.1-.3 3 .6.5.5 1 1.2 1.3 1.9h.1c.4.2.8.4 1.2.5.5 0 1.1-.3 1.5-.6.3-.3.4.1 0 .4z"/><path class="st2" d="M98 136.8s-10.6-2.6-14.1 1.8.5 4 .2 7.2-6.6 5.8-10.2 2.2c-3.6-3.6 1.6-29.3 27.1-22l-3 10.8z"/><path class="st3" d="M75 146.2c.6-.9 1.3-1.8 2.4-1.4 0 0 0-.1-.1-.1-.1-.2.1-.4.3-.4.8-.1 1.2.7 1.9 1.1.7.4 1.9 1.2 2.5.1.4-1-.1-1.7-.6-2.5s-1.3-1.4-1.6-2.3c0-.1 0-.2.1-.1 1.7 1 3.9 4.4 2.8 5.7-.8 1-1.8 1-3 .6-.6-.3-1.4-.7-1.9-1.3h-.1c-.5 0-.9-.1-1.3 0-.5.2-.9.6-1.2 1.1-.3.2-.5-.1-.2-.5z"/><path class="st4" d="M113.8 124.1L98 121.9l-3 20.5 18.6 1.5c.1 0 8.4-16.7.2-19.8z"/><path class="st2" d="M135.7 196.4c7.8-.3 15.6-.7 23.4-.9 2.2 0 4.4-.1 6.5-.1 16.5 13.6 4 36 4 36h-6.5c5.4-20.1-17.4-31.2-27.4-35z"/><path class="st4" d="M163.4 230.4s-3.1 3.1-2.7 7.1c0 0 14.4 8.1 21 8.5 0 0-5.9-10.1-11.5-15l-6.8-.6z"/><path class="st5" d="M173.8 233.9c.8-.4 2.2-.2 2.4.8 0 .1 0 .2-.1.2-.5.3-1.1.4-1.6.7-.9.4-1.4 1.2-1.9 2-.7.9-2.1-.1-1.6-1.1.5-1.1 1.6-2.1 2.8-2.6zM174.3 239.2c.6-.6 1.4-1.1 2.2-1.4.4-.1 2-.4 1.9.4-.1.5-.6.9-1 1.3-.5.4-.9.7-1.4 1.2-.5.4-1.1.5-1.6.1-.5-.5-.5-1.2-.1-1.6z"/><path class="st2" d="M105.9 174.8c2.5 7.4 5.1 14.8 7.4 22.2.7 2.1 1.3 4.2 1.9 6.3-8.4 19.6-32.5 15.6-32.5 15.6L80 212c20.8-.6 25-26.6 25.9-37.2z"/><path class="st4" d="M82.1 212.1s-3.9-2.1-7.6-.6c0 0-3.7 16.1-2.2 22.6 0 0 8-8.5 11.2-15.3l-1.4-6.7z"/><path class="st5" d="M82.5 221.9c.6.7.8 2-.1 2.5h-.3c-.4-.4-.7-.9-1.1-1.3-.7-.7-1.6-1-2.5-1.3-1-.4-.5-2.1.6-1.9 1.4.3 2.6 1 3.4 2zM77.7 223.9c.8.4 1.5 1 1.9 1.8.2.3.9 1.8.1 1.9-.6.1-1.1-.3-1.5-.6-.5-.3-1-.7-1.5-1-.5-.3-.8-.9-.6-1.5.3-.7 1-.9 1.6-.6z"/><path class="st4" d="M183.4 202.8c-.2-.8-.7-1.4-1.3-1.8l-2.4-6.3-87.4-1.4-4.2 6.8c-.8.6-1.3 1.6-1.3 2.6 0 1.8 1.5 3.2 3.3 3.2 1.2 0 2.2-.6 2.7-1.6 0 1.8 1.5 3.3 3.3 3.3 1.5 0 2.8-1 3.1-2.4v.5c0 1.8 1.5 3.3 3.3 3.3 1.7 0 3.1-1.3 3.2-2.9h.2c-.1.4-.2.8-.2 1.2 0 1.8 1.5 3.3 3.3 3.3 1.8 0 3.3-1.5 3.3-3.3v-.1h.2c-.1.2-.1.3-.1.5-.3 1.8.9 3.5 2.7 3.7 1.8.3 3.5-.9 3.7-2.7v-.7h.1c-.1.5-.1.9 0 1.4.4 1.8 2.1 2.9 3.9 2.5 1.1-.2 2-1.1 2.4-2.1.3 1.8 2.1 2.9 3.8 2.6 1.5-.3 2.5-1.5 2.6-3v.5c.3 1.8 2.1 2.9 3.8 2.6 1.5-.3 2.6-1.7 2.6-3.2h.1v.9c.3 1.8 2.1 2.9 3.8 2.6 1.7-.3 2.8-1.9 2.6-3.5h.1c.1 1.8 1.6 3.2 3.4 3.2 1.8-.1 3.2-1.6 3.2-3.4v-.2h.3c0 .4.1.8.3 1.3.8 1.6 2.7 2.3 4.3 1.6 1.1-.5 1.7-1.5 1.9-2.5.7 1.6 2.7 2.4 4.3 1.7 1.4-.6 2.1-2.1 1.9-3.5 0 .2.1.3.1.4.7 1.6 2.7 2.4 4.3 1.7 1.5-.7 2.2-2.3 1.8-3.8h.2c0 .3.1.7.2 1 .7 1.6 2.7 2.4 4.3 1.7 1.6-.7 2.4-2.7 1.7-4.3 0-.1-.1-.2-.2-.3.1 0 .2-.1.3-.1 0 .2 0 .5.1.7.4 1.7 2.2 2.8 4 2.3 1.8-.5 2.8-2.3 2.4-4zm-84.1 2v-.1c.1 0 0 0 0 .1z"/><path class="st5" d="M156.3 124.5l-42.5-.4s-1.2 24.5-8.8 36.9c-7.6 12.4-19.7 38.9-19.7 38.9s70.2 15.2 104.7-3.6c0 0-20.9-26.1-26.9-38.9-6-12.8-6.8-32.9-6.8-32.9z"/><path class="st4" d="M151.1 124.9l-.4 8.7s-15.6 3.4-25.1.8l-1.5-9.7 27 .2zM156.3 124.5l14.8 11.5s-6.1 11-11 13.3c.1.1-6.1-17.5-3.8-24.8z"/><g><path class="st6" d="M123.6 152.9c0-.8.4-1.6 1.1-2l5.4-2.9.6-6.1c.1-.8.6-1.5 1.4-1.8.2-.1.5-.1.7-.1.5 0 1.1.2 1.5.6l4.4 4.2 6-1.3h.4c.6 0 1.3.3 1.7.8.5.6.6 1.5.3 2.2l-2.6 5.5 3 5.3c.4.7.4 1.6-.1 2.3-.3.4-.6.7-1 .8-.2.1-.5.1-.7.1h-.3l-6-.8-4.1 4.5c-.2.3-.5.5-.8.6-.2.1-.5.1-.7.1-.2 0-.4 0-.6-.1-.8-.2-1.4-.9-1.5-1.7l-1.1-6-5.6-2.5c-.9-.2-1.3-.9-1.4-1.7z"/><path class="st7" d="M124.3 152.2c0-.8.4-1.6 1.1-2l5.4-2.9.6-6.1c.1-.8.6-1.5 1.4-1.8.2-.1.5-.1.7-.1.5 0 1.1.2 1.5.6l4.4 4.2 6-1.3h.4c.6 0 1.3.3 1.7.8.5.6.6 1.5.3 2.2l-2.6 5.5 3 5.3c.4.7.4 1.6-.1 2.3-.3.4-.6.7-1 .8-.2.1-.5.1-.7.1h-.3l-6-.8-4.1 4.5c-.2.3-.5.5-.8.6-.2.1-.5.1-.7.1-.2 0-.4 0-.6-.1-.8-.2-1.4-.9-1.5-1.7l-1.1-6-5.6-2.5c-.9-.1-1.4-.9-1.4-1.7z"/><path class="st8" d="M124.9 149.4l4.9-2.7.6-5.5c.1-1.2.9-2.2 2.1-2.6.4-.1.7-.2 1.1-.2.8 0 1.6.3 2.2.9l4 3.8 5.4-1.2c.2 0 .4-.1.7-.1 1 0 1.9.4 2.5 1.2.8 1 .9 2.2.4 3.3l-2.4 5 2.8 4.8c.6 1 .6 2.3-.1 3.3-.4.6-.9 1-1.5 1.2-.4.1-.7.2-1.1.2h-.4l-5.5-.7-3.7 4.1c-.3.4-.8.7-1.3.9-.4.1-.7.2-1.1.2-.3 0-.6 0-.9-.1-1.2-.3-2-1.3-2.3-2.5l-1-5.5-5.1-2.3c-1.1-.5-1.8-1.6-1.9-2.8-.1-1.1.6-2.2 1.6-2.7z"/><path class="st5" d="M139.7 147.8c1.4-.5 2.5.8 2.5.9.1.1.1.3 0 .4-.1.1-.3.1-.4 0 0 0-.8-1.1-1.9-.7-1 .4-1 1.7-1 1.7 0 .1-.1.2-.2.3h-.1c-.2 0-.3-.1-.3-.3 0 0 0-1.8 1.4-2.3zM133 150.3c1.4-.5 2.5.8 2.5.9.1.1.1.3 0 .4-.1.1-.3.1-.4 0 0 0-.8-1.1-1.9-.7-1 .4-1 1.7-1 1.7 0 .1-.1.2-.2.3h-.1c-.2 0-.3-.1-.3-.3 0-.1 0-1.8 1.4-2.3z"/><g><path class="st5" d="M136.3 154.8c0 .1 1.2 1.5 2.5.9 1.4-.5 1.3-2.3 1.3-2.4 0-.2.1-.3.3-.3.2 0 .3.1.3.3 0 .1.1 2.3-1.7 2.9-1.8.7-3.1-1-3.2-1.1-.1-.1-.1-.3 0-.4.2 0 .4 0 .5.1z"/></g></g><g><path class="st9" d="M53.1 105.3s10.6 4.9 11.2 12.2c.8 1.4 1.1 2.7 1.1 2.7 4.6-1.6 7.9 2.4 7.9 2.4.7-4 5.8-3.8 6.8-3.8.4-1.4 2-3.4 2.7-4.1 1.1-1.1 2.7-1.7 4-1.9-.1-1 .1-1.9.5-2.6 1.7-2.8 7.9-5.6 7.9-5.6 3.5-3.6 10.4 6.7 5.6 13.9-2.5 3.8-5.7 4-8.1 3.4-.4.6-.8 1.2-1.4 1.7-2.3 2.1-6.5.8-8.4.6-4.5 6.3-9.2 3-9.2 3-8.7 1.9-11.7-5.1-11.7-5.1-1-.5-1.7-1.2-2.1-2-3.8-.1-8-2.6-6.8-14.8z"/><path class="st2" d="M160 87.4s3.2 16.2 4.3 21.6c1.1 5.3-1.8 14.1-11.5 18.4-9.7 4.4-33 5.8-40-.4-5.4-4.8-7.5-8.3-7.5-8.3s-5.9 1.7-9.7-4.8c-3.7-6.2.7-11.9 6.3-13.2.2-.1.9-.2.7-.1-.7.1-6.3-17.6 5.4-23.2 11.7-5.6 44.2-17.3 52 10z"/><path class="st10" d="M113.6 123.2c-2.8-5.2-4.1-9.1-5.5-14.8-2.6-10.7 3.1-20.5 13-23.2 7.7-2.1 13.7 5 28.5 5.5 7.2.3 8.5-6.2 10-2.5 1.2 2.8 2.1 9.5 3.1 12.5-1.3-6.3-2.6-13.2-2.6-13.2-7.8-27.3-40.3-15.6-52-10.1-11.7 5.6-6.1 23.3-5.4 23.2-.1 0-.5.1-.7.1-5.7 1.3-10 7-6.3 13.2 3.8 6.5 9.7 4.8 9.7 4.8s2.8 2.8 7.5 8.3c1.2 1.4 4.6 3 7.7 3.4-2.4-1.8-5.5-4.6-7-7.2z"/><path class="st3" d="M157.8 108.8s-16.3 13.9-34.5.4c0 0 0-.8 2-2.5 0 0-3.3.2-4.7 3.5-1.4 3.3-.4 4.4-.4 4.4s1.3-4.6 2.3-3.8c1.1 1 16.7 32.4 35.3-2z"/><path class="st11" d="M124.4 104.3c1.3-.5 2.9-.7 4-.2.3-.7.3-1.7 0-2.6-.5-1.8-2-3-3.3-2.6-1.3.4-1.9 2.2-1.4 4 .2.6.4 1.1.7 1.4z"/><ellipse transform="rotate(-16.19 126.892 101.376)" class="st7" cx="126.9" cy="101.4" rx="1.2" ry="1.7"/><ellipse transform="rotate(-88.668 126.55 108.263)" class="st12" cx="126.5" cy="108.3" rx="4.1" ry="7.4"/><path class="st3" d="M119 106.9s6.1-4.5 13.8-.7c0 0-4.9-6.4-13.8.7z"/><g><path class="st11" d="M153.4 98.9c-1.3.1-2.6.6-3.4 1.6-.5-.5-.9-1.3-1-2.2-.3-1.8.5-3.5 1.7-3.7 1.2-.2 2.4 1.1 2.7 2.9.1.4.1.9 0 1.4z"/><path class="st7" d="M150.8 96.9c.1.9.7 1.5 1.3 1.4.6-.1.9-.9.8-1.8-.1-.9-.7-1.5-1.3-1.4-.5.1-.9.9-.8 1.8z"/><g><path class="st12" d="M148 105.5c.9 2 4.7 2.2 8.1.4 3.3-1.8 4.6-4 3.7-6-.9-2-4.9-2.6-7.3-1.2-3.4 1.8-5.4 4.8-4.5 6.8z"/><path class="st3" d="M158.3 98.6s-6.2-1-10.8 5.8c0 0 3.4-9.1 10.8-5.8z"/></g></g><path class="st13" d="M101.8 107.7c-2-1.4-1.6 5.3-.9 6.1 1.2 1.5 4.1 1.5 4.6 0 .5-1.8-1.6-4.6-3.7-6.1z"/><path class="st14" d="M160.1 89.7s3.7 1 5 5c1.3 4 .2 8.9-1.5 10.8 0 0-3.2-12.7-3.5-15.8z"/><path class="st7" d="M155.7 110.8s-13.5 11.7-31 .5c0 0 2.4 7.2 9.1 10.9 6.7 3.6 14.9 2.7 21.9-11.4z"/><path class="st9" d="M125 64.4c27.9-1.6 34.3 9 35.8 14.9 4.5-.3 8.2-.8 10.2-1.7 0 0-6.9 11.6-19.9 12.1-1.3.1-2.8.1-4.5-.1-7.8-.9-20.9-11.9-29.9-5.4-12 8.7-11.9 14.7-14.1 16.3 0 0-8.7 1.9-8.1 9 .6 7.1 9.1 10.2 10.8 9.2l2.5 3s-8.4.3-13.6-9.7C89 101.9 86.7 66.6 125 64.4z"/><path class="st15" d="M167.4 70.3s-1.6 16-25.8 10.7c-24.2-5.4-19-7.8-19-7.8s38.9 5.8 44.8-2.9z"/><g><path class="st16" d="M58.6 127.3l3.7-4.5 3.8-2.7 5.2-2.4-4.2-5.7-4 4.3-3.6 2.6-5 2.7z"/><path class="st17" d="M59.35 118.752l3.713-2.714 2.95 4.037-3.714 2.714z"/></g></g><path class="st0" d="M194 139c1.6.9 3.2 1.7 4.9 2.4.9.4 1.7.7 2.6 1.1.2.1.7.5.7.6.2 0 .2.4 0 .4-.4 0-.5.2-1 0-.9-.3-1.8-.7-2.8-1-1.7-.7-3.7-1.4-5.1-2.6-.4-.5.2-1.2.7-.9z"/><g><path class="st18" d="M8.3.2s22.3 18.1 55.2 13.6c0 0-10.7 14.4-.4 68.2 0 0-42.7-29.3-63.1-33.2.1-.1 10-36.9 8.3-48.6z"/><path class="st0" d="M61.5 16S39.4 24.9 10.3 4.8l18.1 34.4S40.7 36.4 61.5 16z"/><path class="st18" d="M63.3 81.9c.4.7 1.1 1.3 1.7 1.9.6.7 1.2 1.3 1.8 2.3.9 1.9 1.2 3.7 1.3 5.6.3 3.7-.2 7.3.1 10.6.1 1.6.4 3.1 1 4.7.5 1.5 1.3 2.9 2.4 4.1 1.1 1.2 2.5 2 4.2 2.5 1.6.5 3.4.6 5.1.5 3.5-.1 7-1 10.5-1.7.9-.2 1.8-.3 2.7-.5.9-.1 1.8-.3 2.8-.4 1.9-.1 3.8-.1 5.7.2 1.9.3 3.8.7 5.6 1.6 1.8.9 3.4 2.1 4.7 3.7 2.7 3 3.8 6.9 3.8 10.6l-.4.1c-1.7-3.2-3.5-6.1-5.9-8.1-2.4-2-5.3-3.2-8.5-4-1.6-.4-3.3-.6-5-.7-.9-.1-1.7-.2-2.6-.2h-2.6c-3.5.1-7.1.5-10.8.6-1.8 0-3.7 0-5.5-.3-1.8-.3-3.7-1-5.3-2.2-.8-.6-1.5-1.3-2.2-2-.6-.8-1.2-1.6-1.6-2.5-.9-1.7-1.4-3.8-1.6-5.7-.3-3.9.5-7.4.7-10.8.1-.9 0-1.7 0-2.5 0-.4-.1-.8-.1-1.2-.1-.4-.1-.8-.2-1.2-.2-.7-.7-1.5-1.1-2.2-.4-.8-.9-1.6-1.1-2.5l.4-.3z"/><path class="st0" d="M63.1 81.8c2.3-.3 4.6.8 6.3 2.2 1.8 1.4 3.2 3.2 4.4 5.2 1.1 2 2 4.1 2.2 6.6.1 2.4-.3 4.6-.8 6.7-1.1 4.2-2.7 8.2-3.4 12.3-.7 4.1-.7 8.4-.1 12.4.6 4.1 1.6 8 3.3 11.6 1.7 3.6 4.2 6.6 7.2 9.1s6.6 4.3 10.5 5.4c1.9.6 3.9.9 6 1.1 2 .1 4.1.1 6.1-.5l.2.4c-1.8 1.2-4 1.8-6.2 2-2.2.3-4.4.2-6.6-.1-4.4-.6-8.7-2.3-12.4-5.1-1.8-1.4-3.4-3-4.8-4.8-1.3-1.8-2.5-3.8-3.3-5.9-1.7-4.2-2.5-8.6-2.3-13 .1-4.4.8-8.6 1.5-12.8.8-4.2 1.6-8.4 1.8-12.5.1-1 .1-2 .1-3s0-2-.1-2.9c-.2-1.8-.8-3.7-1.6-5.4-.8-1.8-1.8-3.5-3.1-5s-2.8-2.8-4.8-3.4l-.1-.6zM28.5 39.2s-4.6 4.6-25.1 9c0 0 20.1 4.8 53.6 28.1 0 0-16.7-18.2-28.5-37.1z"/><path class="st19" d="M.1 48.7s36.1-4.4 63.5-35M8.3.2S24.8 44.8 63.1 82"/></g></svg>