<svg id="objekt" xmlns="http://www.w3.org/2000/svg" viewBox="0 0 56.9 50.9"><style>.st0{fill:#FDFFFF;} .st1{fill:#E7F7F5;} .st2{fill:#A04E35;}</style><path class="st0" d="M32.9 4.9c-4 7-2.1 19.9 2 26.5 7.6-4.6 15.7-10.2 17.8-18.9C55.4.9 38.4-4.7 32.9 4.9z"/><path class="st0" d="M9.5 19.1c-6.6 2-10.7 8.3-9.1 15.5 4.2 18.9 26.7 2.2 33.3-5.7-.1.1-15.7-12.4-24.2-9.8z"/><path class="st1" d="M32.2 26.7l-.4 1.9c4.5 3.2 27.4 9.9 24.8-2.9-2.8-13.7-19.5-3.3-24.4 1z"/><path class="st1" d="M30.3 27.1C24.6 30.2 9.2 42.3 21 49.7c11.1 6.8 12.7-16.9 11.2-22.3l-1.9-.3z"/><path class="st2" d="M32.8 26c.1-.2.2-.4.2-.6.3-1.4-.6-2.7-2-3-1.4-.3-2.7.6-3 2-.3 1.4.6 2.7 2 3 .2 0 .4.1.6 0 1 1.4 1.9 2.8 2.4 4.4.5 1.6 3 1 2.5-.6-.6-1.8-1.6-3.5-2.7-5.2z"/></svg>