<svg id="Artboard_1" xmlns="http://www.w3.org/2000/svg" viewBox="0 0 606.8 332.9"><style>.st0{fill:#EDF2F5;} .st1{fill:#F8FAFB;} .st2{fill:#FFFFFF;}</style><path class="st0" d="M79 83.5c-2.1 0-4.2.3-6.1.9-1-11.3-10.6-20.2-22.2-20.2s-21.2 8.9-22.2 20.3c-2-.6-4.1-.9-6.2-.9C10 83.5 0 93.5 0 105.8s10 22.3 22.3 22.3H79c12.3 0 22.3-10 22.3-22.3S91.3 83.5 79 83.5z"/><path class="st1" d="M366.5 54.3c-3.8 0-7.5.6-11 1.6-1.9-20.4-19-36.4-39.9-36.4s-38.1 16-39.9 36.4c-3.6-1-7.3-1.6-11.2-1.6-22.1 0-40.1 18-40.1 40.1s18 40.1 40.1 40.1h102c22.1 0 40.1-18 40.1-40.1s-17.9-40.1-40.1-40.1z"/><path class="st0" d="M479.3 275.1c-2.8 0-5.4.4-7.9 1.1-1.3-14.7-13.7-26.2-28.7-26.2-15.1 0-27.4 11.5-28.7 26.2-2.6-.7-5.3-1.2-8.1-1.2-15.9 0-28.9 12.9-28.9 28.9s12.9 28.9 28.9 28.9h73.5c15.9 0 28.9-12.9 28.9-28.9s-13-28.8-29-28.8z"/><path class="st2" d="M482.1 94c-3.3 0-6.4.5-9.4 1.3-1.6-17.5-16.3-31.1-34.2-31.1-17.9 0-32.6 13.7-34.2 31.2-3-.9-6.2-1.4-9.6-1.4-19 0-34.3 15.4-34.3 34.3 0 19 15.4 34.3 34.3 34.3H482c19 0 34.3-15.4 34.3-34.3.1-18.9-15.2-34.3-34.2-34.3zM240.9 44.2c-3.3 0-6.4.5-9.4 1.3-1.6-17.5-16.3-31.1-34.2-31.1-17.9 0-32.6 13.7-34.2 31.2-3-.9-6.2-1.4-9.6-1.4-19 0-34.3 15.4-34.3 34.3s15.4 34.3 34.3 34.3h87.3c19 0 34.3-15.4 34.3-34.3s-15.2-34.3-34.2-34.3z"/><path class="st1" d="M586.6 17.5c-1.9 0-3.8.3-5.5.8C580.2 8 571.6 0 561.1 0s-19.1 8-20 18.3c-1.8-.5-3.7-.8-5.6-.8-11.1 0-20.1 9-20.1 20.1 0 11.1 9 20.1 20.1 20.1h51.2c11.1 0 20.1-9 20.1-20.1 0-11.1-9.1-20.1-20.2-20.1z"/></svg>