<svg id="Layer_1" xmlns="http://www.w3.org/2000/svg" viewBox="0 0 129 145"><style>.st0{fill:#003D7A;stroke:#003D7A;stroke-miterlimit:10;}</style><path class="st0" d="M60.5 144.5c-2.6-.4-5.2-.7-7.8-1.1-5.9-1-11.6-3-16.9-5.7-6.2-3.1-11.8-7.2-16.7-12.1-4.7-4.8-8.7-10.2-11.7-16.2-2.9-5.6-4.9-11.6-6-17.8C.3 85.2.1 78.7 1 72.3c1.2-8.8 4-17.1 8.6-24.8 3.5-5.8 7.7-10.8 12.8-15.2 5.2-4.5 10.9-8.1 17.3-10.7 5.7-2.4 11.7-3.9 17.8-4.6.9-.1 1.2-.5 1.1-1.3-.1-.9 0-1.7 0-2.5-1.2-.4-2.2-.6-3.1-1-1.6-.8-2.5-2.1-2.7-3.9-.2-2.1-.4-4.2 1.2-5.9.8-.8 1.8-1.3 2.8-1.9H72c.9.6 2 1.1 2.8 1.9 1.6 1.7 1.4 3.9 1.2 6-.2 1.7-1.1 3-2.6 3.7-.9.5-2 .7-3.1 1v3.6c2.5.4 4.9.8 7.3 1.3 6.8 1.4 13.3 3.7 19.2 7.4 3.6 2.3 6.9 5 10.3 7.4.3.2.9.4 1.1.2 1.3-1 2.5-2.1 3.7-3.2-.4-.6-.6-.8-.7-1-.9-1.6-.5-3.1 1.1-4.6 1.4-1.3 2.9-1.4 4.3-.2 1.8 1.6 3.5 3.4 5.3 5.1 1.3 1.3 1.6 2.8 1 4.1-.9 1.7-2.5 2.7-4.3 2.4-.3 0-.7 0-.9.2-1.3 1.2-2.6 2.5-3.9 3.8.3.5.5.8.7 1 5.9 7.3 9.9 15.4 12.2 24.5 2.1 8.4 2.5 17 1.1 25.5-1.7 10.7-5.9 20.3-12.5 28.9-3.3 4.3-7.1 8.2-11.4 11.4-2.8 2.1-5.8 4-8.8 5.8-5.8 3.4-12.1 5.5-18.7 6.7-2.5.4-5.1.8-7.6 1.1h-8.3zm3.9-8.5c30.7-.1 55.4-24.8 55.5-55.4S95.1 25.1 64.6 25.1C33.7 25 9.2 49.8 9 80.3c-.1 30.6 24.9 55.6 55.4 55.7z"/><path class="st0" d="M113.9 80c-1.1 0-2 .1-2.9 0-.3 0-.7-.6-.7-1-.4-2.5-1.6-4.5-3.9-5.6-1.2-.5-2.5-.8-3.8-.8-8.7-.1-17.5 0-26.2 0-.7 0-1.1-.1-1.5-.7-2.6-4-6.4-6.1-11.2-6.5-.3 0-.6-.1-1-.1v-1.2-33.7c0-1.1.3-1.4 1.4-1.3 8 .3 15.5 2.2 22.6 6 4 2.1 7.6 4.7 10.9 7.8 5.3 4.9 9.3 10.7 12.1 17.2 1.8 4.2 3 8.5 3.6 13 .2 2.1.3 4.4.6 6.9z"/><path class="st0" d="M88.3 81.7H74c-1 0-1.5.2-1.8 1.2-2.7 6.7-12 8.1-16.8 2.7-4.8-5.5-2.5-14.7 5.5-16.6 4.4-1.1 9.7 1.6 11.3 5.8.3.9.8 1.2 1.8 1.2h28.2c.5 0 1.1 0 1.6.1 1.5.3 2.4 1.3 2.4 2.8 0 1.4-1 2.5-2.4 2.7-.4.1-.8.1-1.3.1H88.3z"/></svg>