<svg id="Layer_1" xmlns="http://www.w3.org/2000/svg" viewBox="0 0 399 451.7"><style>.st0{fill:#003D7A;stroke:#003D7A;stroke-miterlimit:10;}</style><path class="st0" d="M42.6 415.6h62.2c84 0 168 0 252 .2 5.3 0 6.3-1.7 6.2-6.5-.1-122.3 0-244.4 0-366.6 0-6.7 0-6.7-6.9-6.7H42.8C39.1 16.9 52.4.6 71.7.5 154.9.4 238 .5 321.2.5h46.5c18.3 0 30.4 11.7 30.7 30.1.3 17.5.1 35 .1 52.5v193.5c0 47.8.1 95.6 0 143.5-.1 19.1-12.5 31.1-31.5 31.1H73c-20.2 0-33.2-15-30.4-35.6z"/><path class="st0" d="M220.3 318.2h-86.9c-7.5 0-9.3-1.8-9.3-9.4 0-6.7.2-13.3-.1-20-.1-4.5 1.9-6.7 5.9-8.6 16.4-7.7 32.7-15.6 48.8-23.9 5.2-2.7 10-6.7 14.4-10.6 5.3-4.7 5.1-8.7 1-14.3-3.2-4.4-5.8-9.3-8.5-14-2.6-4.5-4.9-9.2-7.5-13.8-2.9-5-2.8-10-.8-15.3.9-2.4 1.7-5 1.8-7.5.4-8.1-.1-16.4.9-24.4 1.8-15.9 11.3-25.5 26.7-29.1 10.6-2.5 21.2-2.3 31.5 1.1 13.5 4.4 21.8 15.1 22.6 29.2.4 6 .3 12 .3 18 0 5 .2 9.7 2.6 14.4 2.8 5.6.9 10.9-2.9 15.8-1.6 2-2.7 4.4-4 6.7-3.6 6.5-6.9 13.2-10.9 19.5-2.8 4.4-3.4 9 .4 12.6 4.2 3.9 8.7 8 13.7 10.7 16.2 8.5 32.6 16.5 49.1 24.4 6.8 3.3 7.6 3.8 7.6 11.6v16.5c0 8.8-1.8 10.6-10.4 10.6-28.7-.2-57.3-.2-86-.2zM37.5 61.2c7.3 0 14.6-.1 22 0 9.6.2 15.9 6.2 16 14.8 0 8.7-6.7 15-16.4 15.1-14.3.1-28.6.1-42.9 0C6.6 91 .1 84.9 0 76.4c-.1-9.1 6.1-15 16-15.2 7.2-.2 14.3 0 21.5 0zM37.2 151.1c-7.2 0-14.3.1-21.5 0-9.2-.2-15.6-6.2-15.8-14.5-.2-9 5.8-15.2 15.3-15.3 14.8-.2 29.6-.2 44.4 0 9.5.1 15.8 6.5 15.7 15.1-.2 8.6-6.8 14.6-16.2 14.8-7.2 0-14.5-.1-21.9-.1zM38 181.2c7.2 0 14.3-.1 21.5 0 9.6.2 15.9 6.3 15.9 14.9 0 8.5-6.6 14.9-16 15-14.5.1-28.9.1-43.4 0-9.5-.1-16-6.2-16-14.8 0-8.9 6-14.8 15.6-15.1 3.8-.1 7.7 0 11.5 0H38zM37.7 301.2c7.3 0 14.6-.1 22 0 9.5.2 15.8 6.4 15.7 15.1-.1 8.6-6.7 14.7-16.1 14.8-14.5.1-28.9.1-43.4 0-9.5-.1-15.9-6.3-15.9-15 0-8.8 6.1-14.7 15.8-14.9 7.3-.1 14.6 0 21.9 0zM38 361.2c7 0 14-.1 21 0 10 .2 16.4 6.1 16.4 14.9 0 8.7-6.7 14.9-16.4 15-14.3.1-28.6.1-42.9 0-9.5-.1-16-6.2-16-14.8-.1-8.9 6-14.9 15.6-15.1 7.3-.2 14.8 0 22.3 0zM37.7 241.2c7.3 0 14.6-.1 22 0 9.5.2 15.9 6.4 15.7 15.1-.1 8.4-6.6 14.7-15.6 14.8-14.8.2-29.6.2-44.4 0-9-.1-15.4-6.5-15.3-14.9 0-8.7 6-14.6 15.3-14.9 7.4-.2 14.8-.1 22.3-.1z"/></svg>