<svg id="Слой_1" xmlns="http://www.w3.org/2000/svg" viewBox="0 0 160.6 188.6"><style>.st0{opacity:0.6;fill:#C39955;enable-background:new ;} .st1{fill:#FFD28F;} .st2{fill:#A8BCDA;} .st3{fill:#FFFFDB;} .st4{fill:#6E7DBC;} .st5{fill:#FFC980;} .st6{opacity:0.2;fill:#FFD28F;enable-background:new ;} .st7{fill:#383838;} .st8{opacity:0.1;fill:#F09662;enable-background:new ;} .st9{fill:#F09662;} .st10{opacity:0.3;fill:#FFD28F;enable-background:new ;} .st11{fill:none;stroke:#A10E2F;stroke-miterlimit:10;} .st12{fill:#8DAA95;} .st13{fill:#BD3C11;}</style><path class="st0" d="M160.3 178.7c-3.3-5.5-25.2-3.4-32.6-3.6-18.3-.5-36.5-.4-54.8-.1-7.2.1-36.4 1.4-43.2 1.6-13.5.4-16.6 6.2-.5 7.7 18.5 1.7 38.8 3 57.6 3 18 .1 36.7.6 54.5-.9 6.3-.5 21.6-2.6 19-7.5.1-.2.1-.2 0-.2z"/><path class="st1" d="M49.3 143.1c-5.1.1-10.1-.9-15.2-1.5C29 160.2 49.6 171 49.6 171l5.1-3.3c-7.9-7.1-7.9-16.3-5.4-24.6z"/><path class="st2" d="M53.9 167s4 .9 5.8 4.2c0 0-7 13.7-12 17.4 0 0-.6-10.9 1.2-17.6l5-4z"/><path class="st3" d="M47.6 175c-.8.2-1.8 1-1.4 1.9 0 .1.1.1.2.1.5 0 1-.2 1.6-.3.9-.1 1.7.3 2.5.6 1 .4 1.6-1.2.7-1.7-1-.6-2.3-.8-3.6-.6zM49.9 179.3c-.8-.2-1.7-.2-2.4.1-.3.1-1.8.7-1.2 1.3.4.4 1 .4 1.4.5.6.1 1.1.1 1.7.2s1.1-.1 1.3-.7c.1-.6-.2-1.2-.8-1.4z"/><path class="st1" d="M84.9 134.2c-4.2 2.9-9 4.8-13.6 7.1 5.9 18.4 29.1 16 29.1 16l2.4-5.6c-10.4-1.5-15.5-9.2-17.9-17.5z"/><path class="st2" d="M101.9 151.7s3.8-1.5 7.1.3c0 0 1.6 15.3-.5 21.2 0 0-6.5-8.8-8.6-15.4l2-6.1z"/><path class="st3" d="M101 161.8c-.6.6-1 1.8-.2 2.4h.2c.5-.3.7-.8 1.2-1.1.7-.6 1.6-.7 2.4-.9 1-.2.7-1.9-.3-1.8-1.2 0-2.4.6-3.3 1.4zM105.3 164.2c-.8.2-1.5.8-2 1.4-.2.3-1.1 1.6-.3 1.8.5.1 1-.2 1.5-.4s1-.5 1.5-.8c.5-.2.9-.7.7-1.3-.2-.6-.9-.9-1.4-.7z"/><path class="st1" d="M90.6 68.5s9.3-4.1 10.8-7.5-.5-12.5 1-9.9c1.5 2.5 2 3.7 2 3.7s2.7-6.5 3-3.8.4 5.3.4 5.3 5.3-3.8 4.3-1.6c-1.3 2.8-2.1 6.4-2.1 6.4s-.2 3.6 1.6 6.1c1.8 2.5-1.3 2.4-2.6.8-1.3-1.6-9.2 9.7-13.9 10.2-5.5.4-4.5-9.7-4.5-9.7zM21.4 62.2s-8.8-5-10-8.5 1.8-12.3 0-10C9.6 46.1 9 47.2 9 47.2s-2.1-6.8-2.6-4.1c-.6 2.6-.9 5.3-.9 5.3s-4.9-4.3-4.1-2c1 2.9 1.5 6.5 1.5 6.5s-.1 3.6-2.2 6 1 2.5 2.5 1 8.2 10.6 12.9 11.5c5.3 1 5.3-9.2 5.3-9.2z"/><path class="st4" d="M33.5 115.6s-4.4 11.8-1 27c0 0 15.1 4.2 25 .1l.2-11 8.4 11.9s14.3 3.5 23.6-7.5c0 0-8.9-17.7-10.8-25.5-2-7.9-32.5-5.6-45.4 5z"/><path class="st2" d="M20.6 58.7s-10.1 3.7-8.9 15.4l19.3 14s-4.4 20.5-2.7 32.5c0 0 30.5 14.6 52.9-11.6 0 0-7.8-15.3-4.5-19.1 3.3-3.8 21-10.3 21-10.3s-2.9-9.7-6-13.9l-23.3 11c-9.1 2-19.1 4.1-30.3-1.5-5.3-2.6-11.7-9-17.5-16.5z"/><path class="st5" d="M39.4 76.8l1.5 8.3s1.9 8.3 12.9.9l1.5-4.3c0 .1-14.2-2.9-15.9-4.9z"/><path class="st1" d="M28.6 40.6s-3.5 15-4.7 20c-1.2 4.9 1 14.5 9.9 18.9s25.3 5.6 37.2-.4c6-3 7.7-7.6 7.7-7.6s5.4 1.7 9.2-4.2c3.6-5.7-.2-11.1-5.5-12.5-.2-.1-.8-.2-.6-.1.6.1 6.5-16.2-4.3-21.8-10.8-5.6-40.7-17.5-48.9 7.7z"/><path class="st6" d="M69.2 76.8c2.8-4.7 5.6-9.8 7.1-15.1 2.8-9.9-4.6-19.3-13.6-22.6-.6-.2-1.2.3-1.2.9.4 4.6-7-1.2-8.4-2-.5-.3-1.2.2-1.2.7 0 3.4-6.5-2.5-7.7-3.4-2.4-1.6-5.4-1.8-8-.7-3.8 1.6-5.5 6.9-7 10.2-1.2 2.6-2.4 5.2-3.4 8 1.4-5.8 2.9-12.3 2.9-12.3 8.1-25.3 38-13.3 48.8-7.7 10.7 5.6 4.9 21.9 4.3 21.8.1 0 .5.1.6.1 5.2 1.4 9.1 6.8 5.5 12.5-3.8 5.9-9.2 4.2-9.2 4.2S75.5 74 71 79c-1.2 1.3-3.4 2-6.3 2.3 2.1-1.5 3.1-2 4.5-4.5z"/><path class="st7" d="M61.3 57.5c-1.2-.5-2.6-.7-3.8-.3-.2-.7-.2-1.6.1-2.4.6-1.7 2-2.7 3.2-2.3 1.2.4 1.7 2.1 1.2 3.8-.2.5-.5.9-.7 1.2z"/><ellipse transform="rotate(-64.837 58.943 54.47)" class="st3" cx="58.9" cy="54.5" rx="1.5" ry="1"/><ellipse transform="matrix(.0104 -1 1 .0104 -2.712 119.662)" class="st8" cx="59.1" cy="61.2" rx="3.9" ry="6.9"/><path class="st9" d="M66.2 60.1s-5.6-4.4-12.8-1.1c0 0 7-5.6 12.8 1.1z"/><g><path class="st7" d="M34.4 51.5c1.2.1 2.4.7 3.1 1.6.5-.5.9-1.2 1-2 .3-1.7-.4-3.2-1.5-3.5-1.1-.2-2.3.9-2.6 2.6-.1.4-.1.9 0 1.3z"/><path class="st3" d="M36.7 49.6c-.3.7-1 1.1-1.4.9-.5-.2-.6-1-.3-1.7s1-1.1 1.4-.9c.5.3.7 1 .3 1.7z"/><g><path class="st8" d="M39.2 57.8c-.9 1.8-4.5 1.9-7.5.1-3.1-1.8-4.1-3.9-3.2-5.7.9-1.8 4.7-2.3 6.9-.9 3 1.9 4.7 4.7 3.8 6.5z"/><path class="st9" d="M29.6 51.1s4.7-1.4 9.5 4.7c0 0-3-7.7-9.5-4.7z"/></g></g><g><path class="st9" d="M29.9 60.3s10.5 6 30.3 2.1c0 0 0-.7-1.7-2.3 0 0 2.9.2 4.1 3.3 1.2 3.1.4 4.1.4 4.1s-1.7-4.7-2-3.5c-2.4 9-19.5 26-31.1-3.7z"/><path class="st3" d="M31 61.5s12.1 6.6 28.7 2c0 0-2.9 11.5-12.1 12.8-9.1 1.3-15.4-10.2-16.6-14.8z"/></g><path class="st10" d="M85.4 64.5c.3-.3.4-.6.3-1.1-.1-.4-.3-.7-.6-.9-.4-.3-.9-.4-1.4-.5h-.1s-.3 0-.4-.1c-.6-.2-1.2 0-1.6.5-.1.1-.1.2-.1.3l-.3.6c-.3.5-.6 1.1-.9 1.6s-.4 1.2-.2 1.7c.2.4.5.7.9.8.1.2.3.4.6.5.8.3 1.4-.2 1.9-.8.3-.1.6-.3.8-.6.3-.3.4-.7.5-1.1.1-.2.2-.3.3-.5.1-.3.2-.3.3-.4-.1.1-.1 0 0 0-.1 0-.1 0 0 0z"/><g><path class="st7" d="M74.1 21.4c-.2.2-.4.4-.5.6 0 0 .3-.1.5-.6zM71.7 21.7l-.2.5c.1-.1.1-.2.2-.5z"/><path class="st7" d="M90 34.4c-2.8-7.8-14.6-11.6-14.6-11.6s6.6-3.5 9.2-3.3c0 0-5.8-3.3-10.5 1.9-.2.5-.5.6-.5.6.2-.2.4-.4.5-.6.3-.7.6-2.2 0-5.3l-2.4 5.5c0 .3-.1.5-.2.5l.2-.5c.1-.9.1-2.5-.2-3.4-1.2-3.7-2.6-3.8-2.6-3.8l2 6s-4.6-5.1-16.4-4.6-21.6 3.7-29.4 18.5c0 0 2.3 2.8 7.9 6.2 3-3.6 7.9-8.3 8.3-8.5L37 42.8c2.5 1.3 5.4 2.6 8.9 3.8 1.7-3.1 5.1-9.1 7.5-11.3 0 0-3.9 8.3-5.4 12 7 2.4 15.7 4.5 26.7 5.7l2-5.8.9 6.4s2.1.7 4.8 1c2.8.2 7.1.1 7.1.1s3.3-12.5.5-20.3z"/></g><circle class="st11" cx="34.4" cy="47.7" r="9.7"/><circle class="st11" cx="58.9" cy="52.1" r="9.7"/><path class="st11" d="M81.2 54.8l-12.9.1M43.2 51.4s5-3 5.9 1.3"/><path class="st12" d="M44.1 8.2l-1.3 4.9 32.1 12.6 16.9-3.5 1.4-6.3-22.4-9.5z"/><path class="st3" d="M44.7 9.8S74.5 21.2 75.3 21c.8-.2 16.9-3.7 16.9-3.7l-.8 3.7-17 3.5-30.6-12.2.9-2.5"/><path class="st13" d="M90 12.2l-17.5 5.6L42.7 7.2l-.2-4.7L65.1 0l25.7 8.1z"/><path class="st3" d="M43.3 3.6l.3 3 28.4 10 17.2-5.1.3-2.9-17.7 4.3z"/></svg>