<svg id="Artboard_1" xmlns="http://www.w3.org/2000/svg" viewBox="0 0 816.4 180.9"><style>.st0{opacity:0.41;} .st1{fill:#FFFFFF;} .st2{fill:#FFCB05;} .st3{fill:#FFB206;} .st4{fill:#FFE069;} .st5{fill:#FFAD33;} .st6{fill:#20558B;} .st7{fill:#4D77A2;} .st8{fill:#7999B9;} .st9{fill:#FFF2CD;} .st10{fill:#FFFCF5;} .st11{fill:#FFF7E1;} .st12{opacity:0.23;fill:#20558B;enable-background:new ;} .st13{fill:none;stroke:#7999B9;stroke-width:0.9853;stroke-linecap:round;stroke-linejoin:round;stroke-miterlimit:10;} .st14{fill:none;stroke:#A6BBD1;stroke-width:0.9853;stroke-linecap:round;stroke-linejoin:round;stroke-miterlimit:10;} .st15{fill:none;stroke:#20558B;stroke-width:0.9853;stroke-linecap:round;stroke-linejoin:round;stroke-miterlimit:10;} .st16{fill:none;stroke:#FFE069;stroke-width:0.9853;stroke-linecap:round;stroke-linejoin:round;stroke-miterlimit:10;} .st17{fill:none;stroke:#4D77A2;stroke-width:0.9853;stroke-linecap:round;stroke-linejoin:round;stroke-miterlimit:10;} .st18{opacity:0.35;} .st19{fill:#CCDDE4;} .st20{fill:#B9CFD6;} .st21{fill:#E0EBEF;} .st22{fill:#FF9900;} .st23{fill:#FFC266;} .st24{opacity:0.24;fill:#FF9900;enable-background:new ;} .st25{fill:none;stroke:#FF9900;stroke-width:0.6981;stroke-linecap:round;stroke-linejoin:round;stroke-miterlimit:10;} .st26{fill:none;stroke:#FFE069;stroke-width:0.6981;stroke-linecap:round;stroke-linejoin:round;stroke-miterlimit:10;} .st27{fill:none;stroke:#E88B10;stroke-width:0.6981;stroke-linecap:round;stroke-linejoin:round;stroke-miterlimit:10;} .st28{opacity:0.51;} .st29{fill:#FFD537;} .st30{opacity:0.24;fill:#FFCB05;enable-background:new ;} .st31{fill:none;stroke:#EFB90C;stroke-width:1.0812;stroke-linecap:round;stroke-linejoin:round;stroke-miterlimit:10;} .st32{fill:none;stroke:#FFCB05;stroke-width:1.0812;stroke-linecap:round;stroke-linejoin:round;stroke-miterlimit:10;} .st33{fill:none;stroke:#FFE069;stroke-width:1.0812;stroke-linecap:round;stroke-linejoin:round;stroke-miterlimit:10;} .st34{opacity:0.49;fill:none;stroke:#FFCB05;stroke-width:1.0812;stroke-linecap:round;stroke-linejoin:round;stroke-miterlimit:10;enable-background:new ;}</style><g class="st0"><path class="st1" d="M79.2 127s-2.2.8-5.4 2-7.6 2.7-11.9 4.2c-2.2.7-4.3 1.6-6.4 2.2-2 .6-4 1.1-5.7 1.4-3.4.7-5.8.8-5.8.8l-.1-.2s2-1.2 5.2-2.5c1.6-.7 3.5-1.4 5.6-2 2.1-.6 4.4-1.1 6.6-1.7 4.5-1.1 8.9-2.3 12.3-3.1 3.4-.8 5.6-1.3 5.6-1.3v.2zM82.6 140.9s-2.2.8-5.4 2-7.6 2.7-11.9 4.2c-2.2.7-4.3 1.6-6.4 2.2-2 .6-4 1.1-5.7 1.4-3.4.7-5.8.8-5.8.8l-.1-.2s2-1.2 5.2-2.5c1.6-.7 3.5-1.4 5.6-2 2.1-.6 4.4-1.1 6.6-1.7 4.5-1.1 8.9-2.3 12.3-3.1 3.4-.8 5.6-1.3 5.6-1.3v.2zM75.2 135.5s-2.2.8-5.4 2-7.6 2.7-11.9 4.2c-2.2.7-4.3 1.6-6.4 2.2-2 .6-4 1.1-5.7 1.4-3.4.7-5.8.8-5.8.8l-.1-.2s2-1.2 5.2-2.5c1.6-.7 3.5-1.4 5.6-2 2.1-.6 4.4-1.1 6.6-1.7 4.5-1.1 8.9-2.3 12.3-3.1 3.4-.8 5.6-1.3 5.6-1.3v.2z"/><g><path class="st2" d="M100.9 101.6s-27.5-8.1-30.3-8.8-.6-3-.6-3 26.1-9 37.6-6.8 11.9 9.7 11.9 9.7l-18.6 8.9z"/><path class="st3" d="M95 99.9c3.4 1 5.8 1.7 5.8 1.7l18.6-8.9s.1-1.9-1.7-4.2C104.4 93.6 95.1 99.8 95 99.9z"/><path class="st4" d="M112.8 88.8c-1.2.7-2.8-.6-2.8-.6-5.5-3.4-18.8-.5-22.2.5-4.6 1.3-5.2 1.3-5.4.4-.1-.8.9-1.1.9-1.1 23.1-7.5 29.6-.7 29.6-.7 1.1.9-.1 1.5-.1 1.5z"/><g><path class="st2" d="M114.9 147.9s-18.5 22-20.4 24.1c-1.9 2.1 1.2 2.8 1.2 2.8s26.7-6.9 35.1-15.1c8.3-8.1 4.5-14.6 4.5-14.6l-20.4 2.8z"/><path class="st3" d="M110.9 152.6c2.3-2.7 3.9-4.6 3.9-4.6l20.4-2.9s1.1 1.6.9 4.5c-13.9 3-25.1 3-25.2 3z"/><path class="st4" d="M131.9 152c-1.3.1-2 2-2 2-2.7 5.9-15.4 10.7-18.8 11.8-4.6 1.4-5.1 1.7-4.7 2.6.3.8 1.3.5 1.3.5 23.4-6.4 25.1-15.7 25.1-15.7.3-1.3-.9-1.2-.9-1.2z"/></g><g><path class="st5" d="M75.5 134.4c.7 2.4 1.6 4.7 2.9 6.7 4.2 6.7 12.7 10.5 34 8.2 6.2-.7 13.5-1.9 22.1-3.7 14.6-3.1 33.1-8 56.5-15 28-8.4 59.9-21.9 83-35.1 9.5-5.4 17.4-10.7 23-15.6 5.3-4.7 8.5-8.9 8.9-12.5.1-.8 0-1.6-.2-2.3-.3-1-.9-1.9-1.7-2.7-2.5-2.4-7.3-4-13.8-4.9-7.4-1-17-1-27.8-.3-26.5 1.8-60.5 8.1-88.4 16.5-22.9 6.9-41 13.2-55.1 18.9-8.1 3.3-14.9 6.5-20.5 9.5-18.3 9.9-24.3 18.6-23.6 27.7.1 1.6.4 3.1.7 4.6z"/><path class="st6" d="M292.5 74c1.1 2 2.5 4 4.5 6 5.3-4.7 8.5-8.9 8.9-12.5-1.9 1-6.3 3.2-13.4 6.5z"/><path class="st7" d="M292.6 73.9c7-3.2 11.5-5.4 13.4-6.4.1-.8 0-1.6-.2-2.3-.3-1-.9-1.9-1.7-2.7-1.9.3-6.9 1.2-14.3 2.6.3 2.7 1 5.7 2.8 8.8z"/><path class="st8" d="M289.7 65.1c7.5-1.4 12.5-2.3 14.3-2.6-2.5-2.4-7.3-4-13.8-4.9-.4 1.7-.7 4.4-.5 7.5z"/><g><path class="st9" d="M274 95.5c9.5-5.4 17.4-10.7 23-15.6-1.9-2-3.4-4-4.5-6-6.2 2.8-14.4 6.4-24.7 10.5.1 0 .1.1.2.1v.4c-.2 1.6-.2 7.4 6 10.6z"/><path class="st10" d="M289.7 65.1c-.4-3.2 0-5.8.4-7.5-7.4-1-17-1-27.8-.3-1.5 2.1-4 7.2.9 12.2l.3.3-.1.2c0 .1-.1.1-.1.2v.1c0 .1-.1.1-.1.2.1 0 .1 0 0 0 10.7-2.3 19.7-4.1 26.5-5.4z"/><path class="st11" d="M267.8 84.5c10.3-4.2 18.5-7.8 24.9-10.2-1.7-3.1-2.5-6.1-2.8-8.8-6.9 1.3-15.9 3.1-26.5 5.4v.1c-.1 0-.1.1-.1.1-.1 0-.1.1-.1.1-.1 0-.1.1-.1.1-.1.1-.1.1-.1.2-.1 0-.1.1-.1.1 0 .1-.1.1-.1.2v.1s-.1.1-.1.2v.1c0 .1-.1.2-.1.3-.2.6-.4 1.3-.5 2.1v1.6c.1 1.4.4 2.9 1.3 4.3.1.2.2.3.3.5.1.2.3.3.4.5.1.2.2.3.4.5.8.9 1.9 1.7 3.3 2.5z"/></g><g><path class="st6" d="M78.5 141.1c4.2 6.7 12.7 10.5 34 8.2 6.2-.7 13.5-1.9 22.1-3.7 14.6-3.1 33.1-8 56.5-15 28-8.4 59.9-21.9 83-35.1-6.4-3.2-6.3-9.1-6.2-10.6l-.1-.5c-30 12.1-77.5 29-143.2 45.7-6.9 1.8-14 3.5-21.3 5.3-8 1.9-16.3 3.9-24.8 5.7z"/><path class="st8" d="M74.8 129.7c7.8-3.6 15.8-7.1 23.9-10.4 6.8-2.7 13.7-5.4 20.6-8h.1C172.1 91.7 227 78.2 263.3 70.4c.1 0 .1-.1.1-.1v-.1c.1-.1.1-.2.1-.2.1-.1.1-.2.1-.2l-.3-.3c-4.9-5-2.4-10.1-.9-12.2-26.5 1.8-60.5 8.1-88.4 16.5-22.9 6.9-41 13.2-55.1 18.9-8.1 3.3-14.9 6.5-20.5 9.5-18.3 9.9-24.3 18.6-23.6 27.5z"/><path class="st7" d="M75.5 134.1c.7 2.4 1.6 4.7 2.9 6.7 8.5-1.9 16.8-3.8 24.8-5.7 7.3-1.8 14.4-3.5 21.3-5.3 65.7-16.7 113.2-33.6 143.2-45.7-1.4-.8-2.5-1.6-3.3-2.5-.1-.2-.3-.3-.4-.5-.2-.2-.3-.3-.4-.5-.1-.2-.2-.3-.3-.5-.9-1.4-1.3-2.9-1.3-4.3v-.5-.1-.5-.5c.1-.7.3-1.5.5-2.1 0-.1.1-.2.1-.3v-.1s.1-.1.1-.2v-.1c0-.1.1-.1.1-.2.1 0 .1-.1.1-.1.1-.1.1-.1.1-.2.1 0 .1-.1.1-.1.1 0 .1-.1.1-.1.1 0 .1-.1.1-.1v-.1c-36.3 7.8-91.2 21.4-143.9 40.9h-.1c-6.9 2.5-13.8 5.2-20.6 8-8.1 3.3-16.1 6.8-23.9 10.4.1 1.6.4 3.1.7 4.3z"/></g><path class="st12" d="M189.3 122.1C297.2 89.6 306 67.4 306 67.4c-.4 3.6-3.6 7.9-8.9 12.5-5.6 4.9-13.6 10.2-23 15.6-23.1 13.2-55 26.7-83 35.1-23.3 7.1-41.8 11.9-56.5 15-8.6 1.8-15.9 3-22.1 3.7-17.4 1.9-26.2-.3-31.2-4.8 0 0 10.3 7 108-22.4z"/></g><g><path class="st2" d="M76.5 132.4l38.4-13.9c2.1-.6 4.7 1.7 5.3 3.6.6 1.9-.2 5.3-2.3 6l-39.5 10.4c-2.1.6-4.1.1-4.7-1.8-.6-1.9.7-3.6 2.8-4.3z"/><path class="st3" d="M74.7 138.1c1 .7 2.3.7 3.7.3l39.5-10.4c1.5-.5 2.4-2.4 2.5-4.1-16.6 6.4-45.6 14.3-45.7 14.2z"/><path class="st4" d="M75.1 134.7c-.2-.5.3-.7.9-.9l38.4-13.5c2.1-.7 2.2.3 2.4.8.1.5-.3 1.1-.9 1.3l-39.5 12.5c-.6.2-1.1.3-1.3-.2z"/></g><g><path class="st13" d="M161.3 106.6c-.6-.8-1-1.7-1-2.7M159.2 107.4c-.3-.7-.5-1.3-.8-2"/><path class="st14" d="M212.1 76.5c-.1-1 0-1.9.5-2.8M209.9 76.1l.3-2.1"/><path class="st15" d="M225 95.3c-.2-1.2-.2-1.5-.8-2.6"/><path class="st16" d="M286.1 81.5c0-.6-.2-.7-.2-1.4M284.7 82.1c-.1-.9-.3-.4-.4-1.3"/><g><path class="st17" d="M111.3 140.4c0-.6-.2-.7-.2-1.4M109.9 141c-.1-.9-.3-.4-.4-1.3"/></g><path class="st17" d="M137 130.1c-.6-.7-.9-.9-1.2-1.8"/></g></g><g><path class="st1" d="M97 92s-1.7.6-4.3 1.5c-2.6 1-6.1 2.1-9.5 3.3-1.8.6-3.5 1.3-5.1 1.8-1.6.4-3.2.8-4.5 1.1-2.6.6-4.5.7-4.5.7l-.1-.2s1.6-.9 4.2-1.9c1.3-.6 2.8-1.1 4.4-1.6 1.7-.4 3.4-.8 5.2-1.3 3.5-.9 7-1.9 9.7-2.5 2.6-.7 4.4-1.1 4.4-1.1l.1.2zM106.2 162.6s-1.4.5-3.5 1.3c-2.1.7-4.9 1.7-7.7 2.7-1.4.5-2.8 1.1-4.1 1.5s-2.6.7-3.7.9c-2.2.5-3.7.5-3.7.5l-.1-.2s1.3-.8 3.4-1.7c1-.4 2.3-.9 3.6-1.3 1.3-.4 2.8-.7 4.2-1.1 2.8-.7 5.7-1.5 7.9-2 2.2-.6 3.6-.9 3.6-.9l.1.3z"/></g></g><g class="st18"><path class="st1" d="M27.9 49.2s-1.5.6-3.8 1.4c-2.3.8-5.4 1.8-8.5 2.9-1.5.6-3 1.1-4.5 1.6s-2.9.8-4.1 1c-2.4.5-4.1.6-4.1.6l-.1-.2s1.4-.9 3.7-1.8c1.1-.5 2.4-1 3.9-1.4 1.5-.5 3.1-.8 4.7-1.2 3.2-.8 6.3-1.6 8.7-2.2 2.4-.5 4-.9 4-.9l.1.2zM30.3 59s-1.5.6-3.8 1.4c-2.3.8-5.4 1.8-8.5 2.9-1.5.6-3 1.1-4.5 1.6s-2.9.8-4.1 1c-2.4.5-4.1.6-4.1.6l-.1-.2s1.4-.9 3.7-1.8c1.1-.5 2.4-1 3.9-1.4 1.5-.5 3.1-.8 4.7-1.2 3.2-.8 6.3-1.6 8.7-2.2 2.4-.5 4-.9 4-.9l.1.2zM25.1 55.2s-1.5.6-3.8 1.4c-2.3.8-5.4 1.8-8.5 2.9-1.5.6-3 1.1-4.5 1.6s-2.9.8-4.1 1c-2.4.5-4.1.6-4.1.6l-.1-.2s1.4-.9 3.7-1.8c1.1-.5 2.4-1 3.9-1.4 1.5-.5 3.1-.8 4.7-1.2 3.2-.8 6.3-1.6 8.7-2.2 2.4-.5 4-.9 4-.9l.1.2z"/><g><path class="st19" d="M43.3 31.1s-19.5-5.8-21.5-6.3c-1.9-.5-.4-2.1-.4-2.1S40 16.4 48.1 18c8.1 1.6 8.4 6.9 8.4 6.9l-13.2 6.2z"/><path class="st20" d="M39.1 29.9c2.4.7 4.1 1.2 4.1 1.2l13.2-6.2s0-1.4-1.2-3c-9.4 3.6-16.1 8-16.1 8z"/><path class="st21" d="M51.8 22.1c-.8.5-2-.4-2-.4-3.9-2.4-13.3-.4-15.7.3-3.3.9-3.7 1-3.8.3-.1-.6.6-.8.6-.8 16.3-5.2 20.9-.4 20.9-.4.8.6 0 1 0 1z"/><g><path class="st19" d="M53.1 64.1s-13.2 15.5-14.6 17 .8 2 .8 2 19-4.8 24.9-10.6c6-5.8 3.3-10.4 3.3-10.4l-14.4 2z"/><path class="st20" d="M50.3 67.4c1.7-2 2.8-3.3 2.8-3.3l14.4-2s.8 1.2.6 3.2c-9.9 2.1-17.9 2.1-17.8 2.1z"/><path class="st21" d="M65 67.1c-.9 0-1.4 1.4-1.4 1.4-2 4.2-11 7.6-13.4 8.3-3.2 1-3.5 1.2-3.3 1.8.3.5 1 .3 1 .3 16.6-4.4 17.8-11 17.8-11 .2-1-.7-.9-.7-.8z"/></g><g><path class="st5" d="M25.3 54.2c.5 1.8 1.1 3.4 2 4.8 3 4.7 9 7.5 24.1 5.9 4.3-.4 9.5-1.3 15.6-2.5 10.4-2.1 23.5-5.5 40.1-10.4 19.8-5.8 42.5-15.3 58.9-24.6 6.7-3.8 12.3-7.5 16.3-11 3.8-3.3 6-6.3 6.3-8.8.1-.5.1-1.1-.1-1.6-.2-.7-.6-1.3-1.2-1.9-1.8-1.7-5.2-2.9-9.8-3.5-5.2-.7-12-.8-19.7-.3-18.8 1.2-42.9 5.5-62.7 11.4C78.8 16.5 66 20.9 56 24.9c-5.8 2.3-10.6 4.6-14.6 6.7-13 6.9-17.3 13.1-16.8 19.5.1 1.1.3 2.2.7 3.1z"/><path class="st22" d="M179.1 12.2c.8 1.4 1.8 2.9 3.2 4.3 3.8-3.3 6-6.3 6.3-8.8-1.3.7-4.5 2.2-9.5 4.5z"/><path class="st5" d="M179.1 12.1c5-2.2 8.1-3.8 9.5-4.5.1-.5.1-1.1-.1-1.6-.2-.7-.6-1.3-1.2-1.9-1.3.2-4.8.8-10.1 1.8.2 1.9.7 4.1 1.9 6.2z"/><path class="st23" d="M177.2 5.9c5.3-1 8.8-1.6 10.1-1.8-1.8-1.7-5.2-2.9-9.8-3.5-.2 1.2-.5 3.1-.3 5.3z"/><g><path class="st9" d="M166 27.4c6.7-3.8 12.3-7.5 16.3-11-1.4-1.4-2.4-2.9-3.2-4.3-4.4 2-10.2 4.5-17.5 7.4 0 .1.1.1.1.1v.3c-.1 1.1-.2 5.2 4.3 7.5z"/><path class="st10" d="M177.3 5.9c-.3-2.2 0-4.1.3-5.3-5.2-.7-12-.8-19.7-.3-1 1.5-2.8 5.1.6 8.7l.2.2s0 .1-.1.2c-.1 0-.1.1-.1.1v.1c-.1 0-.1 0-.1.1 0-.1 0-.1 0 0 7.5-1.6 13.9-2.9 18.9-3.8z"/><path class="st11" d="M161.6 19.5c0 .1 0 .1 0 0 7.3-2.8 13.1-5.3 17.4-7.1-1.2-2.3-1.7-4.4-1.9-6.3-4.9.9-11.3 2.1-18.8 3.7V10.1c-.1 0-.1.1-.1.1v.1c-.1 0-.1 0-.1.1v.1c-.1.1-.1.1-.1.2v.1c-.1.1-.1.1-.1.2-.1.4-.2.9-.3 1.5V13.4c0 1 .3 2.1.9 3.1 0 .2.1.3.2.4.1.2.2.3.3.4.1.2.2.3.3.4.6.7 1.3 1.3 2.3 1.8z"/></g><g><path class="st22" d="M27.3 59.1c3 4.7 9 7.5 24.1 5.9 4.3-.4 9.5-1.3 15.6-2.5 10.4-2.1 23.5-5.5 40.1-10.4 19.8-5.8 42.5-15.3 58.9-24.6-4.5-2.3-4.4-6.5-4.3-7.6l-.1-.3c-21.3 8.4-55 20.2-101.7 31.9C55 52.8 50 54 44.8 55.2c-5.6 1.3-11.5 2.6-17.5 3.9z"/><path class="st23" d="M24.6 51.1c5.6-2.5 11.2-5 17-7.3 4.9-1.9 9.8-3.8 14.7-5.6h.1c37.4-13.7 76.4-23.1 102.1-28.5v-.1-.1c.1 0 .1-.1.1-.1.1-.1.1-.2.1-.2l-.2-.2c-3.4-3.6-1.7-7.2-.6-8.7-18.8 1.2-42.9 5.5-62.7 11.4-16.3 4.8-29.1 9.2-39.1 13.2-5.8 2.3-10.6 4.6-14.6 6.7-13 6.9-17.3 13.1-16.9 19.5z"/><path class="st5" d="M25.4 54.2c.5 1.8 1.1 3.4 2 4.8 6.1-1.3 11.9-2.7 17.6-4 5.2-1.3 10.2-2.5 15.1-3.7 46.6-11.6 80.3-23.4 101.6-31.9-1-.6-1.7-1.2-2.3-1.8-.1-.2-.2-.3-.3-.4-.1-.2-.2-.3-.3-.4 0-.2-.1-.3-.2-.4-.6-1.1-.9-2.1-.9-3.1V13v-.3-.3c0-.5.2-1.1.3-1.5.1-.1.1-.1.1-.2v-.1c.1-.1.1-.1.1-.2v-.1c.1 0 .1-.1.1-.1v-.1c.1 0 .1-.1.1-.1V9.7c-25.7 5.4-64.7 14.8-102 28.5h-.1c-5 1.8-9.9 3.6-14.7 5.6-5.8 2.3-11.5 4.8-17 7.3.1 1.1.3 2.2.8 3.1z"/></g><path class="st24" d="M105.6 46.1c76.6-22.7 82.9-38.4 82.9-38.4-.2 2.5-2.5 5.5-6.3 8.8-4 3.5-9.6 7.2-16.3 11-16.4 9.2-39.1 18.7-58.9 24.6-16.6 4.9-29.7 8.3-40.1 10.4-6 1.2-11.2 2-15.6 2.5-12.3 1.3-18.6-.3-22.1-3.5 0 0 7.3 5 76.4-15.4z"/></g><g><path class="st19" d="M25.9 53l27.3-9.8c1.5-.4 3.4 1.2 3.8 2.6.4 1.3-.2 3.7-1.7 4.2l-28 7.2c-1.5.4-3 .1-3.4-1.3-.5-1.3.5-2.5 2-2.9z"/><path class="st20" d="M24.6 57c.7.4 1.6.5 2.6.2l28-7.2c1.1-.3 1.7-1.7 1.8-2.9C45.2 51.5 24.6 57 24.6 57z"/><path class="st21" d="M24.8 54.5c-.1-.3.2-.5.7-.6l27.2-9.5c1.5-.4 1.6.3 1.7.6.1.4-.1.8-.6.9l-28 8.8c-.5.2-.8.2-1-.2z"/></g><g><path class="st25" d="M73.6 44.4c-.4-.5-.7-1.2-.7-1.9M72.1 45c-.2-.5-.4-.9-.6-1.4M102.1 14.6c.2-.7.6-1.3 1.1-1.7M100.7 13.7c.3-.4.5-.9.8-1.3M131.6 21.7c-.2-.8-.2-1-.6-1.8"/><path class="st26" d="M167.1 20c0-.5-.1-.5-.1-1M166.2 20.4c-.1-.6-.2-.3-.3-.9"/><g><path class="st27" d="M50.5 58.7c0-.5-.1-.5-.1-1M49.5 59.1c-.1-.6-.2-.3-.3-.9"/></g><path class="st27" d="M83.2 50.9c-.5-.5-.7-.7-.9-1.3"/></g></g><g><path class="st1" d="M40.5 24.2s-4.9 1.8-9.8 3.4l-3.6 1.2c-1.1.3-2.2.6-3.2.8-1.9.4-3.2.5-3.2.5V30s1.2-.6 3-1.3c.9-.4 1.9-.8 3.1-1.1s2.4-.6 3.7-.9c5-1.3 10-2.5 10-2.5zM46.9 74.4l-8 2.8c-1 .3-2 .7-2.9 1-.9.3-1.8.5-2.6.6-1.6.3-2.7.3-2.7.3V79s.9-.6 2.4-1.2c.7-.3 1.6-.6 2.5-.9.9-.2 2-.4 3-.7 4.1-1.1 8.2-2 8.2-2l.1.2z"/></g></g><g class="st28"><path class="st1" d="M565.4 128s-2.4.9-6 2c-3.6 1.2-8.5 2.6-13.3 4.1-1.2.3-2.4.7-3.6 1.1-1.2.4-2.4.8-3.5 1.1-2.2.6-4.4 1-6.3 1.3-3.8.7-6.4.7-6.4.7l-.1-.3s2.3-1.3 5.9-2.6c1.8-.7 3.9-1.4 6.2-2 1.2-.3 2.4-.6 3.6-.8 1.2-.3 2.5-.5 3.7-.8 5-1 9.9-2.2 13.6-2.9 3.7-.8 6.2-1.3 6.2-1.3v.4zM568.5 143.3s-2.4.9-6 2c-3.6 1.2-8.5 2.6-13.3 4.1-1.2.3-2.4.7-3.6 1.1-1.2.4-2.4.8-3.5 1.1-2.2.6-4.4 1-6.3 1.3-3.8.7-6.4.7-6.4.7l-.1-.3s2.3-1.3 5.9-2.6c1.8-.7 3.9-1.4 6.2-2 1.2-.3 2.4-.6 3.6-.8 1.2-.3 2.5-.5 3.7-.8 5-1 9.9-2.2 13.6-2.9 3.7-.8 6.2-1.3 6.2-1.3v.4zM560.7 137.1s-2.4.9-6 2c-3.6 1.2-8.5 2.6-13.3 4.1-1.2.3-2.4.7-3.6 1.1-1.2.4-2.4.8-3.5 1.1-2.2.6-4.4 1-6.3 1.3-3.8.7-6.4.7-6.4.7l-.1-.3s2.3-1.3 5.9-2.6c1.8-.7 3.9-1.4 6.2-2 1.2-.3 2.4-.6 3.6-.8 1.2-.3 2.5-.5 3.7-.8 5-1 9.9-2.2 13.6-2.9 3.7-.8 6.2-1.3 6.2-1.3v.4z"/><g><path class="st19" d="M590.2 100.6s-29.9-9.9-32.9-10.8-.5-3.3-.5-3.3 29-8.8 41.5-5.9 12.6 11.1 12.6 11.1l-20.7 8.9z"/><path class="st20" d="M583.8 98.6c3.7 1.2 6.3 2.1 6.3 2.1l20.7-9s.1-2.1-1.7-4.7c-14.8 5.1-25.3 11.6-25.3 11.6z"/><path class="st21" d="M603.7 87.2c-1.3.7-3-.7-3-.7-6-4-20.6-1.2-24.4-.3-5.1 1.2-5.7 1.2-5.9.2-.1-.9 1-1.2 1-1.2 25.6-7.4 32.5.3 32.5.3 1.1 1.1-.2 1.7-.2 1.7z"/><g><path class="st19" d="M603.7 152.2s-21.2 23.3-23.4 25.6c-2.2 2.2 1.1 3.1 1.1 3.1s29.6-6.6 39.1-15.2c9.5-8.7 5.6-15.9 5.6-15.9l-22.4 2.4z"/><path class="st20" d="M599.2 157.1c2.7-2.9 4.5-4.9 4.5-4.9l22.4-2.3s1.1 1.8.8 4.9c-15.4 2.8-27.7 2.3-27.7 2.3z"/><path class="st21" d="M622.1 157.2c-1.5 0-2.3 2.1-2.3 2.1-3.2 6.4-17.4 11.2-21.1 12.2-5.1 1.4-5.7 1.7-5.3 2.7.3.9 1.5.6 1.5.6 25.9-6.1 28.1-16.2 28.1-16.2.5-1.4-.9-1.3-.9-1.4z"/></g><g><path class="st5" d="M561.1 135.8c.7 2.7 1.6 5.2 2.9 7.5 4.4 7.5 13.6 12 37 10.3 6.8-.5 14.8-1.6 24.3-3.2 16.2-2.8 36.7-7.4 62.6-14.2 31-8.2 66.6-21.7 92.4-35.3 10.5-5.5 19.5-11 25.8-16.2 6-4.9 9.7-9.4 10.2-13.3.2-.8.1-1.7-.1-2.5-.3-1.1-.9-2.1-1.8-3-2.6-2.8-7.8-4.7-14.9-5.9-8.1-1.4-18.6-1.8-30.5-1.5-29.1.9-66.7 6.5-97.6 14.7-25.4 6.7-45.5 12.8-61.2 18.5-9 3.3-16.6 6.5-22.9 9.6-20.5 10.1-27.4 19.4-27 29.4.1 1.7.4 3.3.8 5.1z"/><path class="st2" d="M801.4 77.9c1.1 2.2 2.6 4.5 4.7 6.8 6-4.9 9.7-9.4 10.2-13.3-2.1 1-7.1 3.3-14.9 6.5z"/><path class="st29" d="M801.4 77.9c7.8-3.2 12.8-5.5 14.9-6.5.2-.8.1-1.7-.1-2.5-.3-1.1-.9-2.1-1.8-3-2 .3-7.5 1-15.7 2.3.2 2.9.9 6.3 2.7 9.7z"/><path class="st4" d="M798.7 68.2c8.2-1.3 13.7-2 15.7-2.3-2.6-2.8-7.8-4.7-14.9-5.9-.5 1.9-1 4.7-.8 8.2z"/><g><path class="st9" d="M780.3 101c10.5-5.5 19.5-11 25.8-16.2-2-2.3-3.6-4.6-4.7-6.8-6.9 2.8-16.1 6.4-27.5 10.6.1 0 .1.1.2.1 0 0-.1.1-.1.4-.2 1.6-.5 8.1 6.3 11.9z"/><path class="st10" d="M798.7 68.2c-.2-3.5.3-6.3.8-8.2-8.1-1.4-18.6-1.8-30.5-1.5-1.7 2.3-4.6 7.8.5 13.5l.3.3s-.1.1-.2.3c0 .1-.1.1-.1.2v.1c0 .1 0 .1-.1.2 0-.1 0-.1 0 0 11.7-2.1 21.7-3.7 29.3-4.9z"/><path class="st11" d="M773.9 88.5c11.4-4.1 20.6-7.7 27.7-10.4-1.8-3.5-2.5-6.9-2.7-9.8-7.6 1.2-17.6 2.8-29.3 4.9v.1c-.1 0-.1.1-.1.1 0 .1-.1.1-.1.2-.1 0-.1.1-.1.1 0 .1-.1.1-.1.2-.1 0-.1.1-.1.1s-.1.1-.1.2c-.1 0-.1.1-.1.1 0 .1-.1.2-.1.3v.1c0 .1-.1.2-.1.3-.3.6-.5 1.4-.6 2.3-.1.2-.1.3-.1.5V79c0 1.5.3 3.2 1.2 4.8l.3.6v.1c.1.2.3.4.4.6.2.2.3.4.5.6.9 1 2 1.9 3.5 2.8z"/></g><g><path class="st2" d="M564 143.3c4.4 7.5 13.6 12 37 10.3 6.8-.5 14.8-1.6 24.3-3.2 16.2-2.8 36.7-7.4 62.6-14.2 31-8.2 66.6-21.7 92.4-35.3-6.8-3.8-6.5-10.2-6.3-11.9l-.1-.5c-33.4 12.1-86.2 28.7-158.9 44.5-7.6 1.6-15.5 3.3-23.6 4.9-8.9 1.8-18 3.6-27.4 5.4z"/><path class="st4" d="M560.3 130.7c8.7-3.7 17.6-7.2 26.6-10.5 7.6-2.8 15.3-5.5 23-8h.1c58.6-19.3 119.3-32 159.4-39.1V73c.1 0 .1-.1.1-.1v-.1c0-.1.1-.2.1-.2.1-.2.2-.3.2-.3l-.3-.3c-5.1-5.8-2.2-11.2-.5-13.5-29.1.9-66.7 6.5-97.6 14.7-25.4 6.7-45.5 12.8-61.2 18.5-9 3.3-16.6 6.5-22.9 9.6-20.4 10.1-27.3 19.4-27 29.4z"/><path class="st29" d="M560.9 135.6c.7 2.7 1.6 5.2 2.9 7.5 9.4-1.7 18.5-3.5 27.4-5.3 8.1-1.6 16-3.2 23.6-4.9 72.8-15.8 125.5-32.4 158.9-44.5-1.5-.8-2.6-1.8-3.5-2.8-.2-.2-.4-.4-.5-.6-.1-.2-.3-.4-.4-.6v-.1l-.3-.6c-.9-1.6-1.2-3.3-1.2-4.8v-.5-.1-.5-.1c.1-.2.1-.3.1-.5.1-.8.4-1.6.6-2.3 0-.1.1-.2.1-.3v-.1c0-.1.1-.2.1-.3.1 0 .1-.1.1-.1 0-.1.1-.1.1-.2.1 0 .1-.1.1-.1 0-.1.1-.1.1-.2.1 0 .1-.1.1-.1 0-.1.1-.1.1-.2.1 0 .1-.1.1-.1v-.1c-40.1 7.1-100.8 19.8-159.4 39.1h-.1c-7.8 2.6-15.4 5.2-23 8-9 3.4-17.9 6.8-26.6 10.5.1 1.7.4 3.3.6 4.9z"/></g><path class="st30" d="M686.2 126.6c119.6-31.3 130.1-55.3 130.1-55.3-.5 3.9-4.2 8.4-10.2 13.3-6.3 5.1-15.3 10.7-25.8 16.2-25.8 13.6-61.4 27.2-92.4 35.3-25.9 6.8-46.4 11.4-62.6 14.2-9.4 1.7-17.5 2.7-24.3 3.2-19.1 1.4-28.7-1.3-34-6.5 0 0 10.9 8.1 119.2-20.4z"/></g><g><path class="st19" d="M562.1 133.6l42.7-13.8c2.3-.7 5.1 2 5.7 4.1.6 2.2-.5 5.9-2.8 6.5l-43.7 9.8c-2.3.7-4.5 0-5.1-2.1-.6-2.1 1-3.9 3.2-4.5z"/><path class="st20" d="M560 139.8c1 .7 2.5.8 4 .4l43.7-9.8c1.7-.5 2.7-2.5 2.9-4.4-18.5 6.4-50.6 13.8-50.6 13.8z"/><path class="st21" d="M560.6 136.1c-.2-.6.3-.8 1-1l42.6-13.3c2.4-.6 2.4.5 2.6 1 .2.5-.3 1.1-1 1.3L562 136.3c-.8.2-1.2.3-1.4-.2z"/></g><g><path class="st31" d="M636.5 122.8c-.7-.9-1-1.9-1-3M634.1 123.5c-.3-.7-.5-1.5-.8-2.2"/><path class="st32" d="M682 78c.3-1 1-2 1.8-2.6M679.9 76.6c.4-.7.9-1.3 1.3-2"/><path class="st31" d="M727.4 90.4c-.2-1.4-.2-1.7-.8-2.9"/><path class="st33" d="M782.5 89.5c-.1-.8-.2-.9-.2-1.6M780.9 90.1c-.1-1-.3-.5-.4-1.5"/><g><path class="st34" d="M600.1 143.7c-.1-.8-.2-.9-.2-1.6M598.5 144.4c-.1-1-.3-.5-.4-1.5"/></g><path class="st34" d="M651 133.3c-.7-.8-1-1.1-1.3-2.1"/></g></g><g><path class="st1" d="M586.3 90s-1.9.6-4.8 1.5c-2.8.9-6.7 2-10.5 3.2-1.9.5-3.8 1.2-5.6 1.7-1.8.5-3.5.8-5 1.1-3 .5-5 .6-5 .6l-.1-.2s1.9-.9 4.7-1.9c1.4-.5 3.1-1 4.9-1.5 1.8-.5 3.7-.9 5.7-1.3 3.9-.9 7.8-1.8 10.7-2.4 2.9-.6 4.9-1 4.9-1l.1.2zM593.6 167.8s-1.6.5-3.9 1.3c-2.4.8-5.5 1.7-8.6 2.7-1.6.4-3.1 1-4.6 1.4-1.5.4-2.9.6-4.1.8-2.4.4-4.1.4-4.1.4l-.1-.2s1.5-.8 3.8-1.7c1.2-.4 2.5-.9 4-1.3s3.1-.6 4.7-1c3.2-.7 6.4-1.4 8.8-1.9 2.4-.5 4-.8 4-.8l.1.3z"/></g></g></svg>