<svg id="Artboard_1" xmlns="http://www.w3.org/2000/svg" viewBox="0 0 669.4 224.7"><style>.st0{fill:#FFFFFF;} .st1{fill:#FFCB05;} .st2{fill:#EFBA11;} .st3{fill:#FFE069;} .st4{fill:#FFAD33;} .st5{fill:#1D1D1B;} .st6{fill:#3C3C3B;} .st7{fill:#706F6F;} .st8{fill:#FFF2CD;} .st9{fill:#FFFCF5;} .st10{fill:#FFF7E1;} .st11{fill:#FF9900;} .st12{fill:#FFC266;} .st13{opacity:0.24;fill:#FFCB05;enable-background:new ;} .st14{fill:none;stroke:#706F6F;stroke-width:2.3519;stroke-linecap:round;stroke-linejoin:round;stroke-miterlimit:10;} .st15{fill:none;stroke:#FFF0CC;stroke-width:2.3519;stroke-linecap:round;stroke-linejoin:round;stroke-miterlimit:10;} .st16{fill:none;stroke:#FFC266;stroke-width:2.3519;stroke-linecap:round;stroke-linejoin:round;stroke-miterlimit:10;} .st17{fill:none;stroke:#FFE069;stroke-width:2.3519;stroke-linecap:round;stroke-linejoin:round;stroke-miterlimit:10;} .st18{fill:none;stroke:#FFD537;stroke-width:2.3519;stroke-linecap:round;stroke-linejoin:round;stroke-miterlimit:10;}</style><path class="st0" d="M114.6 105.7s-1.6.3-4.3.9c-2.8.6-6.6 1.4-11.3 2.4-2.3.5-4.8 1-7.5 1.6-2.7.5-5.5 1.1-8.4 1.7-5.8 1.2-12.1 2.4-18.3 3.6-3.1.6-6.2 1.2-9.3 1.9-3.1.7-6.1 1.3-9 1.8s-5.8.8-8.5 1.1c-2.7.3-5.3.5-7.7.6s-4.5.2-6.5.2h-5.1c-2.8 0-4.4-.2-4.4-.2l-.1-.7s1.5-.7 4.2-1.6c1.3-.5 2.9-1 4.8-1.6 1.9-.6 4-1.2 6.3-1.8 2.3-.6 4.8-1.2 7.5-1.8 2.6-.6 5.5-1.1 8.4-1.6 2.9-.4 6-.7 9.1-1 3.1-.3 6.2-.6 9.4-1 6.3-.7 12.6-1.5 18.5-2.1 2.9-.3 5.8-.6 8.5-.9 2.7-.3 5.2-.6 7.6-.8 4.8-.4 8.7-.9 11.5-1.1 2.7-.3 4.3-.4 4.3-.4l.3.8zM118.4 144.8s-1.6.3-4.3.9c-2.8.6-6.6 1.4-11.3 2.4-2.3.5-4.8 1-7.5 1.6-2.7.5-5.5 1.1-8.4 1.7-5.8 1.2-12.1 2.4-18.3 3.6-3.1.6-6.2 1.2-9.3 1.9s-6.1 1.3-9 1.8-5.8.8-8.5 1.1-5.3.5-7.7.6c-2.4.1-4.5.2-6.5.2h-5.1c-2.8 0-4.4-.2-4.4-.2l-.1-.7s1.5-.7 4.2-1.6c1.3-.5 2.9-1 4.8-1.6 1.9-.6 4-1.2 6.3-1.8s4.8-1.2 7.5-1.8c2.6-.6 5.5-1.1 8.4-1.6 2.9-.4 6-.7 9.1-1 3.1-.3 6.2-.6 9.4-1 6.3-.7 12.6-1.5 18.5-2.1 2.9-.3 5.8-.6 8.5-.9 2.7-.3 5.2-.6 7.6-.8 4.8-.4 8.7-.9 11.5-1.1 2.7-.3 4.3-.4 4.3-.4l.3.8zM100.4 127.3s-1.6.3-4.3.9c-2.8.6-6.6 1.4-11.3 2.4-2.3.5-4.8 1-7.5 1.6-2.7.5-5.5 1.1-8.4 1.7-5.8 1.2-12.1 2.4-18.3 3.6-3.1.6-6.2 1.2-9.3 1.9s-6.1 1.3-9 1.8-5.8.8-8.5 1.1-5.3.5-7.7.6c-2.4.1-4.5.2-6.5.2H4.5c-2.8 0-4.4-.2-4.4-.2l-.1-.7s1.5-.7 4.2-1.6c1.3-.5 2.9-1 4.8-1.6 1.9-.6 4-1.2 6.3-1.8s4.8-1.2 7.5-1.8c2.6-.6 5.5-1.1 8.4-1.6 2.9-.4 6-.7 9.1-1 3.1-.3 6.2-.6 9.4-1 6.3-.7 12.6-1.5 18.5-2.1 2.9-.3 5.8-.6 8.5-.9 2.7-.3 5.2-.6 7.6-.8 4.8-.4 8.7-.9 11.5-1.1 2.7-.3 4.3-.4 4.3-.4l.3.8z"/><g><path class="st1" d="M175.8 53S113.3 24.9 107 22.2c-6.3-2.7-.4-7.3-.4-7.3s64.8-12.6 91.2-3.6c26.3 9 24.8 26.9 24.8 26.9L175.8 53z"/><path class="st2" d="M162.6 47c7.8 3.6 13.2 6 13.2 6l46.8-14.7s.7-4.5-2.7-10.5c-33.1 7.7-57.3 19.3-57.3 19.2z"/><path class="st3" d="M208.2 26.8c-3 1.3-6.4-2.2-6.4-2.2-11.9-9.9-44.2-7.3-52.6-6.1-11.3 1.6-12.7 1.5-12.8-.8-.1-2 2.4-2.4 2.4-2.4 56.9-10.2 70.1 8 70.1 8 2.2 2.5-.7 3.6-.7 3.5z"/><g><path class="st1" d="M193.5 167.5s-51.1 45.7-56.3 50.1c-5.2 4.5 1.8 7.1 1.8 7.1s65.5-7.6 88-24.1 15.6-33.1 15.6-33.1h-49.1z"/><path class="st2" d="M182.7 177.2c6.4-5.7 10.8-9.7 10.8-9.7h49.1s1.9 4.1.5 10.8c-33.9 2.6-60.4-1.1-60.4-1.1z"/><path class="st3" d="M232.2 182.7c-3.2-.3-5.4 4.1-5.4 4.1-8.4 13.1-40 20.3-48.3 21.7-11.3 1.9-12.6 2.4-12 4.6.4 1.9 3 1.6 3 1.6 57.4-7.5 64.5-28.8 64.5-28.8 1.3-3.1-1.7-3.2-1.8-3.2z"/></g><g><path class="st4" d="M102.2 122.5c.9 6.1 2.3 11.7 4.6 16.9 7.8 17.2 26.6 29 77.7 30.6 14.9.4 32.5 0 53.4-1.4 35.7-2.5 81.1-7.8 138.6-16.7 68.9-10.6 148.9-32.1 207.8-55.6 24.1-9.6 44.6-19.6 59.4-29.4 14.1-9.2 23.1-18.2 25.1-26.5.5-1.9.6-3.7.3-5.5-.3-2.4-1.4-4.7-3.1-6.9-5.1-6.5-15.9-11.9-31-16-17.2-4.8-39.8-8.1-65.7-10-63.2-4.7-145.6-1-214.4 9.7-56.5 8.7-101.3 17.4-136.5 26.3-20.3 5.1-37.4 10.4-51.7 15.7-46.5 17.4-63.6 36.1-65 57.7-.2 3.6 0 7.3.5 11.1z"/><path class="st5" d="M635.1 51.2c1.9 5.1 4.7 10.4 8.7 15.8 14.1-9.2 23.1-18.2 25.1-26.5-4.9 1.7-16.2 5.5-33.8 10.7z"/><path class="st6" d="M635 51.2c17.7-5.3 28.9-9.1 33.8-10.8.5-1.9.6-3.7.3-5.5-.3-2.4-1.4-4.7-3.1-6.9-4.4.2-16.5.5-34.5 1.4-.3 6.4.6 13.9 3.5 21.8z"/><path class="st7" d="M631.4 29.4c18.1-.9 30.2-1.3 34.6-1.4-5.1-6.5-15.9-11.9-31-16.1-1.5 3.9-3.3 10-3.6 17.5z"/><path class="st8" d="M584.3 96.3c24.1-9.6 44.6-19.6 59.4-29.4-4-5.4-6.8-10.7-8.7-15.8-15.6 4.7-36.3 10.4-61.9 16.8.2.1.3.2.4.3 0 0-.1.3-.2.9-.8 3.6-2.9 17.5 11 27.2z"/><path class="st9" d="M631.5 29.5c.3-7.5 2-13.6 3.5-17.5-17.2-4.8-39.8-8.1-65.7-10-4.2 4.5-11.8 15.7-2 29.2.2.3.4.5.6.8 0 0-.2.2-.4.5 0 .1-.1.2-.2.3 0 .1-.1.1-.1.2-.1.1-.1.2-.2.3-.1 0-.1.1-.1.1 25.9-1.8 47.8-3.1 64.6-3.9z"/><path class="st10" d="M573.1 67.9c.1 0 .1 0 0 0 25.7-6.3 46.4-12.1 62.1-16.6-3-8-3.8-15.4-3.6-21.8-16.7.8-38.6 2.1-64.5 4l-.1.1c-.1.1-.1.2-.2.3s-.1.2-.2.3c-.1.1-.1.2-.2.3 0 .1-.1.3-.2.4-.1.1-.1.2-.2.3-.1.2-.2.3-.3.5-.1.1-.1.2-.2.3l-.3.6s-.1.1-.1.2c-.1.3-.2.5-.3.7v.1c-.7 1.4-1.3 3.1-1.8 4.9v.1c-.1.4-.2.7-.3 1.1v.1c-.1.4-.1.7-.2 1.1v.1c-.1.3-.2.7-.2 1.1v.1c-.4 3.3-.1 6.9 1.5 10.6v.1c.2.4.4.9.6 1.3.1 0 .1.1.1.1.2.4.4.9.7 1.3.1 0 .1.1.1.1.3.4.6.9.9 1.3 1.6 2.3 3.9 4.7 6.9 6.9z"/><g><path class="st11" d="M167.3 134.1c-19.6 1.9-39.7 3.6-60.4 5.3 7.8 17.2 26.6 29 77.7 30.6-8.3-11.8-13.8-24.1-17.3-35.9z"/><path class="st4" d="M102.2 122.4c.9 6.1 2.3 11.7 4.6 16.9 20.7-1.6 40.8-3.4 60.4-5.3-4-13.9-5.5-27.4-5.6-39.3-20.2 5.2-40.3 10.7-59.9 16.7-.2 3.6 0 7.3.5 11z"/><path class="st12" d="M161.7 94.7c-.2-19.4 3.3-34.7 5-41-46.5 17.4-63.6 36.1-65 57.7 19.6-6 39.7-11.6 60-16.7z"/></g><g><path class="st10" d="M213.1 82.5c-17.3 3.8-34.5 7.9-51.5 12.2 0 11.9 1.5 25.4 5.6 39.3 17.9-1.7 35.3-3.5 52.2-5.4l-.9-3.3c-4-15.2-5.4-29.8-5.4-42.8z"/><path class="st8" d="M167.4 134c3.5 12 9 24.2 17.2 36 14.9.4 32.5 0 53.4-1.4-8.8-13.2-14.7-26.7-18.5-40-16.9 1.9-34.3 3.7-52.1 5.4z"/><path class="st9" d="M213 80.7c.2-19.2 3.3-34.7 5.3-42.7-20.3 5.1-37.4 10.4-51.7 15.7-1.7 6.3-5.1 21.6-5 41 17.1-4.4 34.3-8.4 51.5-12.2 0-.6 0-1.2-.1-1.8z"/></g><g><path class="st1" d="M219.4 128.6c3.9 13.3 9.8 26.9 18.5 40 35.7-2.5 81.1-7.8 138.6-16.7 68.9-10.6 148.9-32.1 207.8-55.6-13.9-9.7-11.8-23.6-11-27.2l-.1-1.1c-75 18.6-192.8 42.8-353.8 60.6z"/><path class="st3" d="M213.1 82.4h.2c131-28.7 265.3-42.5 353.6-49 .1 0 .1-.1.1-.1.1-.1.1-.2.2-.3 0-.1.1-.1.1-.2.1-.1.1-.2.2-.3.3-.3.4-.5.4-.5-.2-.3-.4-.5-.6-.8-9.8-13.5-2.2-24.6 2-29.2-63.2-4.7-145.6-1-214.4 9.7-56.5 8.7-101.3 17.4-136.5 26.3-2 8-5.1 23.5-5.3 42.7v1.7z"/><path class="st6" d="M218.3 125.3l.9 3.3C380.1 110.8 497.9 86.7 572.9 68v-.1c-3-2.2-5.2-4.6-6.9-6.9-.3-.4-.6-.9-.9-1.3-.1 0-.1-.1-.1-.1-.2-.4-.5-.9-.7-1.3-.1 0-.1-.1-.1-.1-.2-.4-.4-.9-.6-1.3v-.1c-1.5-3.7-1.9-7.3-1.5-10.6v-.1c.1-.3.1-.7.2-1.1v-.1c.1-.4.1-.7.2-1.1v-.1c.1-.4.2-.8.3-1.1v-.1c.5-1.8 1.1-3.5 1.8-4.9v-.1c.1-.3.2-.5.3-.7 0 0 .1-.1.1-.2l.3-.6c.1-.1.2-.2.2-.3.1-.2.2-.3.3-.5.1-.1.1-.2.2-.3 0-.1.1-.3.2-.4s.1-.2.2-.3c.1-.1.1-.2.2-.3.1-.1.1-.2.2-.3l.1-.1c-88.3 6.5-222.6 20.2-353.6 49h-.2c0 13 1.4 27.6 5.2 42.8z"/></g><path class="st13" d="M374.9 131.1c266-41 294-90.6 294-90.6-2.1 8.3-11 17.3-25.1 26.5-14.9 9.7-35.4 19.7-59.5 29.3-58.9 23.6-138.8 45-207.7 55.6-57.5 8.9-102.8 14.3-138.6 16.7-20.9 1.4-38.5 1.9-53.4 1.4-41.8-1.3-62-9.5-72.2-21.8 0 0 21.9 20 262.5-17.1z"/></g><g><path class="st1" d="M101.1 117.7l95.7-18.6c5.2-.8 10.5 5.7 11.2 10.4.7 4.7-2.5 12.4-7.7 13.2l-97 9.9c-5.2.8-9.8-1.2-10.5-5.9-.7-4.7 3.2-8.1 8.3-9z"/><path class="st2" d="M94.9 130.7c2 1.8 5.1 2.5 8.5 2l97-9.9c3.7-.6 6.4-4.8 7.4-8.8-41.6 8.9-112.9 16.7-112.9 16.7z"/><path class="st3" d="M97.1 122.7c-.2-1.2.9-1.6 2.5-1.8l95.5-17.6c5.2-.8 5.1 1.6 5.3 2.8.1 1.2-1 2.4-2.6 2.6l-97.9 14.9c-1.6.3-2.6.4-2.8-.9z"/></g><g><path class="st14" d="M268.3 111.1c-1.2-2-1.7-4.3-1.5-6.6M262.8 112.4c-.4-1.7-.8-3.3-1.2-5"/><path class="st15" d="M376.9 24.5c.9-2.2 2.4-4 4.4-5.2M372.6 20.9c1-1.3 2.1-2.7 3.2-4"/><path class="st14" d="M472.1 61.6c-.1-2.9 0-3.7-1.1-6.4"/><path class="st16" d="M140.5 144.6c.6 2.9.5 3.4 2 5.5"/><path class="st17" d="M617.3 67c.1-1.6-.1-1.8 0-3.4M613.7 67.9c0-2.1-.5-1.1-.5-3.2"/><g><path class="st17" d="M184.7 148.4c.1-1.6-.1-1.8 0-3.4M181.2 149.3c0-2.1-.5-1.1-.5-3.2"/></g><path class="st18" d="M297.3 137.4c-1.3-2-1.8-2.5-2.3-4.8"/></g></g><g><path class="st0" d="M199.8 187.2s-4.5.9-11.3 2.2-15.8 2.9-24.8 4.6c-2.2.4-4.5.9-6.7 1.3s-4.4.9-6.5 1.2-4.1.6-6.1.8c-1.9.3-3.8.5-5.5.6s-3.3.2-4.7.3c-1.4.1-2.6.2-3.6.2h-3.2l-.1-.3s1.1-.3 3-.9c1-.2 2.1-.6 3.5-.9 1.4-.3 2.9-.7 4.6-1.1 1.6-.3 3.5-.7 5.4-1.1 1.9-.4 4-.8 6.1-1.1 2.2-.3 4.4-.6 6.6-.8 2.2-.3 4.5-.5 6.8-.8 9.1-1.1 18.2-2.3 25-3.1s11.4-1.3 11.4-1.3l.1.2zM161.1 38s-3.5.7-8.8 1.8c-5.2 1.1-12.3 2.4-19.3 3.8-1.7.4-3.5.8-5.2 1.1-1.7.4-3.4.7-5.1 1-1.7.2-3.3.5-4.8.6-1.5.2-3 .3-4.3.4-1.4.1-2.6.2-3.7.2h-2.8c-1.6 0-2.5-.1-2.5-.1l-.1-.3 2.4-.8c.7-.2 1.6-.5 2.7-.8 1.1-.3 2.3-.6 3.6-.9 1.3-.4 2.7-.7 4.2-1 1.5-.4 3.1-.6 4.8-.9 1.6-.2 3.3-.4 5.1-.6 1.7-.2 3.5-.4 5.3-.6 7.1-.8 14.2-1.7 19.5-2.2 5.3-.6 8.9-.9 8.9-.9l.1.2z"/></g><path class="st0" d="M481.5 134.5c0 10.6 8.6 19.3 19.3 19.3H550c10.6 0 19.3-8.6 19.3-19.3 0-10.6-8.6-19.3-19.3-19.3-1.9 0-3.7.3-5.4.8-.9-9.9-9.1-17.6-19.2-17.6-10 0-18.3 7.7-19.2 17.5-1.7-.5-3.5-.8-5.3-.8-10.7 0-19.4 8.7-19.4 19.4z"/></svg>